<svg xmlns="http://www.w3.org/2000/svg" width="105" height="100" viewBox="0 0 105 100" fill="none"><path fill-rule="evenodd" clip-rule="evenodd" d="M9.42412 84.7672L2.94922 86.2196L7.34528 92.1214L6.88367 99.5821L22.2669 95.3272C21.6452 95.2446 10.8083 90.9554 10.8083 90.9554C10.3469 88.8911 9.88557 86.8316 9.42412 84.7672Z" fill="#314E52"></path><path fill-rule="evenodd" clip-rule="evenodd" d="M23.3398 93.5642C23.3633 93.5689 23.3728 93.5687 23.3634 93.5593L23.3398 93.5642Z" fill="#314E52"></path><path fill-rule="evenodd" clip-rule="evenodd" d="M12.041 90.2265C12.041 90.2265 22.8826 94.5105 23.5043 94.5979L23.5334 94.5884C23.5091 94.5544 23.4606 94.3744 23.3926 94.0927L21.751 88.3273C18.5014 88.8762 15.2663 89.5027 12.041 90.2265Z" fill="#314E52"></path><path fill-rule="evenodd" clip-rule="evenodd" d="M93.8542 90.9554C93.8542 90.9554 83.0124 95.2397 82.3906 95.3272L97.7742 99.5821L97.3126 92.1214L101.709 86.2196L95.2337 84.7672C94.7771 86.8316 94.3157 88.8911 93.8542 90.9554Z" fill="#314E52"></path><path fill-rule="evenodd" clip-rule="evenodd" d="M81.2697 94.0927C81.2017 94.3744 81.1532 94.5544 81.1289 94.5884L81.158 94.5932C81.7748 94.5106 92.6165 90.2265 92.6165 90.2265C89.3961 89.5027 86.156 88.8762 82.9113 88.3273L81.2697 94.0927Z" fill="#314E52"></path><path fill-rule="evenodd" clip-rule="evenodd" d="M25.4044 75.4066C24.433 75.5426 23.826 76.4024 24.0445 77.8694C24.1125 78.326 24.1758 78.7826 24.2438 79.2343C25.3512 79.074 26.4536 78.9186 27.5562 78.7778C27.4979 78.3212 27.4399 77.8595 27.3816 77.4078C27.197 75.936 26.3808 75.2706 25.4044 75.4066Z" fill="#314E52"></path><path fill-rule="evenodd" clip-rule="evenodd" d="M50.0887 73.5513C48.9715 73.5659 47.8834 74.7168 47.9417 76.99C48 79.2779 49.0978 80.3805 50.1664 80.3659C51.2399 80.3514 52.3133 79.2245 52.3182 76.9367C52.3182 74.6683 51.2059 73.5367 50.0887 73.5513Z" fill="#314E52"></path><path fill-rule="evenodd" clip-rule="evenodd" d="M17.0555 65.3234C15.5157 65.4497 14.005 67.1936 14.0099 67.2033C13.9904 67.2228 16.7203 68.8255 18.3087 68.5923C19.8728 68.3786 20.4071 66.5621 20.4216 66.5719C20.4071 66.5816 18.5807 65.2068 17.0555 65.3234Z" fill="#314E52"></path><path fill-rule="evenodd" clip-rule="evenodd" d="M21.9983 64.1146C21.9643 62.6282 20.648 60.457 20.6675 60.4473C20.6772 60.4521 18.909 61.9677 18.8119 63.4686C18.7002 64.9792 20.4148 66.5822 20.4196 66.5676C20.4342 66.5822 22.0129 65.6155 21.9983 64.1146Z" fill="#314E52"></path><path fill-rule="evenodd" clip-rule="evenodd" d="M9.25793 61.7739C9.2385 61.7933 11.633 63.7219 13.2117 63.7024C14.7612 63.7024 15.5918 62.012 15.6015 62.0218C15.5869 62.0266 14.0424 60.4479 12.5366 60.3556C11.0162 60.273 9.25793 61.7739 9.25793 61.7739Z" fill="#314E52"></path><path fill-rule="evenodd" clip-rule="evenodd" d="M17.5549 59.8495C17.7735 58.402 16.8507 56.1093 16.8701 56.1045C16.8798 56.1093 14.9076 57.3482 14.5579 58.7908C14.2033 60.248 15.5924 62.0307 15.6021 62.0161C15.6167 62.0355 17.3121 61.3067 17.5549 59.8495Z" fill="#314E52"></path><path fill-rule="evenodd" clip-rule="evenodd" d="M8.92831 54.9107C7.44681 54.6144 5.48451 55.8286 5.48451 55.8384C5.46508 55.8529 7.50996 58.063 9.0546 58.267C10.575 58.4759 11.658 56.9457 11.6677 56.9555C11.6531 56.9555 10.3952 55.207 8.92831 54.9107Z" fill="#314E52"></path><path fill-rule="evenodd" clip-rule="evenodd" d="M11.1586 53.661C10.5806 55.0357 11.6589 56.9592 11.6638 56.9495C11.6735 56.9592 13.4514 56.4833 13.9226 55.0989C14.3743 53.7243 13.8302 51.3586 13.8496 51.3586C13.8594 51.3684 11.7269 52.301 11.1586 53.661Z" fill="#314E52"></path><path fill-rule="evenodd" clip-rule="evenodd" d="M6.22285 49.0796C4.80449 48.5793 2.68181 49.4925 2.68181 49.5023C2.66238 49.512 4.34308 51.965 5.82943 52.373C7.29635 52.7907 8.59805 51.4451 8.60291 51.4597C8.59319 51.4597 7.62177 49.5799 6.22285 49.0796Z" fill="#314E52"></path><path fill-rule="evenodd" clip-rule="evenodd" d="M8.60685 48.1769C7.82481 49.4398 8.59239 51.4702 8.6021 51.4653C8.60696 51.4799 10.4335 51.2613 11.1135 49.9741C11.7692 48.6918 11.5942 46.3068 11.6136 46.3068C11.6136 46.3068 9.37431 46.9237 8.60685 48.1769Z" fill="#314E52"></path><path fill-rule="evenodd" clip-rule="evenodd" d="M4.41599 42.9851C3.08993 42.2905 0.855684 42.888 0.855684 42.8977C0.836255 42.9074 2.13307 45.5546 3.5417 46.1618C4.92605 46.7836 6.41716 45.647 6.41716 45.6615C6.40745 45.6567 5.72748 43.6749 4.41599 42.9851Z" fill="#314E52"></path><path fill-rule="evenodd" clip-rule="evenodd" d="M9.1178 44.5537C9.96298 43.388 10.1378 41.0176 10.1572 41.0225C10.1572 41.0225 7.84983 41.3138 6.91236 42.4359C5.95546 43.5628 6.40743 45.6709 6.422 45.6612C6.422 45.6709 8.25805 45.7146 9.1178 44.5537Z" fill="#314E52"></path><path fill-rule="evenodd" clip-rule="evenodd" d="M2.19092 39.7308C3.47327 40.5371 5.10541 39.6336 5.11026 39.6482C5.09569 39.6433 4.71206 37.5936 3.51229 36.7241C2.29795 35.8546 0.00516477 36.117 0.000307408 36.1267C-0.019122 36.1316 0.884293 38.9293 2.19092 39.7308Z" fill="#314E52"></path><path fill-rule="evenodd" clip-rule="evenodd" d="M7.94162 38.9423C8.94223 37.9174 9.45227 35.6053 9.4717 35.6101C9.4717 35.6198 7.14986 35.5713 6.05696 36.5379C4.94948 37.5142 5.09516 39.6514 5.10973 39.6466C5.10973 39.6563 6.91671 39.9672 7.94162 38.9423Z" fill="#314E52"></path><path fill-rule="evenodd" clip-rule="evenodd" d="M1.77896 33.1926C2.93016 34.1738 4.67873 33.5132 4.67873 33.5278C4.66902 33.5229 4.58152 31.4391 3.51776 30.4094C2.43942 29.3699 0.13207 29.3018 0.13207 29.3116C0.102926 29.3164 0.598621 32.2115 1.77896 33.1926Z" fill="#314E52"></path><path fill-rule="evenodd" clip-rule="evenodd" d="M7.57709 33.2414C8.71371 32.3719 9.5539 30.1618 9.56847 30.1667C9.56847 30.1764 7.27599 29.7879 6.05679 30.5942C4.82302 31.4005 4.66256 33.5328 4.67227 33.5328C4.67713 33.5425 6.42103 34.106 7.57709 33.2414Z" fill="#314E52"></path><path fill-rule="evenodd" clip-rule="evenodd" d="M5.12091 27.4132C5.10634 27.4083 5.31997 25.3294 4.4165 24.1491C3.49846 22.9639 1.22512 22.5606 1.22026 22.5704C1.19597 22.5704 1.27391 25.5188 2.29882 26.6603C3.29458 27.8018 5.12091 27.4035 5.12091 27.4132Z" fill="#314E52"></path><path fill-rule="evenodd" clip-rule="evenodd" d="M8.03489 27.5426C9.28323 26.848 10.4296 24.769 10.449 24.7788C10.449 24.7885 8.23395 24.0743 6.91275 24.696C5.57697 25.3226 5.11076 27.4163 5.12533 27.4114C5.12047 27.426 6.76711 28.2372 8.03489 27.5426Z" fill="#314E52"></path><path fill-rule="evenodd" clip-rule="evenodd" d="M6.4417 21.4038C6.42713 21.3989 6.94209 19.3588 6.2232 18.0522C5.48974 16.7407 3.29419 16.0121 3.28933 16.0218C3.26505 16.0218 2.90564 18.9703 3.75568 20.2526C4.57657 21.5252 6.44655 21.3892 6.4417 21.4038Z" fill="#314E52"></path><path fill-rule="evenodd" clip-rule="evenodd" d="M9.30159 21.9519C10.6374 21.4419 12.0801 19.5378 12.0946 19.5427C12.0946 19.5524 10.006 18.5226 8.60221 18.9549C7.18386 19.3872 6.41648 21.403 6.43591 21.403C6.43591 21.4176 7.94638 22.4571 9.30159 21.9519Z" fill="#314E52"></path><path fill-rule="evenodd" clip-rule="evenodd" d="M8.6317 15.6034C8.62199 15.5937 9.43801 13.6312 8.92313 12.2275C8.39854 10.8091 6.33418 9.76965 6.32932 9.77936C6.30503 9.77451 5.49403 12.6695 6.14491 14.0733C6.77151 15.4576 8.64142 15.5937 8.6317 15.6034Z" fill="#314E52"></path><path fill-rule="evenodd" clip-rule="evenodd" d="M11.3908 16.5604C12.7946 16.2399 14.5191 14.5447 14.5337 14.5544C14.5337 14.5641 12.615 13.2381 11.1578 13.4712C9.68597 13.6995 8.62229 15.6036 8.63687 15.6036C8.62715 15.6182 9.97243 16.8713 11.3908 16.5604Z" fill="#314E52"></path><path fill-rule="evenodd" clip-rule="evenodd" d="M11.706 10.116C11.6963 10.1063 12.8184 8.26052 12.5367 6.77416C12.2404 5.2781 10.3605 3.94706 10.3508 3.95192C10.3265 3.94706 9.05394 6.73521 9.47653 8.22642C9.87969 9.71278 11.7157 10.1063 11.706 10.116Z" fill="#314E52"></path><path fill-rule="evenodd" clip-rule="evenodd" d="M14.2951 11.4706C15.7377 11.3443 17.7243 9.88713 17.7389 9.9017C17.734 9.91142 16.0437 8.30853 14.5524 8.33767C13.0467 8.36196 11.6867 10.1155 11.7013 10.1155C11.7013 10.13 12.8379 11.5775 14.2951 11.4706Z" fill="#314E52"></path><path fill-rule="evenodd" clip-rule="evenodd" d="M17.6172 5.36914C18.7149 4.13051 20.5219 0.424314 20.5899 0.424314C20.5899 0.370883 16.4998 1.67742 15.2321 3.09091C13.9254 4.45097 14.2849 6.64178 14.2946 6.62721C14.3043 6.61264 16.4465 6.58348 17.6172 5.36914Z" fill="#314E52"></path><path fill-rule="evenodd" clip-rule="evenodd" d="M86.3493 68.5923C87.9376 68.8255 90.6675 67.2228 90.6481 67.2033C90.6529 67.1936 89.1422 65.4497 87.6024 65.3234C86.0772 65.2068 84.2509 66.5816 84.2363 66.5719C84.2509 66.5621 84.7852 68.3786 86.3493 68.5923Z" fill="#314E52"></path><path fill-rule="evenodd" clip-rule="evenodd" d="M84.2421 66.5722C84.2518 66.5868 85.9615 64.9839 85.8546 63.4732C85.7575 61.9723 83.9893 60.4519 83.999 60.4519C84.0233 60.4568 82.7021 62.6329 82.6681 64.1192C82.6487 65.6153 84.2275 66.5819 84.2421 66.5722Z" fill="#314E52"></path><path fill-rule="evenodd" clip-rule="evenodd" d="M95.3986 61.774C95.4034 61.7643 93.6402 60.2733 92.1199 60.3608C90.6141 60.453 89.0693 62.0315 89.0547 62.0266C89.0644 62.0169 89.8902 63.7073 91.4445 63.7073C93.0232 63.7219 95.418 61.7935 95.3986 61.774Z" fill="#314E52"></path><path fill-rule="evenodd" clip-rule="evenodd" d="M90.0987 58.7953C89.7539 57.3526 87.7866 56.1093 87.7866 56.1093C87.8109 56.1141 86.8831 58.4068 87.1017 59.8543C87.3446 61.3066 89.0398 62.0399 89.0495 62.0253C89.0641 62.035 90.4582 60.2525 90.0987 58.7953Z" fill="#314E52"></path><path fill-rule="evenodd" clip-rule="evenodd" d="M99.1726 55.8371C99.1774 55.8274 97.2103 54.618 95.7288 54.9094C94.2619 55.2057 93.0087 56.9542 92.9941 56.9542C92.999 56.9396 94.082 58.4747 95.6072 58.2658C97.1519 58.0618 99.1969 55.8517 99.1726 55.8371Z" fill="#314E52"></path><path fill-rule="evenodd" clip-rule="evenodd" d="M93.4994 53.661C92.936 52.301 90.8033 51.3684 90.8033 51.3586C90.8227 51.3635 90.2789 53.7243 90.7307 55.0989C91.2018 56.4833 92.9795 56.9592 92.9892 56.9495C93.0038 56.964 94.0823 55.0357 93.4994 53.661Z" fill="#314E52"></path><path fill-rule="evenodd" clip-rule="evenodd" d="M98.8282 52.3776C100.319 51.9696 101.995 49.5166 101.976 49.5069C101.976 49.4972 99.853 48.5841 98.4395 49.0844C97.0406 49.5847 96.0693 51.4645 96.0547 51.4645C96.0595 51.4499 97.3661 52.7953 98.8282 52.3776Z" fill="#314E52"></path><path fill-rule="evenodd" clip-rule="evenodd" d="M93.5479 49.9693C94.228 51.2565 96.0497 51.4751 96.0546 51.4606C96.0692 51.4703 96.8318 49.435 96.0546 48.1721C95.2871 46.9189 93.0429 46.307 93.0478 46.2972C93.0624 46.3021 92.8873 48.687 93.5479 49.9693Z" fill="#314E52"></path><path fill-rule="evenodd" clip-rule="evenodd" d="M101.122 46.162C102.53 45.55 103.827 42.9027 103.808 42.8979C103.808 42.8881 101.573 42.2956 100.247 42.9853C98.9358 43.6751 98.2607 45.6568 98.2461 45.6617C98.2461 45.6471 99.7323 46.7837 101.122 46.162Z" fill="#314E52"></path><path fill-rule="evenodd" clip-rule="evenodd" d="M97.7546 42.4359C96.8123 41.3138 94.5049 41.0322 94.5098 41.0225C94.5292 41.0176 94.7041 43.388 95.5445 44.5537C96.4042 45.7195 98.2404 45.6709 98.2453 45.6612C98.255 45.666 98.7067 43.5628 97.7546 42.4359Z" fill="#314E52"></path><path fill-rule="evenodd" clip-rule="evenodd" d="M101.151 36.7241C99.9509 37.5936 99.5673 39.6433 99.5527 39.6482C99.5527 39.6336 101.19 40.5371 102.467 39.7308C103.774 38.9244 104.677 36.1316 104.658 36.1267C104.658 36.117 102.36 35.8546 101.151 36.7241Z" fill="#314E52"></path><path fill-rule="evenodd" clip-rule="evenodd" d="M98.6003 36.5379C97.5122 35.5664 95.1855 35.6198 95.1855 35.6101C95.205 35.6053 95.7199 37.9174 96.7156 38.9423C97.7357 39.9672 99.5427 39.6611 99.5475 39.6466C99.5669 39.6514 99.7078 37.5142 98.6003 36.5379Z" fill="#314E52"></path><path fill-rule="evenodd" clip-rule="evenodd" d="M99.9844 33.5324C99.9844 33.5178 101.733 34.1784 102.884 33.1973C104.06 32.2161 104.56 29.3212 104.536 29.3163C104.536 29.3066 102.224 29.3745 101.15 30.414C100.086 31.4438 99.9989 33.5276 99.9844 33.5324Z" fill="#314E52"></path><path fill-rule="evenodd" clip-rule="evenodd" d="M98.5999 30.5942C97.3807 29.7879 95.0879 30.1764 95.0879 30.1667C95.1073 30.1618 95.943 32.3768 97.0796 33.2414C98.2356 34.106 99.9792 33.5425 99.9841 33.5328C99.9987 33.5328 99.8385 31.4054 98.5999 30.5942Z" fill="#314E52"></path><path fill-rule="evenodd" clip-rule="evenodd" d="M100.246 24.1537C99.3426 25.334 99.5514 27.4131 99.5417 27.418C99.5368 27.4034 101.363 27.8066 102.364 26.6651C103.389 25.5285 103.467 22.5751 103.442 22.5751C103.437 22.5654 101.159 22.9685 100.246 24.1537Z" fill="#314E52"></path><path fill-rule="evenodd" clip-rule="evenodd" d="M97.7539 24.696C96.4327 24.0743 94.2129 24.7885 94.2129 24.7788C94.2323 24.769 95.3787 26.848 96.627 27.5426C97.8948 28.2372 99.5413 27.426 99.5413 27.4114C99.5559 27.4163 99.0897 25.3226 97.7539 24.696Z" fill="#314E52"></path><path fill-rule="evenodd" clip-rule="evenodd" d="M98.2202 21.4037C98.2153 21.3891 100.081 21.53 100.901 20.2525C101.751 18.9702 101.392 16.0218 101.368 16.0218C101.368 16.0218 99.1674 16.7406 98.4339 18.0521C97.7199 19.3588 98.2299 21.394 98.2202 21.4037Z" fill="#314E52"></path><path fill-rule="evenodd" clip-rule="evenodd" d="M96.0552 18.9549C94.6514 18.5226 92.5625 19.5524 92.5625 19.5427C92.5771 19.533 94.02 21.4371 95.3606 21.9519C96.7158 22.4571 98.2311 21.4127 98.2263 21.403C98.236 21.403 97.4687 19.3921 96.0552 18.9549Z" fill="#314E52"></path><path fill-rule="evenodd" clip-rule="evenodd" d="M98.5117 14.0685C99.1625 12.6647 98.3512 9.76975 98.327 9.7746C98.3221 9.76489 96.2578 10.8044 95.7284 12.2227C95.2184 13.6313 96.0343 15.5938 96.0246 15.5986C96.0197 15.5889 97.8899 15.4577 98.5117 14.0685Z" fill="#314E52"></path><path fill-rule="evenodd" clip-rule="evenodd" d="M93.5001 13.4712C92.0429 13.2381 90.1289 14.5641 90.1289 14.5544C90.1435 14.5447 91.8678 16.2399 93.2667 16.5604C94.6851 16.8713 96.0306 15.6133 96.0257 15.5987C96.0403 15.6036 94.9767 13.6995 93.5001 13.4712Z" fill="#314E52"></path><path fill-rule="evenodd" clip-rule="evenodd" d="M95.1845 8.23119C95.612 6.73513 94.3345 3.94698 94.3102 3.95669C94.3102 3.95669 92.4159 5.28272 92.1196 6.77879C91.8379 8.26514 92.9597 10.111 92.95 10.1207C92.9452 10.1062 94.7814 9.71269 95.1845 8.23119Z" fill="#314E52"></path><path fill-rule="evenodd" clip-rule="evenodd" d="M90.1044 8.33767C88.6181 8.30853 86.9228 9.91142 86.918 9.9017C86.9325 9.88713 88.9242 11.3443 90.3668 11.4706C91.824 11.5775 92.9607 10.1301 92.9559 10.1203C92.9704 10.1155 91.6102 8.36196 90.1044 8.33767Z" fill="#314E52"></path><path fill-rule="evenodd" clip-rule="evenodd" d="M90.3675 6.62245C90.3772 6.63702 90.7318 4.44636 89.4301 3.0863C88.1574 1.67281 84.0723 0.366122 84.0723 0.419553C84.1403 0.42441 85.9472 4.1306 87.045 5.36438C88.2156 6.58357 90.3529 6.61273 90.3675 6.62245Z" fill="#314E52"></path><path fill-rule="evenodd" clip-rule="evenodd" d="M50.1864 81.8203C48.0346 81.8446 46.3251 79.8482 46.228 77.0406C46.126 74.2379 47.792 72.1299 50.075 72.1056C52.3579 72.0764 54.0677 74.1456 54.0337 76.9532C53.9997 79.7559 52.3382 81.796 50.1864 81.8203ZM39.2914 82.1604C38.9611 82.1847 38.6309 82.209 38.3006 82.2333C37.5235 80.1835 36.7317 78.1385 35.9108 76.0984C35.4494 78.2454 35.0073 80.3972 34.5847 82.549C34.2544 82.583 33.9242 82.612 33.5939 82.646C32.263 79.6101 30.8835 76.5841 29.4555 73.5725C30.0383 73.5045 30.6212 73.4415 31.204 73.3783C32.0832 75.3941 32.9381 77.4147 33.7735 79.4403C34.201 77.2884 34.6479 75.1415 35.1142 72.9994C35.4688 72.9703 35.8186 72.9411 36.1732 72.912C36.9941 74.9472 37.7953 76.9921 38.5725 79.0371C39.0534 76.8998 39.5586 74.7627 40.0881 72.6303C40.6709 72.5915 41.2588 72.5621 41.8417 72.5281C40.9382 75.7291 40.0881 78.9448 39.2914 82.1604ZM28.1341 83.2143C28.0029 82.2137 27.8766 81.2084 27.7454 80.2078C26.6477 80.3487 25.5499 80.4992 24.457 80.6644C24.6076 81.665 24.7533 82.6608 24.899 83.6614C24.355 83.744 23.8112 83.8264 23.272 83.9089C22.9708 81.9951 22.6744 80.0813 22.3781 78.1675C22.0041 75.8263 23.2816 74.2233 25.21 73.9562C27.1432 73.689 28.8044 74.8889 29.0813 77.2399C29.3145 79.1634 29.5428 81.0868 29.7759 83.0103C29.2222 83.0735 28.6781 83.1415 28.1341 83.2143ZM17.074 84.9777C16.4862 81.8981 15.9034 78.8137 15.3156 75.7341C15.8839 75.6272 16.4523 75.5203 17.0206 75.4183C17.4966 78.0316 17.9678 80.6497 18.4389 83.2629C19.5513 83.0589 20.6683 82.8696 21.7855 82.6899C21.8632 83.161 21.9411 83.637 22.0188 84.1082C20.3722 84.3705 18.7206 84.6668 17.074 84.9777ZM55.9184 72.2758C57.7302 72.3098 59.5418 72.3631 61.3536 72.4456C61.3341 72.9265 61.31 73.4026 61.2857 73.8835C60.0568 73.8252 58.8327 73.7813 57.6038 73.7522C57.5844 74.4468 57.5697 75.1462 57.5454 75.8408C58.6577 75.87 59.7654 75.909 60.8777 75.9576C60.8534 76.4385 60.8389 76.9143 60.8146 77.3952C59.712 77.3466 58.6092 77.3078 57.5066 77.2787C57.4677 78.7602 57.4289 80.2417 57.3901 81.7183C56.846 81.7038 56.2922 81.6892 55.7482 81.6795C55.8065 78.5465 55.8601 75.4088 55.9184 72.2758ZM62.942 72.5233C64.7538 72.6205 66.5608 72.742 68.3677 72.8877C68.3289 73.3637 68.2901 73.8396 68.2512 74.3205C67.0272 74.2234 65.803 74.1359 64.5741 74.0581C64.5304 74.7527 64.4915 75.4474 64.4478 76.142C65.5602 76.21 66.6677 76.2878 67.7704 76.3801C67.7364 76.8561 67.6974 77.332 67.6586 77.8129C66.5608 77.7255 65.4582 77.6479 64.3556 77.5799C64.2633 79.0565 64.171 80.5379 64.0787 82.0145C63.5298 81.9805 62.9857 81.9514 62.4369 81.9223C62.6069 78.7893 62.772 75.6563 62.942 72.5233ZM68.9942 81.1939C69.4411 81.2327 69.8833 81.2714 70.3253 81.3151C70.5488 78.9787 70.7673 76.6424 70.9859 74.306C70.5244 74.2623 70.0678 74.2186 69.6064 74.1797C69.6404 73.7862 69.6791 73.3929 69.7131 72.9994C71.2189 73.1306 72.7248 73.2811 74.2257 73.4462C74.182 73.8397 74.1384 74.2331 74.0947 74.6217C73.6332 74.5683 73.1667 74.5197 72.7004 74.4711C72.4575 76.8027 72.2195 79.1391 71.9767 81.4755C72.4236 81.5192 72.8703 81.5726 73.3221 81.6163C73.2783 82.0098 73.2347 82.4031 73.191 82.7966C71.7581 82.6363 70.3251 82.4954 68.8922 82.3691C68.9213 81.9805 68.9602 81.5873 68.9942 81.1939ZM74.8231 78.26C75.1242 75.5982 77.004 73.6067 79.4812 73.9467C80.8364 74.1361 81.8081 74.8645 82.255 76.0059C81.9004 76.2488 81.5507 76.4871 81.2058 76.7299C80.8075 76.0256 80.2684 75.5349 79.4329 75.4183C78.102 75.2338 76.7952 76.3219 76.5281 78.464C76.2658 80.6061 77.2227 81.9611 78.5002 82.1408C79.3065 82.2525 79.9428 81.932 80.5112 81.3928C80.7686 81.7182 81.0258 82.0486 81.2784 82.3789C80.4964 83.3309 79.4426 83.7535 78.1554 83.5787C75.819 83.2532 74.5219 80.9267 74.8231 78.26ZM84.0569 74.7869C85.8202 75.0734 87.5834 75.3794 89.3418 75.7145C89.2544 76.1857 89.167 76.6569 89.0747 77.1281C87.8944 76.9046 86.7091 76.691 85.5239 76.4919C85.4073 77.1768 85.2906 77.8617 85.174 78.5514C86.2087 78.7312 87.2435 78.9157 88.2781 79.11C88.1906 79.5811 88.1032 80.0524 88.011 80.5236C86.9861 80.3341 85.961 80.1494 84.9312 79.9745C84.7612 80.9605 84.5961 81.9465 84.426 82.9374C85.621 83.1414 86.8111 83.3551 88.0012 83.5834C87.9137 84.0546 87.8215 84.5258 87.7341 84.997C86.0097 84.6667 84.2851 84.3656 82.5559 84.0839C83.0562 80.98 83.5566 77.8859 84.0569 74.7869ZM21.3728 18.626C21.3728 18.626 21.4019 18.6407 21.465 18.6649C21.5281 18.6941 21.6203 18.7281 21.7369 18.7669C21.97 18.8446 22.3003 18.9418 22.7229 19.0438C23.5632 19.2381 24.763 19.4469 26.2153 19.5781C27.6677 19.7044 29.3776 19.7772 31.2331 19.6218C32.1609 19.5441 33.1274 19.4129 34.1183 19.1749C34.6187 19.0534 35.0947 18.9175 35.6241 18.7183C35.9107 18.6114 36.1098 18.5241 36.3333 18.4318L36.9941 18.15C38.6699 17.4505 40.3892 16.9016 42.0116 16.5567C43.6339 16.2022 45.164 16.0468 46.4512 16.0225C47.7093 15.9982 48.7342 16.105 49.4239 16.2216V68.8755C35.6678 69.0796 21.9312 70.6921 8.42773 73.7133C9.11748 76.8123 9.81228 79.9164 10.5069 83.0154C10.9683 85.0798 11.4296 87.1441 11.8911 89.2036C15.1115 88.4847 18.3513 87.8533 21.596 87.3044C21.7272 87.2801 21.8583 87.2607 21.9895 87.2413C45.5525 83.3262 69.6839 83.9819 93.0527 89.2036C94.2088 84.0402 95.3649 78.8767 96.5161 73.7133C82.7212 70.6289 68.6833 69.0163 54.6358 68.8658V16.2216C55.3256 16.105 56.3456 15.9982 57.6086 16.0225C58.8958 16.0419 60.421 16.2022 62.0482 16.5567C63.6706 16.9016 65.395 17.4505 67.0659 18.15L67.7265 18.4318C67.9451 18.5241 68.1491 18.6114 68.4356 18.7183C68.9651 18.9175 69.446 19.0534 69.9414 19.1749C70.9323 19.4129 71.894 19.5489 72.8267 19.6218C74.6822 19.7772 76.3921 19.7092 77.8444 19.5781C79.2968 19.4469 80.4965 19.243 81.3368 19.0438C81.7546 18.9467 82.0897 18.8446 82.3229 18.7669C82.4395 18.7281 82.527 18.6941 82.595 18.6649C82.6582 18.6407 82.6872 18.626 82.6872 18.626C82.969 18.5142 83.1002 18.1937 82.9885 17.9168C82.8816 17.6594 82.6048 17.5234 82.3425 17.5914L82.2938 17.606C82.2938 17.606 82.2694 17.6108 82.2256 17.6254C82.1819 17.6399 82.109 17.6546 82.0119 17.674C81.8176 17.7129 81.5165 17.7662 81.1231 17.8099C80.3313 17.8974 79.1754 17.9605 77.791 17.9168C76.4116 17.8779 74.794 17.7469 73.1376 17.4069C72.307 17.2369 71.4715 17.0134 70.6749 16.7171C70.2863 16.5714 69.8734 16.3965 69.5382 16.2216C69.3876 16.1487 69.1691 16.0224 68.9651 15.9058L68.3627 15.5465C66.6529 14.5556 64.8365 13.7056 63.0538 13.0741C61.2712 12.4378 59.5273 12.0152 57.9827 11.7917C56.6858 11.5974 55.5393 11.5391 54.6358 11.5488V10.3587H55.3791C56.132 10.3587 56.744 9.74684 56.744 8.99394V8.76077C56.744 8.00302 56.132 7.39582 55.3791 7.39582H54.6358V5.73455C54.6358 4.40849 53.5626 3.33997 52.2365 3.33997H51.8283C50.5022 3.33997 49.4289 4.41335 49.4289 5.73455V7.39582H48.6904C47.9375 7.39582 47.3207 8.00788 47.3207 8.76077V8.99394C47.3207 9.74684 47.9327 10.3587 48.6904 10.3587H49.4289V11.5488C48.5255 11.5439 47.379 11.5974 46.0821 11.7917C44.5423 12.0152 42.7935 12.4378 41.0157 13.0741C39.2331 13.7056 37.4166 14.5556 35.7068 15.5465L35.0997 15.9058C34.8956 16.0224 34.6769 16.1487 34.5263 16.2216C34.1911 16.4013 33.7834 16.5763 33.3899 16.7171C32.5933 17.0134 31.7577 17.2369 30.9271 17.4069C29.2659 17.7469 27.6581 17.8779 26.2737 17.9168C24.8894 17.9605 23.7335 17.8925 22.9417 17.8099C22.5434 17.7662 22.242 17.7129 22.0526 17.674C21.9555 17.6546 21.8826 17.6351 21.8389 17.6254C21.7903 17.6108 21.7662 17.606 21.7662 17.606L21.7223 17.5914C21.46 17.5234 21.1832 17.6594 21.0763 17.9168C20.9549 18.1937 21.0911 18.5094 21.3728 18.626Z" fill="#314E52"></path><path fill-rule="evenodd" clip-rule="evenodd" d="M37.461 37.9619H29.2425V26.4353L37.461 37.9619ZM28.7809 26.4353V37.9619H20.5622L28.7809 26.4353ZM19.9843 37.9862H19.0273V40.1136H20.3194L21.5192 43.9995C21.7718 44.8204 22.4616 45.3693 23.234 45.3693H34.8671C35.6395 45.3693 36.3293 44.8204 36.5819 43.9995L37.7817 40.1136H39.0542V37.9862H38.0438L29.2425 25.6435V24.3466C29.8643 24.2398 30.3353 23.6957 30.3353 23.0448C30.3353 22.3939 29.8643 21.8549 29.2425 21.7432V19.6932H28.786V21.7432C28.1642 21.85 27.6929 22.3891 27.6929 23.0448C27.6929 23.6957 28.1691 24.2349 28.786 24.3466V25.6435L19.9843 37.9862Z" fill="#314E52"></path><path fill-rule="evenodd" clip-rule="evenodd" d="M84.0477 37.9619H75.8293V26.4353L84.0477 37.9619ZM75.3677 26.4353V37.9619H67.1489L75.3677 26.4353ZM66.5661 37.9862H65.6094V40.1136H66.9014L68.0962 43.9995C68.3487 44.8204 69.0386 45.3693 69.8109 45.3693H81.4444C82.2168 45.3693 82.9063 44.8204 83.1589 43.9995L84.354 40.1136H85.6264V37.9862H84.6161L75.8145 25.6435V24.3466C76.4362 24.2398 76.9076 23.6957 76.9076 23.0448C76.9076 22.3939 76.4314 21.8549 75.8145 21.7432V19.6932H75.3579V21.7432C74.7362 21.85 74.2651 22.3891 74.2651 23.0448C74.2651 23.6957 74.7362 24.2349 75.3579 24.3466V25.6435L66.5661 37.9862Z" fill="#314E52"></path></svg>