<svg xmlns="http://www.w3.org/2000/svg" width="120" height="100" viewBox="0 0 120 100" fill="none"><path fill-rule="evenodd" clip-rule="evenodd" d="M18.7377 76.0894C20.3083 75.873 20.8467 74.0471 20.8578 74.0527C20.8412 74.0582 19.0097 72.6818 17.478 72.7984C15.9297 72.926 14.4145 74.6797 14.4201 74.6908C14.3979 74.7075 17.1395 76.328 18.7377 76.0894Z" fill="#314E52"></path><path fill-rule="evenodd" clip-rule="evenodd" d="M22.4454 71.5907C22.4121 70.0979 21.0859 67.9113 21.1081 67.9058C21.1192 67.9113 19.3433 69.4376 19.2434 70.9471C19.1324 72.4677 20.8529 74.0714 20.8585 74.0603C20.8696 74.0659 22.4565 73.0947 22.4454 71.5907Z" fill="#314E52"></path><path fill-rule="evenodd" clip-rule="evenodd" d="M9.64859 69.2355C9.62639 69.2522 12.0349 71.1889 13.6221 71.1778C15.1816 71.1778 16.0139 69.4796 16.025 69.4852C16.0084 69.4907 14.4601 67.9034 12.945 67.8146C11.4133 67.7258 9.64304 69.2244 9.64859 69.2355Z" fill="#314E52"></path><path fill-rule="evenodd" clip-rule="evenodd" d="M17.9773 67.3001C18.1992 65.8461 17.2725 63.543 17.2947 63.543C17.2947 63.543 15.319 64.7916 14.9694 66.2456C14.6087 67.7107 16.0129 69.5032 16.0184 69.4865C16.0295 69.4976 17.7331 68.7652 17.9773 67.3001Z" fill="#314E52"></path><path fill-rule="evenodd" clip-rule="evenodd" d="M12.0619 64.3917C12.0452 64.3917 10.7855 62.638 9.31484 62.3383C7.82754 62.0387 5.85174 63.2597 5.85174 63.2708C5.82954 63.2819 7.88309 65.5071 9.44253 65.7069C10.9687 65.9178 12.0563 64.375 12.0619 64.3917Z" fill="#314E52"></path><path fill-rule="evenodd" clip-rule="evenodd" d="M14.3313 62.5336C14.7809 61.1517 14.237 58.7765 14.2592 58.7765C14.2592 58.7765 12.1227 59.7199 11.5511 61.0906C10.9684 62.4669 12.0505 64.4038 12.0616 64.3983C12.0727 64.4038 13.8596 63.9265 14.3313 62.5336Z" fill="#314E52"></path><path fill-rule="evenodd" clip-rule="evenodd" d="M6.58863 56.4785C5.16238 55.979 3.03137 56.8945 3.03137 56.9056C3.01472 56.9167 4.6963 59.3808 6.1947 59.7915C7.66535 60.2133 8.97514 58.8591 8.98069 58.8702C8.96959 58.8757 7.99824 56.9835 6.58863 56.4785Z" fill="#314E52"></path><path fill-rule="evenodd" clip-rule="evenodd" d="M11.5064 57.3778C12.1668 56.0903 11.9889 53.6929 12.0111 53.6929C12.0111 53.6929 9.75825 54.3201 8.9924 55.5799C8.2099 56.8452 8.97554 58.8873 8.98664 58.8818C8.98664 58.8818 10.8238 58.6653 11.5064 57.3778Z" fill="#314E52"></path><path fill-rule="evenodd" clip-rule="evenodd" d="M3.89813 53.5468C5.28554 54.1684 6.78392 53.0251 6.78946 53.0418C6.77837 53.0362 6.0959 51.044 4.77509 50.3503C3.44318 49.6566 1.19547 50.2615 1.19547 50.2615C1.17882 50.2726 2.48298 52.9308 3.89813 53.5468Z" fill="#314E52"></path><path fill-rule="evenodd" clip-rule="evenodd" d="M9.50313 51.9278C10.3467 50.7624 10.5242 48.3817 10.5464 48.3817C10.5464 48.3928 8.23213 48.6757 7.28314 49.8023C6.32306 50.9344 6.77819 53.0488 6.78929 53.0432C6.78929 53.0543 8.63739 53.0988 9.50313 51.9278Z" fill="#314E52"></path><path fill-rule="evenodd" clip-rule="evenodd" d="M3.87016 44.0647C2.64925 43.1879 0.3461 43.4597 0.3461 43.4597C0.323902 43.4653 1.23402 46.279 2.54373 47.0837C3.83124 47.894 5.47401 46.9838 5.47401 47.0004C5.45737 47.0004 5.07443 44.936 3.87016 44.0647Z" fill="#314E52"></path><path fill-rule="evenodd" clip-rule="evenodd" d="M8.31591 46.295C9.32039 45.2683 9.83638 42.9432 9.85303 42.9487C9.85858 42.9598 7.5223 42.9042 6.42347 43.8809C5.31355 44.8632 5.45785 47.0108 5.46895 47.0053C5.46895 47.0053 7.29478 47.3217 8.31591 46.295Z" fill="#314E52"></path><path fill-rule="evenodd" clip-rule="evenodd" d="M0.461644 36.6162C0.439446 36.6218 0.938974 39.5298 2.12104 40.5176C3.27537 41.5055 5.03473 40.8453 5.03473 40.8564C5.01808 40.8508 4.93485 38.7586 3.86377 37.7208C2.78714 36.6775 0.461644 36.6162 0.461644 36.6162Z" fill="#314E52"></path><path fill-rule="evenodd" clip-rule="evenodd" d="M6.42307 37.9031C5.18551 38.7133 5.02457 40.8607 5.03567 40.8496C5.03567 40.8663 6.78935 41.4268 7.95477 40.561C9.098 39.6897 9.93578 37.4646 9.95798 37.4702C9.95798 37.4868 7.64954 37.0984 6.42307 37.9031Z" fill="#314E52"></path><path fill-rule="evenodd" clip-rule="evenodd" d="M4.77503 31.4257C3.85379 30.2325 1.56157 29.8388 1.56157 29.8388C1.53937 29.8388 1.61711 32.8021 2.64379 33.9509C3.64827 35.0941 5.48512 34.6945 5.47957 34.7056C5.46847 34.7 5.68517 32.6133 4.77503 31.4257Z" fill="#314E52"></path><path fill-rule="evenodd" clip-rule="evenodd" d="M7.27698 31.9825C5.93398 32.6096 5.46761 34.7127 5.47871 34.7072C5.47871 34.7183 7.13271 35.5343 8.40357 34.8406C9.65779 34.1414 10.8122 32.0545 10.8288 32.0601C10.8344 32.0712 8.60889 31.3554 7.27698 31.9825Z" fill="#314E52"></path><path fill-rule="evenodd" clip-rule="evenodd" d="M6.58879 25.2989C5.85069 23.9781 3.65301 23.2512 3.64191 23.2567C3.61416 23.2567 3.25924 26.2202 4.10833 27.5077C4.93522 28.7897 6.81079 28.6512 6.80524 28.6678C6.80524 28.6678 7.31024 26.6086 6.58879 25.2989Z" fill="#314E52"></path><path fill-rule="evenodd" clip-rule="evenodd" d="M9.6853 29.224C11.0283 28.7079 12.4767 26.7934 12.4933 26.8045C12.4933 26.8156 10.3954 25.7775 8.98584 26.2104C7.55958 26.6432 6.79371 28.6692 6.80481 28.6692C6.80481 28.6858 8.32564 29.729 9.6853 29.224Z" fill="#314E52"></path><path fill-rule="evenodd" clip-rule="evenodd" d="M9.30803 19.4448C8.78082 18.0185 6.69987 16.9864 6.69987 16.9864C6.67213 16.9808 5.86177 19.8946 6.51662 21.2986C7.14373 22.6971 9.01957 22.8301 9.01402 22.8412C9.00292 22.8301 9.82415 20.8599 9.30803 19.4448Z" fill="#314E52"></path><path fill-rule="evenodd" clip-rule="evenodd" d="M11.5507 20.6935C10.0745 20.9266 9.00307 22.8356 9.01972 22.8356C9.01417 22.8522 10.3629 24.1121 11.7891 23.8013C13.1987 23.4794 14.9304 21.7699 14.947 21.7866C14.9359 21.7921 13.0158 20.4604 11.5507 20.6935Z" fill="#314E52"></path><path fill-rule="evenodd" clip-rule="evenodd" d="M12.9391 13.969C12.6449 12.4706 10.747 11.1275 10.7414 11.1386C10.7192 11.1275 9.43716 13.9359 9.86448 15.4343C10.2641 16.9216 12.1122 17.3211 12.1011 17.3322C12.09 17.3155 13.2221 15.4618 12.9391 13.969Z" fill="#314E52"></path><path fill-rule="evenodd" clip-rule="evenodd" d="M14.9653 15.5397C13.4502 15.5619 12.0851 17.3266 12.1017 17.3322C12.0962 17.3433 13.2394 18.7974 14.7045 18.6864C16.1529 18.5643 18.1561 17.0991 18.1672 17.1157C18.1672 17.1157 16.4637 15.5119 14.9653 15.5397Z" fill="#314E52"></path><path fill-rule="evenodd" clip-rule="evenodd" d="M15.6478 10.2597C14.338 11.6249 14.6933 13.8282 14.7044 13.8115C14.7155 13.7949 16.8687 13.767 18.0452 12.546C19.1496 11.3029 20.9641 7.57916 21.0307 7.57361C21.0307 7.52921 16.9242 8.83897 15.6478 10.2597Z" fill="#314E52"></path><path fill-rule="evenodd" clip-rule="evenodd" d="M102.725 72.8039C101.194 72.6873 99.3568 74.0637 99.3457 74.0582C99.3568 74.0471 99.8952 75.8785 101.466 76.0949C103.064 76.3335 105.806 74.713 105.789 74.6963C105.789 74.6852 104.274 72.926 102.725 72.8039Z" fill="#314E52"></path><path fill-rule="evenodd" clip-rule="evenodd" d="M100.96 70.9413C100.86 69.4318 99.0841 67.9058 99.0952 67.9003C99.1174 67.9058 97.7912 70.0924 97.7579 71.5852C97.7413 73.0892 99.3282 74.0604 99.3449 74.0548C99.3504 74.0715 101.071 72.4619 100.96 70.9413Z" fill="#314E52"></path><path fill-rule="evenodd" clip-rule="evenodd" d="M106.583 71.18C108.17 71.1967 110.573 69.2545 110.556 69.2378C110.562 69.2267 108.791 67.7282 107.26 67.8114C105.75 67.9058 104.196 69.4872 104.18 69.4817C104.191 69.4761 105.023 71.18 106.583 71.18Z" fill="#314E52"></path><path fill-rule="evenodd" clip-rule="evenodd" d="M105.234 66.2399C104.89 64.7914 102.903 63.5485 102.914 63.543C102.936 63.5485 102.01 65.8516 102.226 67.3001C102.47 68.7652 104.174 69.4919 104.185 69.4808C104.191 69.4974 105.589 67.705 105.234 66.2399Z" fill="#314E52"></path><path fill-rule="evenodd" clip-rule="evenodd" d="M110.889 62.3383C109.413 62.638 108.153 64.3917 108.137 64.3917C108.142 64.375 109.235 65.9178 110.761 65.7069C112.315 65.5071 114.369 63.2819 114.352 63.2708C114.352 63.2597 112.376 62.0387 110.889 62.3383Z" fill="#314E52"></path><path fill-rule="evenodd" clip-rule="evenodd" d="M108.648 61.0851C108.076 59.7144 105.929 58.7821 105.94 58.771C105.956 58.771 105.412 61.1462 105.868 62.5281C106.345 63.9211 108.126 64.3984 108.137 64.3873C108.148 64.404 109.23 62.4615 108.648 61.0851Z" fill="#314E52"></path><path fill-rule="evenodd" clip-rule="evenodd" d="M113.609 56.4785C112.204 56.9779 111.228 58.8702 111.217 58.8702C111.222 58.8591 112.532 60.2133 114.003 59.7915C115.501 59.3753 117.188 56.9167 117.166 56.9056C117.166 56.8945 115.035 55.979 113.609 56.4785Z" fill="#314E52"></path><path fill-rule="evenodd" clip-rule="evenodd" d="M111.212 55.5742C110.441 54.3144 108.188 53.6986 108.194 53.6875C108.21 53.6875 108.032 56.0905 108.693 57.3725C109.375 58.6655 111.207 58.8817 111.218 58.8706C111.229 58.8817 112 56.8395 111.212 55.5742Z" fill="#314E52"></path><path fill-rule="evenodd" clip-rule="evenodd" d="M115.423 50.3505C114.107 51.0442 113.425 53.0365 113.408 53.042C113.408 53.0254 114.907 54.1686 116.3 53.547C117.715 52.931 119.019 50.2729 118.996 50.2618C118.996 50.2618 116.76 49.6624 115.423 50.3505Z" fill="#314E52"></path><path fill-rule="evenodd" clip-rule="evenodd" d="M112.919 49.8023C111.976 48.6757 109.656 48.3928 109.656 48.3817C109.678 48.3817 109.856 50.7624 110.7 51.9278C111.565 53.0988 113.408 53.0543 113.413 53.0432C113.424 53.0488 113.88 50.9344 112.919 49.8023Z" fill="#314E52"></path><path fill-rule="evenodd" clip-rule="evenodd" d="M117.661 47.0837C118.97 46.279 119.881 43.4708 119.858 43.4597C119.858 43.4597 117.55 43.1879 116.329 44.0647C115.125 44.936 114.742 47.0003 114.73 47.0058C114.73 46.9892 116.373 47.8995 117.661 47.0837Z" fill="#314E52"></path><path fill-rule="evenodd" clip-rule="evenodd" d="M114.73 47.0001C114.741 47.0057 114.885 44.858 113.775 43.8757C112.676 42.899 110.34 42.9543 110.34 42.9432C110.356 42.9377 110.873 45.2631 111.883 46.2898C112.909 47.3221 114.724 47.0112 114.73 47.0001Z" fill="#314E52"></path><path fill-rule="evenodd" clip-rule="evenodd" d="M118.082 40.5183C119.264 39.536 119.763 36.6224 119.741 36.6169C119.741 36.6058 117.416 36.6781 116.334 37.7215C115.268 38.7592 115.179 40.8515 115.168 40.857C115.162 40.8404 116.922 41.5006 118.082 40.5183Z" fill="#314E52"></path><path fill-rule="evenodd" clip-rule="evenodd" d="M112.248 40.5662C113.408 41.4319 115.167 40.8714 115.167 40.8548C115.184 40.8603 115.017 38.7181 113.779 37.9079C112.553 37.1032 110.25 37.4915 110.25 37.4804C110.261 37.4638 111.105 39.6949 112.248 40.5662Z" fill="#314E52"></path><path fill-rule="evenodd" clip-rule="evenodd" d="M117.554 33.9509C118.586 32.8077 118.664 29.8444 118.636 29.8388C118.636 29.8388 116.35 30.2325 115.429 31.4257C114.518 32.6133 114.735 34.7 114.718 34.7056C114.718 34.6945 116.55 35.0997 117.554 33.9509Z" fill="#314E52"></path><path fill-rule="evenodd" clip-rule="evenodd" d="M111.794 34.8406C113.071 35.5343 114.724 34.7183 114.719 34.7072C114.736 34.7127 114.27 32.6096 112.921 31.9825C111.595 31.3554 109.369 32.0712 109.369 32.0601C109.38 32.0545 110.54 34.1414 111.794 34.8406Z" fill="#314E52"></path><path fill-rule="evenodd" clip-rule="evenodd" d="M116.088 27.5077C116.943 26.2202 116.582 23.2567 116.554 23.2567C116.554 23.2567 114.346 23.9781 113.608 25.2989C112.886 26.6086 113.402 28.6567 113.391 28.6678C113.386 28.6512 115.261 28.7897 116.088 27.5077Z" fill="#314E52"></path><path fill-rule="evenodd" clip-rule="evenodd" d="M110.511 29.2244C111.871 29.735 113.397 28.6862 113.391 28.6696C113.408 28.6696 112.637 26.6437 111.21 26.2108C109.801 25.7779 107.703 26.8049 107.703 26.8049C107.72 26.7938 109.168 28.7027 110.511 29.2244Z" fill="#314E52"></path><path fill-rule="evenodd" clip-rule="evenodd" d="M113.686 21.2986C114.336 19.8946 113.525 16.9808 113.498 16.9864C113.498 16.9864 111.416 18.0243 110.889 19.4506C110.373 20.8657 111.195 22.8356 111.184 22.8412C111.178 22.8245 113.059 22.6971 113.686 21.2986Z" fill="#314E52"></path><path fill-rule="evenodd" clip-rule="evenodd" d="M111.189 22.8356C111.205 22.8356 110.134 20.9266 108.652 20.6935C107.187 20.4604 105.262 21.7866 105.262 21.7866C105.278 21.7699 107.01 23.4794 108.419 23.8013C109.84 24.1121 111.189 22.8522 111.189 22.8356Z" fill="#314E52"></path><path fill-rule="evenodd" clip-rule="evenodd" d="M110.339 15.4285C110.766 13.9246 109.49 11.1221 109.462 11.1332C109.451 11.1277 107.559 12.4652 107.264 13.9636C106.981 15.4564 108.108 17.3156 108.097 17.3267C108.091 17.3156 109.934 16.9158 110.339 15.4285Z" fill="#314E52"></path><path fill-rule="evenodd" clip-rule="evenodd" d="M108.097 17.3322C108.114 17.3266 106.749 15.5674 105.234 15.5397C103.735 15.5119 102.037 17.1214 102.031 17.1103C102.048 17.0937 104.046 18.5641 105.494 18.6806C106.965 18.7972 108.097 17.3322 108.097 17.3322Z" fill="#314E52"></path><path fill-rule="evenodd" clip-rule="evenodd" d="M104.551 10.2602C103.275 8.83952 99.168 7.52408 99.168 7.57958C99.2346 7.58513 101.055 11.3089 102.154 12.552C103.33 13.7729 105.484 13.8064 105.495 13.8175C105.506 13.8286 105.867 11.631 104.551 10.2602Z" fill="#314E52"></path><path fill-rule="evenodd" clip-rule="evenodd" d="M1.60156 99.3381H7.20674V97.4124H3.72162V85.8525H1.60156V99.3381Z" fill="#314E52"></path><path fill-rule="evenodd" clip-rule="evenodd" d="M11.1739 88.2446L12.1951 95.0651H10.153L11.1739 88.2446ZM9.881 96.8908H12.4837L12.8499 99.3381H14.9866L12.8279 85.8525H9.72552L7.57227 99.3381H9.51484L9.881 96.8908Z" fill="#314E52"></path><path fill-rule="evenodd" clip-rule="evenodd" d="M19.9024 99.3381L20.6737 92.1514L21.4395 99.3381H24.2533L25.7572 85.8525H23.9092L22.8104 96.5633L21.7502 85.8525H19.708L18.6868 96.4857L17.5493 85.8525H15.4902L16.9887 99.3381H19.9024Z" fill="#314E52"></path><path fill-rule="evenodd" clip-rule="evenodd" d="M30.9199 94.8707L33.6003 85.8525H31.5747L29.9597 91.9959L28.3392 85.8525H26.125L28.7999 94.8707V99.3381H30.9199V94.8707Z" fill="#314E52"></path><path fill-rule="evenodd" clip-rule="evenodd" d="M40.226 87.7785V85.8525H34.4434V99.3381H40.226V97.4124H36.5631V93.4613H39.4768V91.5353H36.5631V87.7785H40.226Z" fill="#314E52"></path><path fill-rule="evenodd" clip-rule="evenodd" d="M45.7525 90.4978C45.7525 91.5744 45.2696 91.9238 44.4816 91.9238H43.6548V87.784H44.676C45.4252 87.784 45.7525 88.2058 45.7525 89.1714V90.4978ZM45.9635 99.3381H48.1222C47.9113 98.8331 47.8891 98.3559 47.8891 97.7011V95.62C47.8891 94.2104 47.5396 93.1948 46.4851 92.7452C47.4286 92.3013 47.8725 91.3968 47.8725 90.0094V88.9495C47.8725 86.8684 46.9292 85.8472 44.7316 85.8472H41.5293V99.3327H43.6494V93.8386H44.3817C45.3418 93.8386 45.7691 94.3049 45.7691 95.5536V97.6733C45.7746 98.7777 45.847 98.9941 45.9635 99.3381Z" fill="#314E52"></path><path fill-rule="evenodd" clip-rule="evenodd" d="M56.6024 96.3912C56.5636 97.2403 56.1418 97.5679 55.5036 97.5679C54.8321 97.5679 54.4048 97.2017 54.4048 96.2361V94.9818C54.4048 93.7276 54.8265 93.2668 55.7922 93.2668H56.6024V96.3912ZM59.2773 93.2668V91.3412H58.7167V89.8373H56.597V91.3412H55.6699C54.8819 91.3412 54.399 90.997 54.399 89.9148V89.088C54.399 88.1224 54.8043 87.7785 55.4758 87.7785H57.8675V85.8525H55.4369C53.3169 85.8525 52.2793 87.0291 52.2793 89.1879V89.4376C52.2793 90.8805 52.7398 91.7906 53.7443 92.2124C52.7009 92.673 52.2793 93.6775 52.2793 95.0427V96.4081C52.2793 98.3893 53.073 99.4936 54.6324 99.4936C55.5758 99.4936 56.2307 99.0663 56.597 98.2782C56.6358 98.8776 56.6912 99.0661 56.7911 99.3381H58.9498C58.7389 98.8331 58.7225 98.3559 58.7225 97.701V93.2668H59.2773Z" fill="#314E52"></path><path fill-rule="evenodd" clip-rule="evenodd" d="M68.8337 87.7785V85.8525H63.2285V99.3381H65.3486V93.7719H68.0844V91.8408H65.3486V87.7785H68.8337Z" fill="#314E52"></path><path fill-rule="evenodd" clip-rule="evenodd" d="M74.0728 90.4978C74.0728 91.5744 73.59 91.9238 72.8019 91.9238H71.9751V87.784H72.996C73.7452 87.784 74.0728 88.2058 74.0728 89.1714V90.4978ZM74.2835 99.3381H76.4425C76.2316 98.8331 76.2095 98.3559 76.2095 97.7011V95.62C76.2095 94.2104 75.8595 93.1948 74.8051 92.7452C75.7485 92.3013 76.1925 91.3968 76.1925 90.0094V88.9495C76.1925 86.8684 75.2492 85.8472 73.0515 85.8472H69.8496V99.3327H71.9693V93.8386H72.702C73.6621 93.8386 74.0894 94.3049 74.0894 95.5536V97.6733C74.0894 98.7777 74.1669 98.9941 74.2835 99.3381Z" fill="#314E52"></path><path fill-rule="evenodd" clip-rule="evenodd" d="M79.7159 99.3381V85.8525H77.6016V99.3381H79.7159Z" fill="#314E52"></path><path fill-rule="evenodd" clip-rule="evenodd" d="M87.0424 87.7785V85.8525H81.2598V99.3381H87.0424V97.4124H83.3798V93.4613H86.2878V91.5353H83.3798V87.7785H87.0424Z" fill="#314E52"></path><path fill-rule="evenodd" clip-rule="evenodd" d="M95.0507 85.8525H93.164V93.9219L90.9884 85.8525H88.3301V99.3381H90.2391V89.571L92.8754 99.3381H95.0507V85.8525Z" fill="#314E52"></path><path fill-rule="evenodd" clip-rule="evenodd" d="M98.6905 97.4124V87.7785H99.8892C100.561 87.7785 100.966 88.1224 100.966 89.088V96.1029C100.966 97.063 100.561 97.4124 99.8892 97.4124H98.6905ZM103.086 96.0084V89.1879C103.086 87.0291 102.048 85.8525 99.9282 85.8525H96.5762V99.3381H99.9282C102.048 99.3381 103.086 98.1617 103.086 96.0084Z" fill="#314E52"></path><path fill-rule="evenodd" clip-rule="evenodd" d="M106.282 85.8525H104.24V87.895H105.05L104.49 89.8207H105.361L106.282 87.684V85.8525Z" fill="#314E52"></path><path fill-rule="evenodd" clip-rule="evenodd" d="M109.58 88.9556C109.58 87.9899 109.963 87.6237 110.64 87.6237C111.317 87.6237 111.7 87.9899 111.7 88.9556V89.5161H113.703V89.0944C113.703 86.9356 112.643 85.7035 110.584 85.7035C108.525 85.7035 107.465 86.9356 107.465 89.0944C107.465 92.9459 111.605 93.4673 111.605 96.2422C111.605 97.2078 111.184 97.552 110.507 97.552C109.83 97.552 109.408 97.2078 109.408 96.2422V95.2822H107.404V96.109C107.404 98.2678 108.481 99.5 110.562 99.5C112.643 99.5 113.72 98.2678 113.72 96.109C113.72 92.252 109.58 91.7304 109.58 88.9556Z" fill="#314E52"></path><path fill-rule="evenodd" clip-rule="evenodd" d="M45.942 40.2609C45.4481 40.2609 45.0542 39.8612 45.0542 39.3728C45.0542 38.8844 45.4536 38.485 45.942 38.485C46.4303 38.485 46.8355 38.8789 46.8355 39.3728C46.8355 39.8667 46.4359 40.2609 45.942 40.2609ZM33.6606 40.2609C33.1667 40.2609 32.7728 39.8612 32.7728 39.3728C32.7728 38.8844 33.1722 38.485 33.6606 38.485C34.1545 38.485 34.5487 38.8789 34.5487 39.3728C34.5487 39.8667 34.1545 40.2609 33.6606 40.2609ZM45.942 36.8923H33.6606C32.2898 36.8923 31.1855 38.0022 31.1855 39.3674C31.1855 40.7381 32.2898 41.8424 33.6606 41.8424C35.0313 41.8424 36.136 40.7326 36.136 39.3674H43.4615C43.4615 40.7381 44.5713 41.8424 45.9366 41.8424C47.3073 41.8424 48.417 40.7326 48.417 39.3674C48.4226 38.0022 47.3127 36.8923 45.942 36.8923Z" fill="#314E52"></path><path fill-rule="evenodd" clip-rule="evenodd" d="M41.7631 66.711V43.1193H42.801V66.711H41.7631ZM36.6688 43.1193H37.7063V66.711H36.6688V43.1193ZM39.2159 43.1193H40.2538V66.711H39.2159V43.1193ZM42.9785 39.9895H36.6688C36.3913 41.0328 36.0026 41.6766 35.1035 41.9707V66.7052H33.6663V69.1416H31.7793V74.0697H47.8344V69.1416H45.9477V66.7052H44.5102V41.9707C43.4668 41.6211 43.2559 41.0051 42.9785 39.9895Z" fill="#314E52"></path><path fill-rule="evenodd" clip-rule="evenodd" d="M65.7872 40.2609C65.2933 40.2609 64.894 39.8612 64.894 39.3728C64.894 38.8844 65.2933 38.485 65.7872 38.485C66.2812 38.485 66.6808 38.8789 66.6808 39.3728C66.6808 39.8667 66.2812 40.2609 65.7872 40.2609ZM53.5116 40.2609C53.0177 40.2609 52.6238 39.8612 52.6238 39.3728C52.6238 38.8844 53.0232 38.485 53.5116 38.485C54 38.485 54.3994 38.8789 54.3994 39.3728C54.3994 39.8667 54 40.2609 53.5116 40.2609ZM65.7872 36.8923H53.5062C52.1354 36.8923 51.0254 38.0022 51.0254 39.3674C51.0254 40.7381 52.1354 41.8424 53.5062 41.8424C54.8714 41.8424 55.9812 40.7326 55.9812 39.3674H63.3068C63.3068 40.7381 64.4166 41.8424 65.7818 41.8424C67.1526 41.8424 68.2626 40.7326 68.2626 39.3674C68.2682 38.0022 67.158 36.8923 65.7872 36.8923Z" fill="#314E52"></path><path fill-rule="evenodd" clip-rule="evenodd" d="M61.6084 66.711V43.1193H62.6462V66.711H61.6084ZM56.514 43.1193H57.5519V66.711H56.514V43.1193ZM59.0612 43.1193H60.099V66.711H59.0612V43.1193ZM62.8237 39.9895H56.514C56.2365 41.0328 55.8479 41.6766 54.9434 41.9707V66.7052H53.5062V69.1416H51.6191V74.0697H67.6796V69.1416H65.793V66.7052H64.3554V41.9707C63.3121 41.6211 63.1068 41.0051 62.8237 39.9895Z" fill="#314E52"></path><path fill-rule="evenodd" clip-rule="evenodd" d="M84.7564 40.2609C84.2625 40.2609 83.8683 39.8612 83.8683 39.3728C83.8683 38.8844 84.2681 38.485 84.7564 38.485C85.2448 38.485 85.6442 38.8789 85.6442 39.3728C85.6442 39.8667 85.2448 40.2609 84.7564 40.2609ZM72.475 40.2609C71.9811 40.2609 71.5815 39.8612 71.5815 39.3728C71.5815 38.8844 71.9811 38.485 72.475 38.485C72.9634 38.485 73.3632 38.8789 73.3632 39.3728C73.3632 39.8667 72.969 40.2609 72.475 40.2609ZM84.7564 36.8923H72.4808C71.11 36.8923 70 38.0022 70 39.3674C70 40.7381 71.11 41.8424 72.4808 41.8424C73.846 41.8424 74.9558 40.7326 74.9558 39.3674H82.2814C82.2814 40.7381 83.3912 41.8424 84.7564 41.8424C86.1272 41.8424 87.2372 40.7326 87.2372 39.3674C87.2317 38.0022 86.1272 36.8923 84.7564 36.8923Z" fill="#314E52"></path><path fill-rule="evenodd" clip-rule="evenodd" d="M80.5771 66.711V43.1193H81.615V66.711H80.5771ZM75.4824 43.1193H76.5203V66.711H75.4824V43.1193ZM78.03 43.1193H79.0675V66.711H78.03V43.1193ZM81.7867 39.9895H75.477C75.1995 41.0328 74.8111 41.6766 73.9121 41.9707V66.7052H72.4746V69.1416H70.5879V74.0697H86.6426V69.1416H84.756V66.7052H83.3184V41.9707C82.2751 41.6211 82.0698 41.0051 81.7867 39.9895Z" fill="#314E52"></path><path fill-rule="evenodd" clip-rule="evenodd" d="M28.1113 33.2355H35.1039V36.3818H44.5051V33.2355H54.9439V36.3818H64.3505V33.2355H73.9127V36.3818H83.319V33.2355H92.0875V30.6436H28.1113V33.2355Z" fill="#314E52"></path><path fill-rule="evenodd" clip-rule="evenodd" d="M60.0981 0.5L22.5938 28.8866H29.1365L60.0981 5.45042L91.0651 28.8866H97.6078L60.0981 0.5Z" fill="#314E52"></path><path fill-rule="evenodd" clip-rule="evenodd" d="M34.666 27.7597H85.8777L60.1 8.25269L34.666 27.7597Z" fill="#314E52"></path><path fill-rule="evenodd" clip-rule="evenodd" d="M93.9799 75.3196H27.1016V80.1755H93.9799V75.3196Z" fill="#314E52"></path></svg>