<svg xmlns="http://www.w3.org/2000/svg" width="91" height="100" viewBox="0 0 91 100" fill="none"><path fill-rule="evenodd" clip-rule="evenodd" d="M2.01367 60.9797V72.4052H8.19481V70.6574H4.0437V60.9797H2.01367Z" fill="#314E52"></path><path fill-rule="evenodd" clip-rule="evenodd" d="M11.7713 66.9756V65.296C11.7713 63.4943 12.6288 62.5716 13.7859 62.5716C14.9429 62.5716 15.8007 63.4943 15.8007 65.296V66.9756H11.7713ZM17.8255 72.4051V65.3449C17.8255 62.4642 16.0595 60.7844 13.7809 60.7844C11.5023 60.7844 9.73633 62.4642 9.73633 65.3449V72.4051H11.766V68.7187H15.7905V72.4051H17.8255Z" fill="#314E52"></path><path fill-rule="evenodd" clip-rule="evenodd" d="M26.7117 60.9797H25.4634L23.1695 68.6211L20.8505 60.9797H18.7852L22.5606 72.4735H23.7939L26.0876 64.8175L28.3864 72.4735H29.6145L33.3903 60.9797H31.3246L29.0106 68.6211L26.7117 60.9797Z" fill="#314E52"></path><path fill-rule="evenodd" clip-rule="evenodd" d="M45.712 66.6825C45.712 69.4608 44.3926 70.8327 43.0783 70.8327C41.7588 70.8327 40.4442 69.4608 40.4442 66.6825C40.4442 63.9239 41.7639 62.5566 43.0783 62.5566C44.3977 62.5566 45.712 63.9239 45.712 66.6825ZM38.3789 66.6825C38.3789 70.0955 40.4089 72.5954 43.0783 72.5954C45.7476 72.5954 47.7773 70.0955 47.7773 66.6825C47.7773 63.2745 45.7476 60.7891 43.0783 60.7891C40.4039 60.7891 38.3789 63.2745 38.3789 66.6825Z" fill="#314E52"></path><path fill-rule="evenodd" clip-rule="evenodd" d="M56.3432 62.7279V60.9797H49.9492V72.4052H51.9789V67.01H55.9677V65.2619H51.9789V62.7279H56.3432Z" fill="#314E52"></path><path fill-rule="evenodd" clip-rule="evenodd" d="M64.6052 62.7279V60.9797H58.2109V72.4052H60.2407V67.01H64.2347V65.2619H60.2407V62.7279H64.6052Z" fill="#314E52"></path><path fill-rule="evenodd" clip-rule="evenodd" d="M71.5168 62.4203V60.9797H66.1934V62.4203H67.8272V70.9697H66.1934V72.4052H71.5168V70.9697H69.8573V62.4203H71.5168Z" fill="#314E52"></path><path fill-rule="evenodd" clip-rule="evenodd" d="M77.8911 62.5715C78.8858 62.5715 79.5963 63.0644 80.19 63.8407L81.2964 62.7765C80.5656 61.4924 79.3173 60.7891 77.7137 60.7891C74.7957 60.7891 72.8672 63.4452 72.8672 66.7019C72.8672 69.9586 74.7906 72.5954 77.7137 72.5954C79.3173 72.5954 80.525 71.8924 81.2964 70.6083L80.19 69.5631C79.6014 70.3151 78.8909 70.8133 77.8911 70.8133C76.3078 70.8133 74.9325 69.3239 74.9325 66.7019C74.9325 64.0799 76.3078 62.5715 77.8911 62.5715Z" fill="#314E52"></path><path fill-rule="evenodd" clip-rule="evenodd" d="M89.4465 62.7279V60.9797H83.1641V72.4052H89.6243V70.6574H85.1941V67.01H88.9494V65.2619H85.1941V62.7279H89.4465Z" fill="#314E52"></path><path fill-rule="evenodd" clip-rule="evenodd" d="M90.999 76.3405H0.140625V78.6062H90.999V76.3405Z" fill="#314E52"></path><path fill-rule="evenodd" clip-rule="evenodd" d="M90.999 54.8287H0.140625V57.0942H90.999V54.8287Z" fill="#314E52"></path><path fill-rule="evenodd" clip-rule="evenodd" d="M54.1155 31.4843C54.1155 30.7129 54.7649 30.0878 55.5616 30.0878C56.3635 30.0878 57.0131 30.7129 57.0131 31.4843C57.0131 32.2558 56.3635 32.8757 55.5616 32.8757C54.7649 32.8757 54.1155 32.2509 54.1155 31.4843ZM35.5724 32.8757C34.7705 32.8757 34.1209 32.2509 34.1209 31.4843C34.1209 30.7129 34.7705 30.0878 35.5724 30.0878C36.3742 30.0878 37.0238 30.7129 37.0238 31.4843C37.0238 32.2509 36.3742 32.8757 35.5724 32.8757ZM59.6013 31.4843C59.6013 29.3408 57.7947 27.6024 55.5669 27.6024H35.5773C33.3495 27.6024 31.543 29.336 31.543 31.4843C31.543 33.6278 33.3495 35.3659 35.5773 35.3659C37.8051 35.3659 39.6117 33.6278 39.6117 31.4843H51.5375C51.5375 33.6278 53.344 35.3659 55.5719 35.3659C57.7946 35.3659 59.6013 33.6229 59.6013 31.4843Z" fill="#314E52"></path><path fill-rule="evenodd" clip-rule="evenodd" d="M37.9121 35.5617V53.1489H44.9862V32.4517H40.4647C40.013 34.0873 39.3787 35.0979 37.9121 35.5617Z" fill="#314E52"></path><path fill-rule="evenodd" clip-rule="evenodd" d="M50.7421 32.4564H46.1543V53.154H53.2235V35.5668C51.5336 35.015 51.1989 34.0482 50.7421 32.4564Z" fill="#314E52"></path><path fill-rule="evenodd" clip-rule="evenodd" d="M37.9121 80.5747V93.6407L45.4583 99.5L53.2278 93.6407V80.5747H46.1533V89.6417L45.5698 89.9642L44.9862 89.6417V80.5747H37.9121Z" fill="#314E52"></path><path fill-rule="evenodd" clip-rule="evenodd" d="M61.9924 23.258C62.231 23.3556 62.4492 23.4482 62.7587 23.5605C63.3322 23.7704 63.8549 23.9121 64.3979 24.0391C65.4686 24.2881 66.5191 24.4297 67.529 24.5079C69.5437 24.669 71.4009 24.5956 72.9792 24.4637C74.2479 24.3514 75.334 24.1905 76.1865 24.0245C76.6737 24.8301 77.5719 25.3721 78.6071 25.3721C80.1498 25.3721 81.4034 24.1708 81.4034 22.6816C81.4034 21.1973 80.1549 19.9915 78.6071 19.9915C77.0644 19.9915 75.8161 21.1974 75.8161 22.6769C75.0295 22.7306 74.0451 22.7598 72.9185 22.7305C71.4163 22.6866 69.6654 22.5499 67.8638 22.1935C66.9656 22.0177 66.0573 21.7881 65.1896 21.4756C64.7633 21.3242 64.3165 21.1436 63.9562 20.9532C63.7938 20.875 63.5553 20.7432 63.3321 20.6212L62.6723 20.2454C60.815 19.2103 58.846 18.3217 56.9075 17.6625C54.974 16.9936 53.0759 16.554 51.4012 16.3197C50.8126 16.2367 50.2495 16.178 49.7268 16.134L49.2851 10.2602C50.5386 9.23484 51.3254 7.76047 51.3254 6.11991C51.3254 3.01456 48.5188 0.5 45.0578 0.5C41.5968 0.5 38.7958 3.01944 38.7958 6.11991C38.7958 7.76047 39.5874 9.23484 40.8357 10.2602L40.3993 16.1146C39.8005 16.1586 39.156 16.222 38.4709 16.3197C36.7962 16.554 34.8982 16.9936 32.9647 17.6625C31.0261 18.3217 29.0521 19.2103 27.1998 20.2454L26.5453 20.6212C26.3221 20.7432 26.0833 20.875 25.9209 20.9532C25.5555 21.1387 25.1141 21.3193 24.6878 21.4756C23.8201 21.7881 22.9118 22.0177 22.0136 22.1935C20.212 22.5499 18.4611 22.6866 16.9589 22.7305C15.9288 22.7598 15.0153 22.7354 14.2642 22.6915V22.6816C14.2642 21.1973 13.0109 19.9915 11.4682 19.9915C9.92547 19.9915 8.67188 21.1973 8.67188 22.6816C8.67188 24.166 9.92039 25.3721 11.4682 25.3721C12.4882 25.3721 13.3762 24.8447 13.8634 24.0635C14.6855 24.2149 15.7158 24.3612 16.8982 24.4637C18.4765 24.5956 20.3337 24.669 22.3484 24.5079C23.3583 24.4297 24.4088 24.2881 25.4795 24.0391C26.0225 23.9121 26.5401 23.7704 27.1187 23.5605C27.4282 23.4482 27.6464 23.3555 27.885 23.2628L28.6005 22.965C30.4172 22.2326 32.2899 21.6614 34.0559 21.3C35.8219 20.9339 37.4814 20.7678 38.877 20.7434C39.2982 20.7336 39.6889 20.7433 40.0543 20.758L39.6027 26.8466H50.5234L50.0666 20.7481C50.3609 20.7384 50.6707 20.7336 50.9955 20.7434C52.3961 20.7629 54.0505 20.929 55.8166 21.3C57.5826 21.6614 59.4498 22.2326 61.2717 22.965L61.9924 23.258Z" fill="#314E52"></path><path fill-rule="evenodd" clip-rule="evenodd" d="M29.1371 43.6921H20.1801V31.6026L29.1371 43.6921ZM19.7031 31.6074V43.6968H10.7461L19.7031 31.6074ZM10.1424 43.7165H9.0918V45.9379H10.4924L11.7915 50.0004C12.0655 50.8549 12.8166 51.4309 13.6539 51.4309H26.3003C27.1427 51.4309 27.8887 50.8549 28.1627 50.0004L29.4618 45.9379H30.8423V43.7165H29.7359L20.1752 30.8165V29.459C20.8552 29.3467 21.3726 28.7854 21.3726 28.1019C21.3726 27.4183 20.8552 26.8518 20.1752 26.7444V24.6008H19.6982V26.7444C19.0182 26.8518 18.5004 27.4183 18.5004 28.1019C18.5004 28.7854 19.0182 29.3518 19.6982 29.4641V30.8212L10.1424 43.7165Z" fill="#314E52"></path><path fill-rule="evenodd" clip-rule="evenodd" d="M70.3194 31.6074V43.6968H61.3624L70.3194 31.6074ZM79.7482 43.6921H70.7915V31.6026L79.7482 43.6921ZM62.4078 50.0004C62.6818 50.8549 63.4329 51.4309 64.2702 51.4309H76.9116C77.754 51.4309 78.5 50.8549 78.774 50.0004L80.078 45.9379H81.4585V43.7165H80.3522L70.7915 30.8165V29.459C71.4715 29.3467 71.9889 28.7854 71.9889 28.1019C71.9889 27.4183 71.4715 26.8518 70.7915 26.7444V24.6008H70.3145V26.7444C69.6344 26.8518 69.1167 27.4183 69.1167 28.1019C69.1167 28.7854 69.6344 29.3518 70.3145 29.4641V30.8212L60.7534 43.7213H59.7031V45.943H61.1038L62.4078 50.0004Z" fill="#314E52"></path></svg>