<svg xmlns="http://www.w3.org/2000/svg" width="117" height="100" viewBox="0 0 117 100" fill="none"><path fill-rule="evenodd" clip-rule="evenodd" d="M31.4962 28.1841V41.8346H21.7661L31.4962 28.1841ZM41.751 41.8346H32.0212V28.1894L41.751 41.8346ZM96.7992 41.8346H87.0691V28.1841L96.7992 41.8346ZM86.5393 28.1894V41.8346H76.8037L86.5393 28.1894ZM22.8997 48.9668C23.1989 49.9377 24.0125 50.5831 24.9309 50.5831H38.6756C39.5888 50.5831 40.4025 49.9325 40.7017 48.9668L42.1185 44.3746H43.6195V41.8608H42.4231L32.0264 27.2814V25.749C32.7611 25.623 33.3278 24.9879 33.3278 24.2164C33.3278 23.4449 32.7611 22.8046 32.0264 22.6787V20.3538C32.4777 20.338 32.9344 20.3118 33.4015 20.2699C34.5299 20.1754 35.7053 20.0179 36.9071 19.724C37.5107 19.5771 38.0932 19.4144 38.7387 19.1678C39.0851 19.0418 39.3319 18.9368 39.5943 18.8214L40.397 18.4802C42.4333 17.63 44.5169 16.9688 46.4902 16.5437C48.4635 16.1186 50.3163 15.9243 51.8803 15.8981C53.4128 15.8718 54.6565 15.9979 55.491 16.1396V52.4308H61.8151V16.1396C62.6496 15.9979 63.8933 15.8718 65.4258 15.8981C66.9845 15.9243 68.8424 16.1186 70.8104 16.5437C72.7837 16.9688 74.8725 17.6248 76.9087 18.4802L77.7118 18.8214C77.9742 18.9316 78.2207 19.0418 78.5671 19.1678C79.2126 19.4092 79.7953 19.5771 80.4041 19.724C81.6007 20.0127 82.7762 20.1754 83.9046 20.2699C84.823 20.3486 85.6995 20.38 86.555 20.38V22.6736C85.815 22.7943 85.2532 23.4345 85.2532 24.2113C85.2532 24.9828 85.8202 25.623 86.555 25.7437V27.2761L76.1531 41.8556H75.014V44.3695H76.5413L77.953 48.9617C78.2521 49.9326 79.0657 50.578 79.9842 50.578H93.7292C94.6424 50.578 95.4556 49.9273 95.7495 48.9617L97.1666 44.3695H98.6676V41.8556H97.4658L87.0691 27.2761V25.7437C87.8038 25.6177 88.3654 24.9828 88.3654 24.2113C88.3654 23.4398 87.8038 22.7995 87.0691 22.6736V20.3748C88.1135 20.359 89.0843 20.3013 89.9818 20.2226C91.7452 20.0652 93.2042 19.8133 94.2171 19.5772C94.7314 19.4565 95.1357 19.3409 95.4138 19.2464C95.5555 19.1992 95.6658 19.1573 95.7393 19.1258C95.818 19.0943 95.8546 19.0786 95.8546 19.0786C96.1957 18.9421 96.3583 18.5538 96.2271 18.2179C96.0959 17.903 95.7602 17.7402 95.4401 17.8242L95.3875 17.8399C95.3875 17.8399 95.3561 17.8451 95.3036 17.8609C95.2511 17.8766 95.162 17.8977 95.0413 17.924C94.8051 17.9712 94.4378 18.0393 93.9602 18.0918C92.9998 18.1968 91.593 18.2755 89.9135 18.223C88.2394 18.1705 86.2766 18.0131 84.2666 17.5985C83.2642 17.3938 82.2462 17.1262 81.2805 16.7588C80.8029 16.5856 80.3096 16.3705 79.9002 16.1553C79.7218 16.0661 79.4542 15.9139 79.2023 15.7722L78.4674 15.3366C76.3944 14.1347 74.1902 13.1009 72.028 12.3347C69.8605 11.5632 67.74 11.0489 65.8717 10.776C64.292 10.5398 62.9065 10.4716 61.8097 10.4821V9.03869H62.7386C63.6361 9.03869 64.3655 8.30933 64.3655 7.40665V7.0655C64.3655 6.16282 63.6308 5.4333 62.7386 5.4333H61.8097V2.39984C61.8097 1.3502 60.9542 0.5 59.9098 0.5H57.3854C56.3357 0.5 55.4855 1.3502 55.4855 2.39984V5.42801H54.5566C53.6539 5.42801 52.9297 6.15753 52.9297 7.06022V7.40136C52.9297 8.30405 53.6539 9.03357 54.5566 9.03357H55.4855V10.4768C54.3887 10.4663 52.998 10.5345 51.4235 10.7707C49.5552 11.0436 47.4298 11.5579 45.2676 12.3294C43.1001 13.0956 40.8958 14.1294 38.8175 15.3313L38.0827 15.7669C37.8308 15.9086 37.5684 16.0608 37.3847 16.15C36.9806 16.3652 36.482 16.5803 36.0045 16.7535C35.0388 17.1156 34.0205 17.3833 33.0181 17.5932C31.008 18.0078 29.0506 18.1654 27.366 18.2179C25.6866 18.2651 24.28 18.1915 23.3248 18.0865C22.842 18.0341 22.4799 17.9712 22.2437 17.9187C22.1177 17.8924 22.0338 17.8767 21.9814 17.8557C21.9236 17.84 21.8974 17.8348 21.8974 17.8348L21.8449 17.8189C21.5248 17.7349 21.1887 17.8977 21.0575 18.2126C20.9211 18.5537 21.084 18.9368 21.4304 19.0733C21.4304 19.0733 21.4619 19.0891 21.5406 19.1205C21.6246 19.152 21.7347 19.1939 21.8712 19.2411C22.1546 19.3356 22.5585 19.4564 23.0676 19.5719C24.0857 19.808 25.5395 20.0599 27.3029 20.2173C28.5572 20.3275 29.9691 20.4011 31.4911 20.3644V22.6683C30.7564 22.789 30.1948 23.4293 30.1948 24.206C30.1948 24.9775 30.7564 25.6177 31.4911 25.7384V27.2708L21.0944 41.8503H19.9608V44.3642H21.4826L22.8997 48.9668Z" fill="white"></path><path fill-rule="evenodd" clip-rule="evenodd" d="M3.10919 63.2627V78.4931H11.034V76.1627H5.71758V63.2627H3.10919Z" fill="white"></path><path fill-rule="evenodd" clip-rule="evenodd" d="M15.6208 71.2541V69.0182C15.6208 66.6198 16.7175 65.3867 18.1975 65.3867C19.6828 65.3867 20.7796 66.6198 20.7796 69.0182V71.2541H15.6208ZM23.388 78.4915V69.0813C23.388 65.2449 21.1206 63.0093 18.2026 63.0093C15.2794 63.0093 13.0227 65.2449 13.0227 69.0813V78.4915H15.626V73.5844H20.7848V78.4915H23.388Z" fill="white"></path><path fill-rule="evenodd" clip-rule="evenodd" d="M34.7765 63.2627H33.1758L30.2317 73.4496L27.2716 63.2627H24.6213L29.4601 78.5821H31.0345L33.984 68.3744L36.9284 78.5821H38.4974L43.3416 63.2627H40.6912L37.7209 73.4496L34.7765 63.2627Z" fill="white"></path><path fill-rule="evenodd" clip-rule="evenodd" d="M59.1438 70.8658C59.1438 74.5658 57.4539 76.3921 55.764 76.3921C54.0741 76.3921 52.3894 74.5658 52.3894 70.8658C52.3894 67.1869 54.0794 65.3604 55.764 65.3604C57.4539 65.3604 59.1438 67.1869 59.1438 70.8658ZM49.7339 70.8658C49.7339 75.4108 52.3368 78.7432 55.7586 78.7432C59.1804 78.7432 61.789 75.4108 61.789 70.8658C61.789 66.3209 59.1804 63.0093 55.7586 63.0093C52.3368 63.0093 49.7339 66.3209 49.7339 70.8658Z" fill="white"></path><path fill-rule="evenodd" clip-rule="evenodd" d="M72.7681 65.593V63.2627H64.5755V78.4931H67.1788V71.2977H72.2905V68.9728H67.1788V65.593H72.7681Z" fill="white"></path><path fill-rule="evenodd" clip-rule="evenodd" d="M83.3639 65.593V63.2627H75.1716V78.4931H77.7695V71.2977H82.8863V68.9728H77.7695V65.593H83.3639Z" fill="white"></path><path fill-rule="evenodd" clip-rule="evenodd" d="M92.2232 65.1782V63.2627H85.4006V65.1782H87.5V76.5721H85.4006V78.4931H92.2232V76.5721H90.103V65.1782H92.2232Z" fill="white"></path><path fill-rule="evenodd" clip-rule="evenodd" d="M100.4 65.3867C101.68 65.3867 102.588 66.0478 103.344 67.0764L104.756 65.6596C103.816 63.9487 102.221 63.0093 100.169 63.0093C96.4218 63.0093 93.9604 66.5464 93.9604 70.8867C93.9604 75.2269 96.427 78.7432 100.169 78.7432C102.221 78.7432 103.774 77.809 104.756 76.0929L103.344 74.702C102.588 75.7044 101.675 76.3709 100.394 76.3709C98.3634 76.3709 96.6002 74.3821 96.6002 70.8921C96.6107 67.3916 98.3689 65.3867 100.4 65.3867Z" fill="white"></path><path fill-rule="evenodd" clip-rule="evenodd" d="M115.216 65.593V63.2627H107.154V78.4931H115.447V76.1627H109.757V71.2977H114.575V68.9728H109.757V65.593H115.216Z" fill="white"></path><path fill-rule="evenodd" clip-rule="evenodd" d="M7.73271 31.8789H5.51287V29.9738H7.39702V29.0659H5.51287V27.7434H7.64366V26.8354H4.49457V32.7869H7.73271V31.8789Z" fill="white"></path><path fill-rule="evenodd" clip-rule="evenodd" d="M10.2464 32.0207C9.76356 32.0207 9.29646 31.8685 8.72966 31.5011L8.42023 32.2097C8.90306 32.64 9.56937 32.8867 10.2464 32.8867C11.296 32.8867 12.1882 32.2989 12.1882 31.1286C12.1882 30.0947 11.3855 29.6906 10.4408 29.2813C9.87927 29.0294 9.47505 28.8089 9.47505 28.3524C9.47505 27.901 9.83711 27.6018 10.3934 27.6018C10.8185 27.6018 11.2648 27.7907 11.7266 28.1371L12.0255 27.4391C11.5689 26.9825 10.9864 26.7358 10.3566 26.7358C9.34893 26.7358 8.49871 27.3761 8.49871 28.3785C8.49871 29.3074 9.11289 29.7956 9.90012 30.142C10.6349 30.4674 11.2016 30.7245 11.2016 31.2178C11.2068 31.7794 10.7922 32.0207 10.2464 32.0207Z" fill="white"></path><path fill-rule="evenodd" clip-rule="evenodd" d="M14.0986 32.7869H15.1169V27.7434H16.7018V26.8354H12.5136V27.7434H14.0986V32.7869Z" fill="white"></path><path fill-rule="evenodd" clip-rule="evenodd" d="M17.3685 32.8848C17.7149 32.8848 17.9983 32.6014 17.9983 32.2498C17.9983 31.9034 17.7149 31.6147 17.3685 31.6147C17.0169 31.6147 16.7336 31.8982 16.7336 32.2498C16.7336 32.6014 17.0221 32.8848 17.3685 32.8848Z" fill="white"></path><path fill-rule="evenodd" clip-rule="evenodd" d="M100.116 28.2317V32.026H99.2924V32.7766H101.964V32.026H101.134V26.7202H100.688L98.9407 28.2474L99.1611 28.641L100.116 28.2317Z" fill="white"></path><path fill-rule="evenodd" clip-rule="evenodd" d="M104.755 27.5966C105.333 27.5966 105.8 28.0165 105.8 28.6673C105.8 29.3181 105.333 29.7378 104.755 29.7378C104.183 29.7378 103.711 29.3181 103.711 28.6673C103.716 28.0165 104.189 27.5966 104.755 27.5966ZM104.871 30.5199L103.317 32.7766H104.462L106.204 30.205C106.477 29.7957 106.797 29.2551 106.797 28.6673C106.797 27.5862 105.879 26.7202 104.761 26.7202C103.638 26.7202 102.73 27.5862 102.73 28.6673C102.724 29.8271 103.695 30.7246 104.871 30.5199Z" fill="white"></path><path fill-rule="evenodd" clip-rule="evenodd" d="M109.663 29.9531C110.25 29.9531 110.707 30.3571 110.707 30.9869C110.707 31.6115 110.251 32.0156 109.658 32.0156C109.08 32.0156 108.618 31.6115 108.618 30.9869C108.618 30.3571 109.085 29.9531 109.663 29.9531ZM109.663 27.5337C110.104 27.5337 110.445 27.8486 110.445 28.3105C110.445 28.767 110.098 29.0871 109.658 29.0871C109.232 29.0871 108.881 28.767 108.881 28.3105C108.886 27.8486 109.238 27.5337 109.663 27.5337ZM107.632 30.9975C107.632 32.0576 108.54 32.8711 109.663 32.8711C110.802 32.8711 111.704 32.0576 111.704 30.9975C111.704 30.3467 111.363 29.7746 110.817 29.4702C111.185 29.192 111.395 28.7617 111.395 28.2999C111.395 27.4077 110.639 26.7202 109.663 26.7202C108.702 26.7202 107.941 27.4077 107.941 28.2999C107.941 28.7617 108.157 29.2025 108.524 29.4702C107.973 29.7746 107.627 30.3467 107.632 30.9975Z" fill="white"></path><path fill-rule="evenodd" clip-rule="evenodd" d="M112.738 32.7746H113.757L116.081 27.1014V26.8179H112.177V27.7258H114.838L112.738 32.7746Z" fill="white"></path><path fill-rule="evenodd" clip-rule="evenodd" d="M110.287 84.686H0.857544V87.5251H110.287V84.686Z" fill="white"></path><path fill-rule="evenodd" clip-rule="evenodd" d="M110.287 57.7559H0.857544V60.5901H110.287V57.7559Z" fill="white"></path><path fill-rule="evenodd" clip-rule="evenodd" d="M27.3502 94.8098L25.4975 91.3462H23.9913L26.6625 96.1536V99.3655H28.0377V96.1536L30.7037 91.3462H29.2027L27.3502 94.8098Z" fill="white"></path><path fill-rule="evenodd" clip-rule="evenodd" d="M34.0207 98.2562C33.1337 98.2562 32.2416 97.2957 32.2416 95.3486C32.2416 93.412 33.1337 92.4516 34.0207 92.4516C34.9129 92.4516 35.8049 93.412 35.8049 95.3486C35.8049 97.2957 34.9129 98.2562 34.0207 98.2562ZM34.0207 91.2129C32.2153 91.2129 30.8508 92.9554 30.8508 95.3486C30.8508 97.7417 32.2153 99.5 34.0207 99.5C35.8261 99.5 37.1957 97.747 37.1957 95.3486C37.1957 92.9554 35.8261 91.2129 34.0207 91.2129Z" fill="white"></path><path fill-rule="evenodd" clip-rule="evenodd" d="M38.6656 91.3462V96.3003C38.6656 98.3209 39.8568 99.4965 41.3945 99.4965C42.9322 99.4965 44.1236 98.3209 44.1236 96.3003V91.3462H42.7539V96.332C42.7539 97.6073 42.1765 98.2476 41.3945 98.2476C40.6125 98.2476 40.0354 97.6126 40.0354 96.332V91.3462H38.6656Z" fill="white"></path><path fill-rule="evenodd" clip-rule="evenodd" d="M48.2798 95.5186H47.225V92.5271H48.2798C49.1615 92.5271 49.8334 93.0207 49.8334 94.0336C49.8334 95.036 49.1615 95.5186 48.2798 95.5186ZM51.2399 94.0231C51.2399 92.5588 50.2007 91.3413 48.4006 91.3413H45.8553V99.3603H47.2199V96.6942H48.301L50.3792 99.3603H51.9799L49.6812 96.437C50.6994 96.0224 51.2399 95.0989 51.2399 94.0231Z" fill="white"></path><path fill-rule="evenodd" clip-rule="evenodd" d="M57.648 98.3298C57.0025 98.3298 56.3778 98.1251 55.6168 97.6318L55.1969 98.5818C55.8424 99.1591 56.7453 99.4948 57.648 99.4948C59.0703 99.4948 60.2721 98.7025 60.2721 97.1228C60.2721 95.732 59.1909 95.1915 57.9104 94.6351C57.1546 94.2993 56.614 93.9999 56.614 93.3859C56.614 92.7718 57.097 92.3785 57.8527 92.3785C58.4195 92.3785 59.0229 92.6302 59.6475 93.0973L60.0514 92.1578C59.4426 91.5437 58.6502 91.208 57.8053 91.208C56.446 91.208 55.302 92.0739 55.302 93.4227C55.302 94.6718 56.1311 95.3331 57.1912 95.8002C58.1779 96.2358 58.9495 96.5823 58.9495 97.2435C58.9495 98.0045 58.3828 98.3298 57.648 98.3298Z" fill="white"></path><path fill-rule="evenodd" clip-rule="evenodd" d="M61.6053 91.3462V99.3655H65.7775V98.1374H62.9804V91.3462H61.6053Z" fill="white"></path><path fill-rule="evenodd" clip-rule="evenodd" d="M67.7138 95.3486C67.7138 93.412 68.6007 92.4516 69.4929 92.4516C70.3799 92.4516 71.272 93.412 71.272 95.3486C71.272 97.2957 70.3799 98.2562 69.4929 98.2562C68.6007 98.2562 67.7138 97.2957 67.7138 95.3486ZM72.6683 95.3486C72.6683 92.9554 71.2983 91.2129 69.4929 91.2129C67.6875 91.2129 66.3127 92.9554 66.3127 95.3486C66.3127 97.7417 67.6875 99.5 69.4929 99.5C71.2983 99.4947 72.6683 97.7417 72.6683 95.3486Z" fill="white"></path><path fill-rule="evenodd" clip-rule="evenodd" d="M77.5018 92.4622C78.1736 92.4622 78.8086 92.8137 79.1969 93.3543L79.9423 92.6092C79.4228 91.696 78.4467 91.2129 77.3708 91.2129C75.2925 91.2129 73.886 93.0762 73.886 95.3592C73.886 97.6421 75.1823 99.4945 77.1661 99.4945C77.9008 99.4945 78.5881 99.2426 79.0762 98.7965L79.4122 99.3581H79.9318V95.2592H77.5175V96.3509H78.6354V97.768C78.2995 98.1301 77.8534 98.3087 77.3391 98.3087C76.2107 98.3087 75.2871 97.2117 75.2871 95.3486C75.2818 93.5222 76.2842 92.4622 77.5018 92.4622Z" fill="white"></path><path fill-rule="evenodd" clip-rule="evenodd" d="M85.6523 95.5533H82.9388V94.3726C82.9388 93.1077 83.5163 92.4622 84.2983 92.4622C85.0802 92.4622 85.6574 93.113 85.6574 94.3726L85.6523 95.5533ZM84.2928 91.2129C82.7551 91.2129 81.5637 92.3885 81.5637 94.4091V99.3581H82.9337V96.7759H85.6468V99.3581H87.022V94.4091C87.0272 92.3885 85.8358 91.2129 84.2928 91.2129Z" fill="white"></path><path fill-rule="evenodd" clip-rule="evenodd" d="M92.9788 96.5892L89.6461 91.3462H88.7592V99.3655H89.961V94.1224L93.2882 99.3655H94.1806V91.3462H92.9788V96.5892Z" fill="white"></path></svg>