<svg xmlns="http://www.w3.org/2000/svg" width="111" height="100" viewBox="0 0 111 100" fill="none"><path fill-rule="evenodd" clip-rule="evenodd" d="M1.61133 77.6321V91.7995H8.98256V89.6357H4.03079V77.6321H1.61133Z" fill="#314E52"></path><path fill-rule="evenodd" clip-rule="evenodd" d="M13.2515 85.0658V82.9858C13.2515 80.7532 14.2693 79.6074 15.6511 79.6074C17.033 79.6074 18.0508 80.7532 18.0508 82.9858V85.0658H13.2515ZM20.4702 91.798V83.0446C20.4702 79.4794 18.3656 77.3944 15.6511 77.3944C12.9366 77.3944 10.832 79.4794 10.832 83.0446V91.798H13.2563V87.2295H18.0559V91.798H20.4702Z" fill="#314E52"></path><path fill-rule="evenodd" clip-rule="evenodd" d="M30.3242 82.3921L33.0633 91.888H34.5286L39.0332 77.6321H36.5696L33.8059 87.1082L31.0668 77.6321H29.5816L26.8425 87.1082L24.0788 77.6321H21.6152L26.1198 91.888H27.5851L30.3242 82.3921Z" fill="#314E52"></path><path fill-rule="evenodd" clip-rule="evenodd" d="M47.4424 84.7065C47.4424 81.2888 49.011 79.5872 50.5846 79.5872C52.1582 79.5872 53.7319 81.2888 53.7319 84.7065C53.7319 88.1488 52.1631 89.8455 50.5846 89.8455C49.011 89.8455 47.4424 88.1488 47.4424 84.7065ZM56.1907 84.7065C56.1907 80.4823 53.7712 77.3992 50.5846 77.3992C47.398 77.3992 44.9785 80.4774 44.9785 84.7065C44.9785 88.9356 47.398 92.0336 50.5846 92.0336C53.7712 92.0336 56.1907 88.9306 56.1907 84.7065Z" fill="#314E52"></path><path fill-rule="evenodd" clip-rule="evenodd" d="M66.4105 79.8006V77.6321H58.7832V91.7995H61.2075V85.1117H65.9629V82.9428H61.2075V79.8006H66.4105Z" fill="#314E52"></path><path fill-rule="evenodd" clip-rule="evenodd" d="M76.2656 79.8006V77.6321H68.6387V91.7995H71.0581V85.1117H75.8181V82.9428H71.0581V79.8006H76.2656Z" fill="#314E52"></path><path fill-rule="evenodd" clip-rule="evenodd" d="M78.1543 90.0145V91.7995H84.5026V90.0145H82.5307V79.417H84.5026V77.6321H78.1543V79.417H80.1064V90.0145H78.1543Z" fill="#314E52"></path><path fill-rule="evenodd" clip-rule="evenodd" d="M92.1038 79.607C93.2939 79.607 94.1447 80.2218 94.843 81.1807L96.1561 79.8627C95.2857 78.2695 93.8004 77.3992 91.8874 77.3992C88.4058 77.3992 86.1094 80.6939 86.1094 84.7263C86.1094 88.7587 88.4058 92.0336 91.8874 92.0336C93.8004 92.0336 95.2414 91.1633 96.1561 89.57L94.843 88.2767C94.1397 89.211 93.289 89.8257 92.1038 89.8257C90.2155 89.8257 88.5781 87.9768 88.5781 84.7263C88.5781 81.4758 90.2155 79.607 92.1038 79.607Z" fill="#314E52"></path><path fill-rule="evenodd" clip-rule="evenodd" d="M105.889 79.8006V77.6321H98.3945V91.7995H106.105V89.6357H100.814V85.1117H105.294V82.9428H100.814V79.8006H105.889Z" fill="#314E52"></path><path fill-rule="evenodd" clip-rule="evenodd" d="M70.0106 62.6562C69.8188 62.0907 69.2926 61.7071 68.6926 61.7071H67.8615V59.5731H38.843V61.7071H38.43C37.835 61.7071 37.299 62.0907 37.1121 62.6562L35.5679 71.2325H0.0878906V73.5142H110.143V71.2325H71.5596L70.0106 62.6562Z" fill="#314E52"></path><path fill-rule="evenodd" clip-rule="evenodd" d="M38.4934 41.1472C38.6951 41.3538 39.0295 41.3538 39.236 41.1472L39.8456 40.5374C40.0472 40.3308 40.0472 40.0013 39.8456 39.7948L32.725 32.6742C32.5184 32.4677 32.189 32.4677 31.9824 32.6742L31.3728 33.2841C31.1663 33.4906 31.1663 33.8201 31.3728 34.0266L31.8153 34.469L30.8416 35.8116L30.8269 35.7969C30.6105 35.5805 30.2566 35.5805 30.0402 35.7969L29.9024 35.9347C29.6811 36.151 29.6811 36.505 29.9024 36.7213L29.9565 36.7805L29.2631 37.4738C28.7665 37.9705 28.7665 38.7768 29.2631 39.2734L33.1431 43.1534C33.6398 43.6501 34.4461 43.6501 34.9427 43.1534L35.6364 42.4601L35.7937 42.6177C36.0149 42.8389 36.3641 42.8389 36.5854 42.6177L36.7229 42.4799C36.8753 42.3225 36.9147 42.1012 36.8508 41.9045L38.2476 40.8963L38.4934 41.1472Z" fill="#314E52"></path><path fill-rule="evenodd" clip-rule="evenodd" d="M41.8765 23.5288C41.67 23.3223 41.3356 23.3223 41.1339 23.5288L40.524 24.1336C40.3175 24.3402 40.3175 24.6697 40.524 24.8762L47.6447 31.992C47.8512 32.1985 48.1807 32.1985 48.3872 31.992L48.9971 31.3872C49.1987 31.1807 49.1987 30.8512 48.9971 30.6447L48.7513 30.3985L49.7592 29.002C49.9509 29.0708 50.1773 29.0315 50.3297 28.8741L50.4675 28.7366C50.6888 28.5203 50.6888 28.166 50.4675 27.9497L50.315 27.7924L51.0084 27.0991C51.505 26.6024 51.505 25.7958 51.0084 25.2991L47.1284 21.4191C46.6317 20.9225 45.8251 20.9225 45.3284 21.4191L44.6351 22.1125L44.5763 22.0536C44.3599 21.8373 44.0058 21.8373 43.7845 22.0536L43.6467 22.1911C43.4254 22.4075 43.4254 22.7616 43.6467 22.9829L43.6614 22.9976L42.3189 23.9665L41.8765 23.5288Z" fill="#314E52"></path><path fill-rule="evenodd" clip-rule="evenodd" d="M60.3217 54.4499C60.8381 54.9663 61.6741 54.9663 62.1904 54.4499C62.7068 53.9336 62.7068 53.0979 62.1904 52.5815L61.9839 52.3747H61.974L62.3774 51.9765C62.3627 51.9519 62.3431 51.9323 62.3234 51.9077L56.0732 45.6575L60.5381 41.1923L57.863 38.5222L53.398 42.9872L48.982 38.5714L46.3116 41.2463L50.7277 45.6623L44.5267 51.8633C44.507 51.883 44.4923 51.9076 44.4727 51.9272L44.8658 52.3258L47.1328 54.5928C47.1525 54.5731 47.1771 54.5582 47.1968 54.5385L53.398 48.3426L59.6482 54.5928C59.6679 54.6125 59.6925 54.6272 59.7122 54.6468L60.1104 54.2485V54.2584L60.3217 54.4499Z" fill="#314E52"></path><path fill-rule="evenodd" clip-rule="evenodd" d="M42.9741 39.781L44.0459 40.848C44.4491 41.2512 45.0935 41.2512 45.4968 40.848L48.6684 37.6764C49.0716 37.2731 49.0716 36.6238 48.6684 36.2255L47.6014 35.1585C47.2031 34.7602 46.5491 34.7602 46.1508 35.1585L45.8654 35.4436L44.6507 34.2289C45.4571 33.6831 46.3179 33.2062 47.2424 32.8276L39.8217 25.4071C38.5824 28.4511 36.3844 30.8753 33.5273 32.3899L40.2644 39.1222C40.7119 38.2764 41.2528 37.4943 41.8527 36.7714L43.2001 38.1188L42.9888 38.3304C42.5757 38.7287 42.5757 39.3777 42.9741 39.781Z" fill="#314E52"></path><path fill-rule="evenodd" clip-rule="evenodd" d="M66.2834 39.4418L73.7039 32.0211C70.6599 30.7819 68.2357 28.5837 66.7211 25.7217L59.984 32.4539C60.8348 32.9063 61.6118 33.4374 62.3396 34.0423L60.9922 35.3896L60.0528 34.4505L57.5352 36.9681L62.1577 41.5906L64.6804 39.0679L63.6671 38.0549L64.8818 36.8402C65.4276 37.6516 65.9048 38.5124 66.2834 39.4418Z" fill="#314E52"></path><path fill-rule="evenodd" clip-rule="evenodd" d="M64.6403 24.0185L63.298 23.05L63.7059 22.6367L62.7767 21.7074L62.3244 22.1597L60.908 20.7386C60.8096 20.6402 60.6573 20.6402 60.5589 20.7386L55.2281 26.0691C55.1297 26.1675 55.1297 26.3201 55.2281 26.4185L56.6444 27.8346L56.0937 28.3853L57.0181 29.3149L57.2345 29.0985L58.2082 30.441L57.5887 31.0605L58.936 32.4129L66.7992 24.5546L65.4468 23.2024L64.6403 24.0185Z" fill="#314E52"></path><path fill-rule="evenodd" clip-rule="evenodd" d="M70.762 43.0667L71.3128 42.5159L72.7288 43.9368C72.8272 44.0303 72.9796 44.0303 73.0779 43.9368L78.4136 38.6015C78.507 38.5031 78.507 38.3508 78.4136 38.2524L76.9924 36.8312L77.4447 36.3786L76.5203 35.4542L76.1073 35.8624L75.1336 34.5198L75.9449 33.7034L74.5975 32.3561L66.7344 40.2144L68.0817 41.5618L68.6964 40.9471L70.039 41.916L69.8226 42.1324L70.762 43.0667Z" fill="#314E52"></path><path fill-rule="evenodd" clip-rule="evenodd" d="M44.4293 54.1684L44.8916 54.6306C45.28 55.0191 45.9095 55.0191 46.298 54.6306L46.7407 54.1879L44.872 52.3192L44.4344 52.7619C44.041 53.1455 44.0408 53.775 44.4293 54.1684Z" fill="#314E52"></path><path fill-rule="evenodd" clip-rule="evenodd" d="M10.5175 47.0388V45.9274H6.66211V53.2104H10.6258V52.0989H7.90621V49.7728H10.2125V48.6566H7.90621V47.0388H10.5175Z" fill="#314E52"></path><path fill-rule="evenodd" clip-rule="evenodd" d="M13.6945 52.2712C13.1044 52.2712 12.5388 52.0844 11.8504 51.6418L11.4668 52.5023C12.0569 53.0285 12.8732 53.3334 13.6945 53.3334C14.9829 53.3334 16.0746 52.6106 16.0746 51.1796C16.0746 49.9158 15.0911 49.4192 13.9355 48.9225C13.247 48.6176 12.7553 48.3421 12.7553 47.7864C12.7553 47.2308 13.193 46.8668 13.8815 46.8668C14.3929 46.8668 14.9387 47.0979 15.5091 47.5208L15.878 46.6702C15.3223 46.1145 14.5994 45.8097 13.8322 45.8097C12.5979 45.8097 11.5604 46.5965 11.5604 47.821C11.5604 48.9569 12.3128 49.5569 13.2767 49.9847C14.1717 50.3781 14.8698 50.6928 14.8698 51.2927C14.8747 51.9763 14.3633 52.2712 13.6945 52.2712Z" fill="#314E52"></path><path fill-rule="evenodd" clip-rule="evenodd" d="M19.6593 53.2104V47.0388H21.5967V45.9274H16.4727V47.0388H18.4152V53.2104H19.6593Z" fill="#314E52"></path><path fill-rule="evenodd" clip-rule="evenodd" d="M21.6406 52.556C21.6406 52.9789 21.9896 53.3328 22.4174 53.3328C22.8452 53.3328 23.1945 52.9838 23.1945 52.556C23.1945 52.1282 22.8452 51.7789 22.4174 51.7789C21.9896 51.7789 21.6406 52.1331 21.6406 52.556Z" fill="#314E52"></path><path fill-rule="evenodd" clip-rule="evenodd" d="M85.2841 52.2769V53.1966H88.5544V52.2769H87.5415V45.7905H86.9907L84.8516 47.6592L85.122 48.1413L86.2923 47.6346V52.2769H85.2841Z" fill="#314E52"></path><path fill-rule="evenodd" clip-rule="evenodd" d="M91.9709 49.4838C91.2726 49.4838 90.6923 48.9672 90.6923 48.1755C90.6923 47.3788 91.2726 46.8626 91.9709 46.8626C92.6692 46.8626 93.2495 47.3788 93.2495 48.1755C93.2495 48.9672 92.6741 49.4838 91.9709 49.4838ZM91.602 53.1966L93.7313 50.0493C94.0706 49.5477 94.4639 48.8886 94.4639 48.1707C94.4639 46.8478 93.3379 45.7905 91.9757 45.7905C90.5988 45.7905 89.4824 46.8478 89.4824 48.1707C89.4824 49.5918 90.6726 50.6836 92.1036 50.4328L90.2004 53.1966H91.602Z" fill="#314E52"></path><path fill-rule="evenodd" clip-rule="evenodd" d="M97.9715 49.7443C98.6944 49.7443 99.2501 50.2362 99.2501 51.0082C99.2501 51.7704 98.6944 52.267 97.9715 52.267C97.2585 52.267 96.6929 51.7754 96.6929 51.0082C96.6929 50.2362 97.2634 49.7443 97.9715 49.7443ZM97.9715 46.784C98.5075 46.784 98.9353 47.1674 98.9353 47.7379C98.9353 48.2935 98.5075 48.6869 97.9715 48.6869C97.4453 48.6869 97.0225 48.2935 97.0225 47.7379C97.0225 47.1674 97.4453 46.784 97.9715 46.784ZM95.4785 51.0229C95.4785 52.3212 96.5946 53.3145 97.9715 53.3145C99.3583 53.3145 100.465 52.3212 100.465 51.0229C100.465 50.2263 100.052 49.5231 99.3828 49.1542C99.8303 48.8149 100.091 48.2936 100.091 47.7232C100.091 46.6315 99.1616 45.7905 97.9715 45.7905C96.7913 45.7905 95.8618 46.6315 95.8618 47.7232C95.8618 48.2936 96.1276 48.8297 96.5701 49.1542C95.9063 49.528 95.4785 50.2263 95.4785 51.0229Z" fill="#314E52"></path><path fill-rule="evenodd" clip-rule="evenodd" d="M102.978 53.1963L105.825 46.2576V45.9082H101.045V47.0247H104.295L101.729 53.1963H102.978Z" fill="#314E52"></path><path fill-rule="evenodd" clip-rule="evenodd" d="M25.5356 11.3136C24.7292 11.5448 23.9276 11.7856 23.1261 12.0364C22.4376 9.83331 21.7441 7.62558 21.0557 5.4176C20.682 5.53562 20.3132 5.65364 19.9395 5.77657C20.7558 8.28453 21.5672 10.7875 22.3835 13.2955C23.4949 12.9365 24.6111 12.5922 25.7274 12.2726C25.6881 11.9431 25.6192 11.6185 25.5356 11.3136Z" fill="#314E52"></path><path fill-rule="evenodd" clip-rule="evenodd" d="M30.546 11.0267C30.5214 10.6972 30.4724 10.3823 30.3987 10.0725C29.5037 10.279 28.6134 10.5005 27.7184 10.7316C27.4922 9.86613 27.266 8.99576 27.0397 8.13027C27.6938 7.95816 28.3479 7.7957 29.0069 7.63833C28.9331 7.32853 28.8593 7.0237 28.7905 6.71389C28.1266 6.87125 27.4628 7.0336 26.8038 7.21063C26.6071 6.45333 26.4105 5.69603 26.2138 4.94364C27.094 4.71252 27.9693 4.49605 28.8544 4.29443C28.8298 3.97479 28.7807 3.63563 28.7118 3.34058C27.4185 3.64055 26.1302 3.9651 24.8418 4.31424C25.5352 6.85662 26.2236 9.40374 26.917 11.9412C28.1267 11.6068 29.3363 11.307 30.546 11.0267Z" fill="#314E52"></path><path fill-rule="evenodd" clip-rule="evenodd" d="M33.0102 3.301C33.5118 3.20756 34.1706 3.25206 34.5787 3.41925C34.6033 3.09469 34.6229 2.71116 34.5835 2.40627C34.0819 2.22924 33.3739 2.23884 32.7887 2.35194C30.9397 2.70109 29.9315 4.10258 30.5757 6.94984C31.2101 9.78235 32.4938 10.6973 34.2543 10.358C34.8886 10.235 35.5819 9.87602 35.9507 9.52688C35.7441 8.33191 35.5376 7.13693 35.336 5.94196C34.6328 6.0649 33.9346 6.18785 33.2314 6.32554C33.2904 6.63535 33.3839 6.96458 33.497 7.24488C33.8068 7.18587 34.1166 7.12711 34.4314 7.0681C34.5543 7.74672 34.6772 8.43015 34.805 9.10878C34.6133 9.26122 34.3573 9.34492 34.0967 9.39902C32.9853 9.61047 32.2283 8.99558 31.7562 6.74334C31.2497 4.36325 31.8005 3.53704 33.0102 3.301Z" fill="#314E52"></path><path fill-rule="evenodd" clip-rule="evenodd" d="M38.2377 6.26249C38.3263 5.25439 38.4196 4.24634 38.5229 3.23824C38.5376 3.06121 38.5279 2.81526 38.5181 2.61364C38.5427 2.60872 38.567 2.60865 38.5916 2.60374C38.6309 2.80044 38.7049 3.03641 38.7639 3.20853C39.1327 4.15761 39.4867 5.1018 39.8408 6.05089C39.3048 6.11481 38.7737 6.18872 38.2377 6.26249ZM37.7509 1.65468C37.3427 4.38884 37.1115 7.10818 36.9492 9.69973C37.1951 9.72924 37.7115 9.70966 37.9721 9.67032C38.0311 8.83925 38.0951 8.01308 38.1639 7.18693C38.8278 7.08858 39.4966 7.0001 40.1605 6.9165C40.4457 7.69839 40.726 8.48023 41.0063 9.26212C41.3603 9.21787 41.8177 9.10955 42.0685 9.0112C41.2276 6.55243 40.2835 3.99543 39.1721 1.46289C38.6951 1.5219 38.223 1.58584 37.7509 1.65468Z" fill="#314E52"></path><path fill-rule="evenodd" clip-rule="evenodd" d="M46.6754 7.71691C45.8443 7.76608 45.0182 7.82515 44.192 7.89399C44.0002 5.59258 43.8034 3.29132 43.6067 0.984985C43.2232 1.01449 42.8347 1.04889 42.4512 1.08823C42.7069 3.71421 42.9527 6.33515 43.2084 8.9562C44.3591 8.84802 45.51 8.7545 46.6607 8.69057C46.6902 8.36602 46.6951 8.03655 46.6754 7.71691Z" fill="#314E52"></path><path fill-rule="evenodd" clip-rule="evenodd" d="M51.1646 7.70944C50.6581 7.71927 50.2008 7.61109 49.714 7.35046C49.6501 7.63568 49.5762 7.9748 49.5516 8.31903C50.0385 8.57474 50.6777 8.6535 51.1793 8.64859C52.4185 8.63383 53.3922 7.81268 53.407 6.39151C53.4365 3.97207 50.5599 4.09501 50.5304 2.63941C50.5156 1.9362 50.8501 1.44927 51.6811 1.43943C52.0893 1.43452 52.6252 1.51808 53.0186 1.64593C53.0973 1.34104 53.1515 0.932897 53.1663 0.672267C52.7581 0.554246 52.1384 0.495367 51.7106 0.500285C50.4074 0.51012 49.3353 1.27208 49.3844 2.75226C49.4631 5.02417 52.3054 4.78834 52.3054 6.47014C52.3054 7.2422 51.858 7.6996 51.1646 7.70944Z" fill="#314E52"></path><path fill-rule="evenodd" clip-rule="evenodd" d="M58.7969 1.76782C58.8657 1.45802 58.9101 1.11855 58.9346 0.813664C57.6167 0.730066 56.2989 0.67599 54.9761 0.646484C54.9121 3.27738 54.853 5.91808 54.7891 8.54897C56.0283 8.57847 57.2627 8.62786 58.497 8.70654C58.5659 8.38198 58.61 8.06711 58.6297 7.75239C57.72 7.69829 56.8102 7.65415 55.8906 7.61972C55.9201 6.72473 55.9547 5.82963 55.9842 4.93464C56.653 4.95923 57.3216 4.98876 57.9904 5.02318C58.0101 4.70846 58.0251 4.38885 58.0447 4.07413C57.371 4.03479 56.6922 4.00525 56.0185 3.98558C56.043 3.20369 56.0725 2.42185 56.0971 1.63996C57.0019 1.66947 57.9019 1.70881 58.7969 1.76782Z" fill="#314E52"></path><path fill-rule="evenodd" clip-rule="evenodd" d="M63.4656 3.44932C63.3575 4.47709 62.8608 4.90495 62.0691 4.83119C61.8134 4.8066 61.5576 4.78212 61.3019 4.76245C61.3855 3.78878 61.474 2.81483 61.5576 1.84115C61.774 1.83624 61.9951 1.84628 62.2705 1.87087C63.1655 1.94955 63.5738 2.45598 63.4656 3.44932ZM62.3149 0.990547C61.8772 0.951207 61.1446 0.941442 60.4807 1.00045C60.284 3.60184 60.0873 6.2031 59.8906 8.80449C60.2447 8.82908 60.5937 8.85872 60.9477 8.88823C61.0412 7.80637 61.1345 6.72445 61.2329 5.63767C61.5279 5.66226 61.8231 5.69161 62.1132 5.72111C62.4181 6.14894 62.6247 6.67035 62.9149 7.84073C63.0231 8.28331 63.1262 8.72587 63.2294 9.17336C63.5245 9.20779 64.0508 9.21767 64.3361 9.15866C64.1984 8.56855 64.0508 7.97341 63.9032 7.38331C63.6721 6.43422 63.4506 5.9523 63.0917 5.47529C63.8342 5.27859 64.4981 4.72304 64.6407 3.52316C64.8325 1.91512 63.8983 1.13807 62.3149 0.990547Z" fill="#314E52"></path><path fill-rule="evenodd" clip-rule="evenodd" d="M67.5813 7.63892C67.4289 5.62272 67.252 3.60643 67.0504 1.58532C66.6668 1.53123 66.1504 1.4968 65.875 1.52139C66.1356 4.25063 66.4551 6.96032 66.7895 9.57154C67.178 9.63055 67.5665 9.6895 67.955 9.75343C69.0664 7.3635 70.1876 4.88029 71.2596 2.35759C71.0383 2.25924 70.5515 2.13626 70.1926 2.07725C69.3861 3.93609 68.5991 5.80975 67.8418 7.68334C67.7632 7.87512 67.6943 8.07656 67.65 8.29293C67.6255 8.28801 67.6011 8.28794 67.5765 8.28303C67.6011 8.05682 67.601 7.84054 67.5813 7.63892Z" fill="#314E52"></path><path fill-rule="evenodd" clip-rule="evenodd" d="M73.7431 2.77655C73.3645 2.69786 72.9858 2.6243 72.6023 2.55054C72.1007 5.13717 71.5992 7.72382 71.0977 10.3105C71.4468 10.3793 71.8008 10.448 72.15 10.5218C72.6811 7.94004 73.212 5.35334 73.7431 2.77655Z" fill="#314E52"></path><path fill-rule="evenodd" clip-rule="evenodd" d="M79.6293 4.44343C79.3441 4.10903 78.6654 3.78934 78.1097 3.65165C76.3787 3.2189 75.0165 4.09414 74.3969 6.94633C73.7724 9.81326 74.4905 11.1361 76.1576 11.5541C76.669 11.682 77.3573 11.6918 77.8786 11.4656C77.9278 11.1804 77.9575 10.7969 77.9476 10.4625C77.451 10.6789 76.8999 10.7328 76.4082 10.6099C75.2772 10.3247 75.0806 9.30175 75.5576 7.23146C76.0838 4.96939 76.8017 4.32532 77.9032 4.6007C78.3999 4.72364 78.8523 4.98428 79.1818 5.34326C79.3588 5.0482 79.5211 4.7434 79.6293 4.44343Z" fill="#314E52"></path><path fill-rule="evenodd" clip-rule="evenodd" d="M84.5855 6.62053C84.733 6.33531 84.8609 6.02044 84.9544 5.7303C83.6807 5.31723 82.4071 4.93385 81.1236 4.56995C80.4057 7.1074 79.6877 9.63993 78.9746 12.1774C80.1745 12.5167 81.3743 12.8803 82.5643 13.2639C82.7119 12.9689 82.8299 12.674 82.9332 12.374C82.053 12.0888 81.1726 11.8133 80.2874 11.5576C80.5382 10.697 80.7939 9.83651 81.0447 8.98086C81.6938 9.17264 82.3432 9.36921 82.9923 9.57574C83.0858 9.27577 83.184 8.9709 83.2775 8.66601C82.6234 8.45947 81.9695 8.2581 81.3154 8.06632C81.5318 7.31885 81.753 6.56631 81.9742 5.81884C82.8447 6.07456 83.7151 6.34514 84.5855 6.62053Z" fill="#314E52"></path><path fill-rule="evenodd" clip-rule="evenodd" d="M0.0820312 99.5H110.137V97.2183H0.0820312V99.5Z" fill="#314E52"></path></svg>