<svg xmlns="http://www.w3.org/2000/svg" width="91" height="100" viewBox="0 0 91 100" fill="none"><path fill-rule="evenodd" clip-rule="evenodd" d="M2.01355 60.9795V72.405H8.19469V70.6571H4.04358V60.9795H2.01355Z" fill="white"></path><path fill-rule="evenodd" clip-rule="evenodd" d="M11.7719 66.9754V65.2958C11.7719 63.4941 12.6294 62.5714 13.7865 62.5714C14.9435 62.5714 15.8013 63.4941 15.8013 65.2958V66.9754H11.7719ZM17.8261 72.4049V65.3447C17.8261 62.4639 16.0601 60.7842 13.7815 60.7842C11.5029 60.7842 9.73694 62.4639 9.73694 65.3447V72.4049H11.7667V68.7185H15.7911V72.4049H17.8261Z" fill="white"></path><path fill-rule="evenodd" clip-rule="evenodd" d="M26.7128 60.9795H25.4645L23.1706 68.6208L20.8516 60.9795H18.7863L22.5617 72.4732H23.795L26.0887 64.8173L28.3875 72.4732H29.6156L33.3914 60.9795H31.3257L29.0117 68.6208L26.7128 60.9795Z" fill="white"></path><path fill-rule="evenodd" clip-rule="evenodd" d="M45.7126 66.6825C45.7126 69.4608 44.3932 70.8327 43.0789 70.8327C41.7594 70.8327 40.4449 69.4608 40.4449 66.6825C40.4449 63.9239 41.7645 62.5566 43.0789 62.5566C44.3983 62.5566 45.7126 63.9239 45.7126 66.6825ZM38.3795 66.6825C38.3795 70.0955 40.4095 72.5954 43.0789 72.5954C45.7482 72.5954 47.7779 70.0955 47.7779 66.6825C47.7779 63.2745 45.7482 60.7891 43.0789 60.7891C40.4045 60.7891 38.3795 63.2745 38.3795 66.6825Z" fill="white"></path><path fill-rule="evenodd" clip-rule="evenodd" d="M56.3447 62.7276V60.9795H49.9508V72.405H51.9805V67.0098H55.9693V65.2616H51.9805V62.7276H56.3447Z" fill="white"></path><path fill-rule="evenodd" clip-rule="evenodd" d="M64.6066 62.7276V60.9795H58.2124V72.405H60.2421V67.0098H64.2362V65.2616H60.2421V62.7276H64.6066Z" fill="white"></path><path fill-rule="evenodd" clip-rule="evenodd" d="M71.5176 62.4201V60.9795H66.1941V62.4201H67.828V70.9695H66.1941V72.405H71.5176V70.9695H69.858V62.4201H71.5176Z" fill="white"></path><path fill-rule="evenodd" clip-rule="evenodd" d="M77.8915 62.5715C78.8862 62.5715 79.5966 63.0644 80.1904 63.8407L81.2968 62.7765C80.566 61.4924 79.3177 60.7891 77.714 60.7891C74.796 60.7891 72.8676 63.4452 72.8676 66.7019C72.8676 69.9586 74.791 72.5954 77.714 72.5954C79.3177 72.5954 80.5254 71.8924 81.2968 70.6083L80.1904 69.5631C79.6017 70.3151 78.8912 70.8133 77.8915 70.8133C76.3082 70.8133 74.9329 69.3239 74.9329 66.7019C74.9329 64.0799 76.3082 62.5715 77.8915 62.5715Z" fill="white"></path><path fill-rule="evenodd" clip-rule="evenodd" d="M89.4475 62.7276V60.9795H83.165V72.405H89.6253V70.6571H85.1951V67.0098H88.9503V65.2616H85.1951V62.7276H89.4475Z" fill="white"></path><path fill-rule="evenodd" clip-rule="evenodd" d="M90.9998 76.3403H0.141357V78.6061H90.9998V76.3403Z" fill="white"></path><path fill-rule="evenodd" clip-rule="evenodd" d="M90.9998 54.8286H0.141357V57.0941H90.9998V54.8286Z" fill="white"></path><path fill-rule="evenodd" clip-rule="evenodd" d="M54.116 31.4844C54.116 30.713 54.7654 30.088 55.5621 30.088C56.3639 30.088 57.0136 30.713 57.0136 31.4844C57.0136 32.2559 56.3639 32.8759 55.5621 32.8759C54.7654 32.8759 54.116 32.251 54.116 31.4844ZM35.5728 32.8759C34.771 32.8759 34.1214 32.251 34.1214 31.4844C34.1214 30.713 34.771 30.088 35.5728 30.088C36.3747 30.088 37.0243 30.713 37.0243 31.4844C37.0243 32.251 36.3747 32.8759 35.5728 32.8759ZM59.6017 31.4844C59.6017 29.341 57.7952 27.6025 55.5674 27.6025H35.5778C33.35 27.6025 31.5435 29.3361 31.5435 31.4844C31.5435 33.6279 33.35 35.3661 35.5778 35.3661C37.8056 35.3661 39.6121 33.6279 39.6121 31.4844H51.538C51.538 33.6279 53.3445 35.3661 55.5724 35.3661C57.7951 35.3661 59.6017 33.623 59.6017 31.4844Z" fill="white"></path><path fill-rule="evenodd" clip-rule="evenodd" d="M37.9122 35.5617V53.1489H44.9864V32.4517H40.4648C40.0131 34.0873 39.3788 35.0979 37.9122 35.5617Z" fill="white"></path><path fill-rule="evenodd" clip-rule="evenodd" d="M50.742 32.4565H46.1542V53.1541H53.2233V35.5669C51.5334 35.0152 51.1988 34.0483 50.742 32.4565Z" fill="white"></path><path fill-rule="evenodd" clip-rule="evenodd" d="M37.9122 80.5747V93.6407L45.4584 99.5L53.2279 93.6407V80.5747H46.1534V89.6417L45.5699 89.9642L44.9864 89.6417V80.5747H37.9122Z" fill="white"></path><path fill-rule="evenodd" clip-rule="evenodd" d="M61.9927 23.258C62.2312 23.3556 62.4494 23.4482 62.759 23.5605C63.3324 23.7704 63.8551 23.9121 64.3981 24.0391C65.4689 24.2881 66.5194 24.4297 67.5293 24.5079C69.5439 24.669 71.4012 24.5956 72.9794 24.4637C74.2481 24.3514 75.3342 24.1905 76.1868 24.0245C76.6739 24.8301 77.5721 25.3721 78.6074 25.3721C80.1501 25.3721 81.4037 24.1708 81.4037 22.6816C81.4037 21.1973 80.1552 19.9915 78.6074 19.9915C77.0646 19.9915 75.8163 21.1974 75.8163 22.6769C75.0297 22.7306 74.0453 22.7598 72.9187 22.7305C71.4166 22.6866 69.6656 22.5499 67.8641 22.1935C66.9659 22.0177 66.0576 21.7881 65.1898 21.4756C64.7635 21.3242 64.3167 21.1436 63.9564 20.9532C63.794 20.875 63.5556 20.7432 63.3323 20.6212L62.6726 20.2454C60.8152 19.2103 58.8463 18.3217 56.9077 17.6625C54.9742 16.9936 53.0762 16.554 51.4015 16.3197C50.8128 16.2367 50.2497 16.178 49.727 16.134L49.2854 10.2602C50.5388 9.23484 51.3256 7.76047 51.3256 6.11991C51.3256 3.01456 48.519 0.5 45.058 0.5C41.5971 0.5 38.7961 3.01944 38.7961 6.11991C38.7961 7.76047 39.5876 9.23484 40.836 10.2602L40.3996 16.1146C39.8007 16.1586 39.1562 16.222 38.4711 16.3197C36.7965 16.554 34.8984 16.9936 32.9649 17.6625C31.0264 18.3217 29.0523 19.2103 27.2001 20.2454L26.5456 20.6212C26.3223 20.7432 26.0835 20.875 25.9212 20.9532C25.5558 21.1387 25.1144 21.3193 24.6881 21.4756C23.8203 21.7881 22.912 22.0177 22.0138 22.1935C20.2123 22.5499 18.4613 22.6866 16.9592 22.7305C15.929 22.7598 15.0155 22.7354 14.2644 22.6915V22.6816C14.2644 21.1973 13.0112 19.9915 11.4684 19.9915C9.92571 19.9915 8.67212 21.1973 8.67212 22.6816C8.67212 24.166 9.92064 25.3721 11.4684 25.3721C12.4885 25.3721 13.3765 24.8447 13.8636 24.0635C14.6858 24.2149 15.716 24.3612 16.8985 24.4637C18.4767 24.5956 20.3339 24.669 22.3486 24.5079C23.3585 24.4297 24.409 24.2881 25.4798 24.0391C26.0228 23.9121 26.5404 23.7704 27.1189 23.5605C27.4285 23.4482 27.6467 23.3555 27.8852 23.2628L28.6007 22.965C30.4175 22.2326 32.2901 21.6614 34.0561 21.3C35.8221 20.9339 37.4816 20.7678 38.8772 20.7434C39.2984 20.7336 39.6891 20.7433 40.0545 20.758L39.6029 26.8466H50.5237L50.0668 20.7481C50.3612 20.7384 50.6709 20.7336 50.9957 20.7434C52.3964 20.7629 54.0508 20.929 55.8168 21.3C57.5828 21.6614 59.4501 22.2326 61.2719 22.965L61.9927 23.258Z" fill="white"></path><path fill-rule="evenodd" clip-rule="evenodd" d="M29.1385 43.6918H20.1815V31.6024L29.1385 43.6918ZM19.7045 31.6071V43.6966H10.7475L19.7045 31.6071ZM10.1438 43.7163H9.09314V45.9377H10.4938L11.7928 50.0002C12.0669 50.8546 12.8179 51.4306 13.6553 51.4306H26.3016C27.144 51.4306 27.89 50.8546 28.1641 50.0002L29.4631 45.9377H30.8436V43.7163H29.7372L20.1765 30.8162V29.4588C20.8565 29.3465 21.374 28.7852 21.374 28.1016C21.374 27.4181 20.8565 26.8516 20.1765 26.7442V24.6006H19.6995V26.7442C19.0195 26.8516 18.5018 27.4181 18.5018 28.1016C18.5018 28.7852 19.0195 29.3515 19.6995 29.4638V30.821L10.1438 43.7163Z" fill="white"></path><path fill-rule="evenodd" clip-rule="evenodd" d="M70.3194 31.6071V43.6966H61.3624L70.3194 31.6071ZM79.7482 43.6918H70.7915V31.6024L79.7482 43.6918ZM62.4078 50.0002C62.6818 50.8546 63.4329 51.4306 64.2702 51.4306H76.9116C77.754 51.4306 78.5 50.8546 78.774 50.0002L80.078 45.9377H81.4585V43.7163H80.3522L70.7915 30.8162V29.4588C71.4715 29.3465 71.9889 28.7852 71.9889 28.1016C71.9889 27.4181 71.4715 26.8516 70.7915 26.7442V24.6006H70.3145V26.7442C69.6344 26.8516 69.1167 27.4181 69.1167 28.1016C69.1167 28.7852 69.6344 29.3515 70.3145 29.4638V30.821L60.7534 43.721H59.7031V45.9427H61.1038L62.4078 50.0002Z" fill="white"></path></svg>