<svg xmlns="http://www.w3.org/2000/svg" width="117" height="100" viewBox="0 0 117 100" fill="none"><path fill-rule="evenodd" clip-rule="evenodd" d="M31.4964 28.1841V41.8346H21.7663L31.4964 28.1841ZM41.7512 41.8346H32.0214V28.1894L41.7512 41.8346ZM96.7994 41.8346H87.0693V28.1841L96.7994 41.8346ZM86.5394 28.1894V41.8346H76.8039L86.5394 28.1894ZM22.8999 48.9668C23.199 49.9377 24.0126 50.5831 24.9311 50.5831H38.6758C39.589 50.5831 40.4027 49.9325 40.7019 48.9668L42.1186 44.3746H43.6197V41.8608H42.4233L32.0265 27.2814V25.749C32.7613 25.623 33.328 24.9879 33.328 24.2164C33.328 23.4449 32.7613 22.8046 32.0265 22.6787V20.3538C32.4779 20.338 32.9346 20.3118 33.4017 20.2699C34.53 20.1754 35.7055 20.0179 36.9073 19.724C37.5108 19.5771 38.0934 19.4144 38.7389 19.1678C39.0853 19.0418 39.3321 18.9368 39.5945 18.8214L40.3972 18.4802C42.4335 17.63 44.5171 16.9688 46.4904 16.5437C48.4637 16.1186 50.3165 15.9243 51.8805 15.8981C53.413 15.8718 54.6567 15.9979 55.4912 16.1396V52.4308H61.8153V16.1396C62.6498 15.9979 63.8935 15.8718 65.426 15.8981C66.9847 15.9243 68.8426 16.1186 70.8106 16.5437C72.7839 16.9688 74.8726 17.6248 76.9089 18.4802L77.712 18.8214C77.9744 18.9316 78.2209 19.0418 78.5672 19.1678C79.2128 19.4092 79.7955 19.5771 80.4043 19.724C81.6009 20.0127 82.7764 20.1754 83.9048 20.2699C84.8232 20.3486 85.6997 20.38 86.5551 20.38V22.6736C85.8151 22.7943 85.2533 23.4345 85.2533 24.2113C85.2533 24.9828 85.8204 25.623 86.5551 25.7437V27.2761L76.1533 41.8556H75.0142V44.3695H76.5415L77.9532 48.9617C78.2523 49.9326 79.0659 50.578 79.9844 50.578H93.7294C94.6426 50.578 95.4558 49.9273 95.7497 48.9617L97.1668 44.3695H98.6678V41.8556H97.466L87.0693 27.2761V25.7437C87.804 25.6177 88.3656 24.9828 88.3656 24.2113C88.3656 23.4398 87.804 22.7995 87.0693 22.6736V20.3748C88.1136 20.359 89.0845 20.3013 89.982 20.2226C91.7453 20.0652 93.2044 19.8133 94.2173 19.5772C94.7316 19.4565 95.1358 19.3409 95.414 19.2464C95.5557 19.1992 95.666 19.1573 95.7394 19.1258C95.8182 19.0943 95.8548 19.0786 95.8548 19.0786C96.1959 18.9421 96.3585 18.5538 96.2273 18.2179C96.0961 17.903 95.7604 17.7402 95.4403 17.8242L95.3877 17.8399C95.3877 17.8399 95.3563 17.8451 95.3038 17.8609C95.2513 17.8766 95.1622 17.8977 95.0415 17.924C94.8053 17.9712 94.438 18.0393 93.9604 18.0918C92.9999 18.1968 91.5931 18.2755 89.9137 18.223C88.2396 18.1705 86.2768 18.0131 84.2667 17.5985C83.2643 17.3938 82.2464 17.1262 81.2807 16.7588C80.8031 16.5856 80.3098 16.3705 79.9004 16.1553C79.722 16.0661 79.4544 15.9139 79.2024 15.7722L78.4676 15.3366C76.3946 14.1347 74.1904 13.1009 72.0282 12.3347C69.8607 11.5632 67.7402 11.0489 65.8719 10.776C64.2922 10.5398 62.9067 10.4716 61.8099 10.4821V9.03869H62.7388C63.6362 9.03869 64.3657 8.30933 64.3657 7.40665V7.0655C64.3657 6.16282 63.631 5.4333 62.7388 5.4333H61.8099V2.39984C61.8099 1.3502 60.9544 0.5 59.91 0.5H57.3856C56.3359 0.5 55.4857 1.3502 55.4857 2.39984V5.42801H54.5568C53.6541 5.42801 52.9299 6.15753 52.9299 7.06022V7.40136C52.9299 8.30405 53.6541 9.03357 54.5568 9.03357H55.4857V10.4768C54.3889 10.4663 52.9982 10.5345 51.4237 10.7707C49.5554 11.0436 47.43 11.5579 45.2677 12.3294C43.1002 13.0956 40.896 14.1294 38.8177 15.3313L38.0829 15.7669C37.831 15.9086 37.5686 16.0608 37.3849 16.15C36.9808 16.3652 36.4822 16.5803 36.0046 16.7535C35.039 17.1156 34.0207 17.3833 33.0183 17.5932C31.0082 18.0078 29.0508 18.1654 27.3662 18.2179C25.6868 18.2651 24.2801 18.1915 23.325 18.0865C22.8421 18.0341 22.48 17.9712 22.2439 17.9187C22.1179 17.8924 22.034 17.8767 21.9815 17.8557C21.9238 17.84 21.8976 17.8348 21.8976 17.8348L21.8451 17.8189C21.5249 17.7349 21.1889 17.8977 21.0577 18.2126C20.9213 18.5537 21.0842 18.9368 21.4306 19.0733C21.4306 19.0733 21.462 19.0891 21.5408 19.1205C21.6247 19.152 21.7349 19.1939 21.8713 19.2411C22.1547 19.3356 22.5587 19.4564 23.0678 19.5719C24.0859 19.808 25.5397 20.0599 27.3031 20.2173C28.5574 20.3275 29.9693 20.4011 31.4913 20.3644V22.6683C30.7565 22.789 30.1949 23.4293 30.1949 24.206C30.1949 24.9775 30.7565 25.6177 31.4913 25.7384V27.2708L21.0946 41.8503H19.9609V44.3642H21.4828L22.8999 48.9668Z" fill="#314E52"></path><path fill-rule="evenodd" clip-rule="evenodd" d="M3.10938 63.2628V78.4932H11.0342V76.1629H5.71777V63.2628H3.10938Z" fill="#314E52"></path><path fill-rule="evenodd" clip-rule="evenodd" d="M15.6216 71.254V69.0181C15.6216 66.6197 16.7183 65.3866 18.1983 65.3866C19.6835 65.3866 20.7804 66.6197 20.7804 69.0181V71.254H15.6216ZM23.3888 78.4913V69.0812C23.3888 65.2448 21.1214 63.0092 18.2034 63.0092C15.2801 63.0092 13.0234 65.2448 13.0234 69.0812V78.4913H15.6267V73.5843H20.7855V78.4913H23.3888Z" fill="#314E52"></path><path fill-rule="evenodd" clip-rule="evenodd" d="M34.7763 63.2628H33.1756L30.2316 73.4497L27.2714 63.2628H24.6211L29.4599 78.5823H31.0343L33.9838 68.3745L36.9282 78.5823H38.4972L43.3414 63.2628H40.6911L37.7207 73.4497L34.7763 63.2628Z" fill="#314E52"></path><path fill-rule="evenodd" clip-rule="evenodd" d="M59.1442 70.8657C59.1442 74.5657 57.4544 76.3919 55.7645 76.3919C54.0745 76.3919 52.3899 74.5657 52.3899 70.8657C52.3899 67.1867 54.0798 65.3603 55.7645 65.3603C57.4544 65.3603 59.1442 67.1867 59.1442 70.8657ZM49.7344 70.8657C49.7344 75.4106 52.3372 78.7431 55.759 78.7431C59.1808 78.7431 61.7894 75.4106 61.7894 70.8657C61.7894 66.3208 59.1808 63.0092 55.759 63.0092C52.3372 63.0092 49.7344 66.3208 49.7344 70.8657Z" fill="#314E52"></path><path fill-rule="evenodd" clip-rule="evenodd" d="M72.7688 65.5932V63.2628H64.5762V78.4932H67.1794V71.2978H72.2912V68.9729H67.1794V65.5932H72.7688Z" fill="#314E52"></path><path fill-rule="evenodd" clip-rule="evenodd" d="M83.3641 65.5932V63.2628H75.1719V78.4932H77.7697V71.2978H82.8865V68.9729H77.7697V65.5932H83.3641Z" fill="#314E52"></path><path fill-rule="evenodd" clip-rule="evenodd" d="M92.223 65.1783V63.2628H85.4004V65.1783H87.4998V76.5722H85.4004V78.4932H92.223V76.5722H90.1027V65.1783H92.223Z" fill="#314E52"></path><path fill-rule="evenodd" clip-rule="evenodd" d="M100.4 65.3866C101.681 65.3866 102.589 66.0477 103.344 67.0763L104.756 65.6595C103.817 63.9486 102.221 63.0092 100.169 63.0092C96.4222 63.0092 93.9609 66.5463 93.9609 70.8865C93.9609 75.2268 96.4275 78.7431 100.169 78.7431C102.221 78.7431 103.775 77.8089 104.756 76.0927L103.344 74.7019C102.589 75.7043 101.676 76.3708 100.395 76.3708C98.3639 76.3708 96.6007 74.382 96.6007 70.892C96.6112 67.3915 98.3693 65.3866 100.4 65.3866Z" fill="#314E52"></path><path fill-rule="evenodd" clip-rule="evenodd" d="M115.216 65.5932V63.2628H107.154V78.4932H115.446V76.1629H109.757V71.2978H114.575V68.9729H109.757V65.5932H115.216Z" fill="#314E52"></path><path fill-rule="evenodd" clip-rule="evenodd" d="M7.73229 31.8792H5.51245V29.9741H7.39659V29.0661H5.51245V27.7436H7.64324V26.8357H4.49414V32.7871H7.73229V31.8792Z" fill="#314E52"></path><path fill-rule="evenodd" clip-rule="evenodd" d="M10.2461 32.0206C9.76325 32.0206 9.29616 31.8684 8.72935 31.501L8.41992 32.2096C8.90275 32.6399 9.56907 32.8866 10.2461 32.8866C11.2957 32.8866 12.1879 32.2988 12.1879 31.1285C12.1879 30.0946 11.3852 29.6905 10.4405 29.2812C9.87897 29.0293 9.47475 28.8088 9.47475 28.3522C9.47475 27.9009 9.83681 27.6017 10.3931 27.6017C10.8182 27.6017 11.2645 27.7906 11.7263 28.137L12.0252 27.439C11.5686 26.9824 10.9861 26.7357 10.3563 26.7357C9.34863 26.7357 8.4984 27.3759 8.4984 28.3783C8.4984 29.3073 9.11259 29.7955 9.89981 30.1419C10.6346 30.4673 11.2013 30.7243 11.2013 31.2177C11.2065 31.7792 10.7919 32.0206 10.2461 32.0206Z" fill="#314E52"></path><path fill-rule="evenodd" clip-rule="evenodd" d="M14.0986 32.7871H15.1169V27.7436H16.7019V26.8357H12.5137V27.7436H14.0986V32.7871Z" fill="#314E52"></path><path fill-rule="evenodd" clip-rule="evenodd" d="M17.3693 32.8849C17.7156 32.8849 17.999 32.6015 17.999 32.2499C17.999 31.9035 17.7156 31.6149 17.3693 31.6149C17.0176 31.6149 16.7344 31.8983 16.7344 32.2499C16.7344 32.6015 17.0229 32.8849 17.3693 32.8849Z" fill="#314E52"></path><path fill-rule="evenodd" clip-rule="evenodd" d="M100.117 28.2318V32.0262H99.2931V32.7767H101.964V32.0262H101.135V26.7203H100.689L98.9414 28.2475L99.1618 28.6412L100.117 28.2318Z" fill="#314E52"></path><path fill-rule="evenodd" clip-rule="evenodd" d="M104.756 27.5967C105.334 27.5967 105.801 28.0166 105.801 28.6674C105.801 29.3182 105.334 29.7379 104.756 29.7379C104.184 29.7379 103.712 29.3182 103.712 28.6674C103.717 28.0166 104.189 27.5967 104.756 27.5967ZM104.872 30.52L103.318 32.7767H104.462L106.205 30.2051C106.478 29.7958 106.798 29.2552 106.798 28.6674C106.798 27.5863 105.88 26.7203 104.762 26.7203C103.639 26.7203 102.73 27.5863 102.73 28.6674C102.725 29.8273 103.696 30.7247 104.872 30.52Z" fill="#314E52"></path><path fill-rule="evenodd" clip-rule="evenodd" d="M109.662 29.9532C110.25 29.9532 110.706 30.3573 110.706 30.987C110.706 31.6116 110.25 32.0158 109.657 32.0158C109.079 32.0158 108.618 31.6116 108.618 30.987C108.618 30.3573 109.084 29.9532 109.662 29.9532ZM109.662 27.5338C110.103 27.5338 110.444 27.8487 110.444 28.3106C110.444 28.7672 110.097 29.0872 109.657 29.0872C109.232 29.0872 108.88 28.7672 108.88 28.3106C108.885 27.8487 109.237 27.5338 109.662 27.5338ZM107.631 30.9976C107.631 32.0577 108.539 32.8712 109.662 32.8712C110.801 32.8712 111.704 32.0577 111.704 30.9976C111.704 30.3468 111.362 29.7747 110.817 29.4703C111.184 29.1922 111.394 28.7618 111.394 28.3C111.394 27.4078 110.638 26.7203 109.662 26.7203C108.701 26.7203 107.94 27.4078 107.94 28.3C107.94 28.7618 108.156 29.2027 108.523 29.4703C107.972 29.7747 107.626 30.3468 107.631 30.9976Z" fill="#314E52"></path><path fill-rule="evenodd" clip-rule="evenodd" d="M112.737 32.7745H113.756L116.081 27.1012V26.8177H112.176V27.7257H114.837L112.737 32.7745Z" fill="#314E52"></path><path fill-rule="evenodd" clip-rule="evenodd" d="M110.287 84.686H0.857422V87.5251H110.287V84.686Z" fill="#314E52"></path><path fill-rule="evenodd" clip-rule="evenodd" d="M110.287 57.7559H0.857422V60.5901H110.287V57.7559Z" fill="#314E52"></path><path fill-rule="evenodd" clip-rule="evenodd" d="M27.3511 94.8098L25.4983 91.3462H23.9922L26.6634 96.1536V99.3655H28.0385V96.1536L30.7046 91.3462H29.2035L27.3511 94.8098Z" fill="#314E52"></path><path fill-rule="evenodd" clip-rule="evenodd" d="M34.0215 98.2562C33.1345 98.2562 32.2424 97.2957 32.2424 95.3486C32.2424 93.412 33.1345 92.4516 34.0215 92.4516C34.9137 92.4516 35.8057 93.412 35.8057 95.3486C35.8057 97.2957 34.9137 98.2562 34.0215 98.2562ZM34.0215 91.2129C32.2161 91.2129 30.8516 92.9554 30.8516 95.3486C30.8516 97.7417 32.2161 99.5 34.0215 99.5C35.8269 99.5 37.1965 97.747 37.1965 95.3486C37.1965 92.9554 35.8269 91.2129 34.0215 91.2129Z" fill="#314E52"></path><path fill-rule="evenodd" clip-rule="evenodd" d="M38.666 91.3462V96.3003C38.666 98.3209 39.8571 99.4965 41.3948 99.4965C42.9326 99.4965 44.124 98.3209 44.124 96.3003V91.3462H42.7543V96.332C42.7543 97.6073 42.1768 98.2476 41.3948 98.2476C40.6129 98.2476 40.0357 97.6126 40.0357 96.332V91.3462H38.666Z" fill="#314E52"></path><path fill-rule="evenodd" clip-rule="evenodd" d="M48.28 95.5184H47.2252V92.5269H48.28C49.1617 92.5269 49.8336 93.0205 49.8336 94.0334C49.8336 95.0358 49.1617 95.5184 48.28 95.5184ZM51.2401 94.0228C51.2401 92.5586 50.2009 91.3411 48.4008 91.3411H45.8555V99.36H47.22V96.694H48.3011L50.3794 99.36H51.98L49.6814 96.4368C50.6996 96.0222 51.2401 95.0987 51.2401 94.0228Z" fill="#314E52"></path><path fill-rule="evenodd" clip-rule="evenodd" d="M57.6484 98.3295C57.0029 98.3295 56.3782 98.1249 55.6172 97.6315L55.1973 98.5816C55.8428 99.1589 56.7457 99.4945 57.6484 99.4945C59.0706 99.4945 60.2725 98.7022 60.2725 97.1225C60.2725 95.7318 59.1913 95.1912 57.9107 94.6349C57.155 94.299 56.6144 93.9997 56.6144 93.3856C56.6144 92.7716 57.0973 92.3782 57.8531 92.3782C58.4199 92.3782 59.0233 92.6299 59.6478 93.097L60.0518 92.1575C59.443 91.5435 58.6506 91.2078 57.8057 91.2078C56.4464 91.2078 55.3023 92.0737 55.3023 93.4225C55.3023 94.6715 56.1315 95.3328 57.1916 95.7999C58.1783 96.2355 58.9499 96.582 58.9499 97.2433C58.9499 98.0043 58.3831 98.3295 57.6484 98.3295Z" fill="#314E52"></path><path fill-rule="evenodd" clip-rule="evenodd" d="M61.6055 91.3462V99.3655H65.7777V98.1374H62.9806V91.3462H61.6055Z" fill="#314E52"></path><path fill-rule="evenodd" clip-rule="evenodd" d="M67.7136 95.3486C67.7136 93.412 68.6005 92.4516 69.4927 92.4516C70.3796 92.4516 71.2717 93.412 71.2717 95.3486C71.2717 97.2957 70.3796 98.2562 69.4927 98.2562C68.6005 98.2562 67.7136 97.2957 67.7136 95.3486ZM72.668 95.3486C72.668 92.9554 71.298 91.2129 69.4927 91.2129C67.6873 91.2129 66.3125 92.9554 66.3125 95.3486C66.3125 97.7417 67.6873 99.5 69.4927 99.5C71.298 99.4947 72.668 97.7417 72.668 95.3486Z" fill="#314E52"></path><path fill-rule="evenodd" clip-rule="evenodd" d="M77.5025 92.4622C78.1743 92.4622 78.8093 92.8137 79.1977 93.3543L79.9431 92.6092C79.4235 91.696 78.4474 91.2129 77.3715 91.2129C75.2932 91.2129 73.8867 93.0762 73.8867 95.3592C73.8867 97.6421 75.183 99.4945 77.1668 99.4945C77.9016 99.4945 78.5888 99.2426 79.0769 98.7965L79.4129 99.3581H79.9325V95.2592H77.5182V96.3509H78.6361V97.768C78.3003 98.1301 77.8541 98.3087 77.3398 98.3087C76.2114 98.3087 75.2878 97.2117 75.2878 95.3486C75.2826 93.5222 76.2849 92.4622 77.5025 92.4622Z" fill="#314E52"></path><path fill-rule="evenodd" clip-rule="evenodd" d="M85.6531 95.5533H82.9396V94.3726C82.9396 93.1077 83.5171 92.4622 84.2991 92.4622C85.081 92.4622 85.6582 93.113 85.6582 94.3726L85.6531 95.5533ZM84.2936 91.2129C82.7559 91.2129 81.5645 92.3885 81.5645 94.4091V99.3581H82.9345V96.7759H85.6476V99.3581H87.0228V94.4091C87.028 92.3885 85.8366 91.2129 84.2936 91.2129Z" fill="#314E52"></path><path fill-rule="evenodd" clip-rule="evenodd" d="M92.9794 96.5892L89.6467 91.3462H88.7598V99.3655H89.9616V94.1224L93.2888 99.3655H94.1812V91.3462H92.9794V96.5892Z" fill="#314E52"></path></svg>