<svg xmlns="http://www.w3.org/2000/svg" width="105" height="100" viewBox="0 0 105 100" fill="none"><path fill-rule="evenodd" clip-rule="evenodd" d="M9.4236 84.7671L2.94869 86.2195L7.34475 92.1213L6.88315 99.582L22.2664 95.3271C21.6446 95.2445 10.8078 90.9553 10.8078 90.9553C10.3464 88.8909 9.88505 86.8315 9.4236 84.7671Z" fill="white"></path><path fill-rule="evenodd" clip-rule="evenodd" d="M23.3399 93.5644C23.3634 93.5691 23.3728 93.569 23.3634 93.5596L23.3399 93.5644Z" fill="white"></path><path fill-rule="evenodd" clip-rule="evenodd" d="M12.0417 90.2263C12.0417 90.2263 22.8833 94.5104 23.505 94.5978L23.5341 94.5883C23.5098 94.5543 23.4613 94.3743 23.3933 94.0926L21.7517 88.3271C18.5021 88.876 15.267 89.5026 12.0417 90.2263Z" fill="white"></path><path fill-rule="evenodd" clip-rule="evenodd" d="M93.8544 90.9553C93.8544 90.9553 83.0125 95.2396 82.3908 95.3271L97.7743 99.582L97.3127 92.1213L101.709 86.2195L95.2339 84.7671C94.7773 86.8315 94.3158 88.8909 93.8544 90.9553Z" fill="white"></path><path fill-rule="evenodd" clip-rule="evenodd" d="M81.269 94.0926C81.2009 94.3743 81.1524 94.5543 81.1281 94.5883L81.1572 94.593C81.7741 94.5105 92.6157 90.2263 92.6157 90.2263C89.3953 89.5026 86.1552 88.876 82.9105 88.3271L81.269 94.0926Z" fill="white"></path><path fill-rule="evenodd" clip-rule="evenodd" d="M25.4043 75.4065C24.4328 75.5425 23.8258 76.4023 24.0444 77.8692C24.1124 78.3258 24.1756 78.7825 24.2436 79.2342C25.3511 79.0739 26.4534 78.9185 27.5561 78.7776C27.4978 78.321 27.4397 77.8594 27.3814 77.4076C27.1969 75.9359 26.3806 75.2705 25.4043 75.4065Z" fill="white"></path><path fill-rule="evenodd" clip-rule="evenodd" d="M50.0894 73.5514C48.9722 73.566 47.884 74.7169 47.9423 76.9902C48.0006 79.278 49.0984 80.3806 50.167 80.3661C51.2405 80.3515 52.314 79.2246 52.3188 76.9368C52.3188 74.6684 51.2066 73.5368 50.0894 73.5514Z" fill="white"></path><path fill-rule="evenodd" clip-rule="evenodd" d="M17.0545 65.3234C15.5148 65.4497 14.0041 67.1936 14.0089 67.2033C13.9895 67.2228 16.7194 68.8255 18.3077 68.5923C19.8718 68.3786 20.4061 66.5621 20.4207 66.5719C20.4061 66.5816 18.5798 65.2068 17.0545 65.3234Z" fill="white"></path><path fill-rule="evenodd" clip-rule="evenodd" d="M21.9992 64.1146C21.9652 62.6282 20.6489 60.457 20.6683 60.4473C20.678 60.4521 18.9098 61.9677 18.8127 63.4686C18.701 64.9792 20.4156 66.5822 20.4205 66.5676C20.435 66.5822 22.0137 65.6155 21.9992 64.1146Z" fill="white"></path><path fill-rule="evenodd" clip-rule="evenodd" d="M9.25858 61.7741C9.23915 61.7936 11.6337 63.7221 13.2123 63.7027C14.7618 63.7027 15.5924 62.0123 15.6021 62.022C15.5876 62.0269 14.043 60.4481 12.5372 60.3558C11.0169 60.2733 9.25858 61.7741 9.25858 61.7741Z" fill="white"></path><path fill-rule="evenodd" clip-rule="evenodd" d="M17.555 59.8495C17.7736 58.402 16.8507 56.1093 16.8701 56.1045C16.8799 56.1093 14.9077 57.3482 14.558 58.7908C14.2034 60.248 15.5924 62.0307 15.6021 62.0161C15.6167 62.0355 17.3121 61.3067 17.555 59.8495Z" fill="white"></path><path fill-rule="evenodd" clip-rule="evenodd" d="M8.92833 54.9108C7.44683 54.6145 5.48454 55.8288 5.48454 55.8385C5.46511 55.8531 7.50999 58.0632 9.05463 58.2672C10.575 58.476 11.658 56.9459 11.6677 56.9556C11.6531 56.9556 10.3953 55.2071 8.92833 54.9108Z" fill="white"></path><path fill-rule="evenodd" clip-rule="evenodd" d="M11.1578 53.6608C10.5798 55.0354 11.6581 56.9589 11.663 56.9492C11.6727 56.9589 13.4506 56.483 13.9218 55.0987C14.3735 53.724 13.8294 51.3584 13.8488 51.3584C13.8585 51.3681 11.7261 52.3007 11.1578 53.6608Z" fill="white"></path><path fill-rule="evenodd" clip-rule="evenodd" d="M6.22248 49.0799C4.80413 48.5796 2.68144 49.4928 2.68144 49.5025C2.66201 49.5122 4.34271 51.9652 5.82906 52.3732C7.29599 52.791 8.59768 51.4454 8.60254 51.4599C8.59283 51.4599 7.6214 49.5802 6.22248 49.0799Z" fill="white"></path><path fill-rule="evenodd" clip-rule="evenodd" d="M8.60738 48.1768C7.82535 49.4397 8.59292 51.4701 8.60264 51.4652C8.60749 51.4798 10.434 51.2612 11.114 49.974C11.7698 48.6916 11.5948 46.3066 11.6142 46.3066C11.6142 46.3066 9.37484 46.9236 8.60738 48.1768Z" fill="white"></path><path fill-rule="evenodd" clip-rule="evenodd" d="M4.41554 42.985C3.08948 42.2904 0.855234 42.8878 0.855234 42.8976C0.835805 42.9073 2.13262 45.5545 3.54125 46.1617C4.9256 46.7834 6.41671 45.6468 6.41671 45.6614C6.407 45.6565 5.72703 43.6748 4.41554 42.985Z" fill="white"></path><path fill-rule="evenodd" clip-rule="evenodd" d="M9.11773 44.5537C9.96291 43.388 10.1377 41.0176 10.1571 41.0225C10.1571 41.0225 7.84976 41.3138 6.91229 42.4359C5.95538 43.5628 6.40735 45.6709 6.42192 45.6612C6.42192 45.6709 8.25797 45.7146 9.11773 44.5537Z" fill="white"></path><path fill-rule="evenodd" clip-rule="evenodd" d="M2.19092 39.7306C3.47327 40.537 5.10541 39.6335 5.11026 39.6481C5.09569 39.6432 4.71206 37.5934 3.51229 36.724C2.29795 35.8545 0.00516477 36.1169 0.000307408 36.1266C-0.019122 36.1315 0.884293 38.9292 2.19092 39.7306Z" fill="white"></path><path fill-rule="evenodd" clip-rule="evenodd" d="M7.94223 38.9425C8.94285 37.9176 9.45289 35.6055 9.47231 35.6104C9.47231 35.6201 7.15048 35.5715 6.05757 36.5382C4.95009 37.5145 5.09578 39.6517 5.11035 39.6468C5.11035 39.6565 6.91733 39.9674 7.94223 38.9425Z" fill="white"></path><path fill-rule="evenodd" clip-rule="evenodd" d="M1.77825 33.1924C2.92945 34.1736 4.67802 33.513 4.67802 33.5276C4.66831 33.5227 4.58081 31.4389 3.51705 30.4091C2.43871 29.3697 0.13136 29.3016 0.13136 29.3113C0.102216 29.3162 0.597911 32.2112 1.77825 33.1924Z" fill="white"></path><path fill-rule="evenodd" clip-rule="evenodd" d="M7.57787 33.2414C8.71449 32.3719 9.55469 30.1618 9.56926 30.1667C9.56926 30.1764 7.27677 29.7879 6.05757 30.5942C4.8238 31.4005 4.66334 33.5328 4.67306 33.5328C4.67792 33.5425 6.42182 34.106 7.57787 33.2414Z" fill="white"></path><path fill-rule="evenodd" clip-rule="evenodd" d="M5.11994 27.4133C5.10537 27.4085 5.31899 25.3295 4.41552 24.1492C3.49748 22.964 1.22414 22.5608 1.21928 22.5705C1.19499 22.5705 1.27294 25.519 2.29784 26.6604C3.2936 27.8019 5.11994 27.4036 5.11994 27.4133Z" fill="white"></path><path fill-rule="evenodd" clip-rule="evenodd" d="M8.03437 27.5425C9.28271 26.8479 10.4291 24.7689 10.4485 24.7786C10.4485 24.7884 8.23343 24.0742 6.91223 24.6959C5.57645 25.3225 5.11024 27.4162 5.12481 27.4113C5.11995 27.4259 6.7666 28.2371 8.03437 27.5425Z" fill="white"></path><path fill-rule="evenodd" clip-rule="evenodd" d="M6.44103 21.4038C6.42645 21.3989 6.94142 19.3588 6.22253 18.0522C5.48907 16.7407 3.29352 16.0121 3.28866 16.0218C3.26437 16.0218 2.90497 18.9703 3.75501 20.2526C4.5759 21.5252 6.44588 21.3892 6.44103 21.4038Z" fill="white"></path><path fill-rule="evenodd" clip-rule="evenodd" d="M9.3021 21.9519C10.6379 21.4419 12.0806 19.5378 12.0951 19.5427C12.0951 19.5524 10.0065 18.5226 8.60273 18.9549C7.18438 19.3872 6.417 21.403 6.43643 21.403C6.43643 21.4176 7.9469 22.4571 9.3021 21.9519Z" fill="white"></path><path fill-rule="evenodd" clip-rule="evenodd" d="M8.63176 15.6034C8.62205 15.5937 9.43808 13.6312 8.92319 12.2275C8.3986 10.8091 6.33424 9.76965 6.32938 9.77936C6.30509 9.77451 5.49409 12.6695 6.14497 14.0733C6.77157 15.4576 8.64148 15.5937 8.63176 15.6034Z" fill="white"></path><path fill-rule="evenodd" clip-rule="evenodd" d="M11.3908 16.5603C12.7946 16.2397 14.5191 14.5445 14.5337 14.5543C14.5337 14.564 12.615 13.238 11.1578 13.4711C9.68602 13.6994 8.62234 15.6035 8.63691 15.6035C8.6272 15.618 9.97247 16.8712 11.3908 16.5603Z" fill="white"></path><path fill-rule="evenodd" clip-rule="evenodd" d="M11.7063 10.116C11.6966 10.1063 12.8188 8.26052 12.5371 6.77416C12.2408 5.2781 10.3609 3.94706 10.3512 3.95192C10.3269 3.94706 9.0543 6.73521 9.47689 8.22642C9.88005 9.71278 11.7161 10.1063 11.7063 10.116Z" fill="white"></path><path fill-rule="evenodd" clip-rule="evenodd" d="M14.2956 11.4705C15.7382 11.3442 17.7248 9.88701 17.7394 9.90158C17.7345 9.91129 16.0441 8.30841 14.5529 8.33755C13.0472 8.36184 11.6872 10.1153 11.7018 10.1153C11.7018 10.1299 12.8384 11.5774 14.2956 11.4705Z" fill="white"></path><path fill-rule="evenodd" clip-rule="evenodd" d="M17.618 5.36902C18.7157 4.13039 20.5227 0.424191 20.5907 0.424191C20.5907 0.37076 16.5006 1.6773 15.2329 3.09079C13.9262 4.45085 14.2857 6.64166 14.2954 6.62709C14.3052 6.61251 16.4474 6.58336 17.618 5.36902Z" fill="white"></path><path fill-rule="evenodd" clip-rule="evenodd" d="M86.3496 68.5923C87.9379 68.8255 90.6678 67.2228 90.6484 67.2033C90.6532 67.1936 89.1425 65.4497 87.6027 65.3234C86.0775 65.2068 84.2512 66.5816 84.2366 66.5719C84.2512 66.5621 84.7855 68.3786 86.3496 68.5923Z" fill="white"></path><path fill-rule="evenodd" clip-rule="evenodd" d="M84.2415 66.5725C84.2513 66.587 85.9609 64.9841 85.854 63.4735C85.7569 61.9725 83.9887 60.4521 83.9984 60.4521C84.0227 60.457 82.7016 62.6331 82.6676 64.1195C82.6482 65.6156 84.227 66.5822 84.2415 66.5725Z" fill="white"></path><path fill-rule="evenodd" clip-rule="evenodd" d="M95.399 61.7739C95.4039 61.7642 93.6407 60.2732 92.1203 60.3606C90.6146 60.4529 89.0697 62.0314 89.0551 62.0265C89.0649 62.0168 89.8906 63.7072 91.445 63.7072C93.0236 63.7218 95.4184 61.7933 95.399 61.7739Z" fill="white"></path><path fill-rule="evenodd" clip-rule="evenodd" d="M90.0995 58.7954C89.7546 57.3528 87.7873 56.1094 87.7873 56.1094C87.8116 56.1142 86.8839 58.4069 87.1025 59.8544C87.3453 61.3067 89.0406 62.04 89.0503 62.0254C89.0648 62.0351 90.4589 60.2526 90.0995 58.7954Z" fill="white"></path><path fill-rule="evenodd" clip-rule="evenodd" d="M99.1731 55.8372C99.1779 55.8275 97.2108 54.6181 95.7293 54.9096C94.2624 55.2059 93.0092 56.9543 92.9946 56.9543C92.9995 56.9398 94.0825 58.4748 95.6077 58.2659C97.1524 58.0619 99.1974 55.8518 99.1731 55.8372Z" fill="white"></path><path fill-rule="evenodd" clip-rule="evenodd" d="M93.4998 53.6608C92.9363 52.3007 90.8037 51.3681 90.8037 51.3584C90.8231 51.3633 90.2793 53.724 90.731 55.0987C91.2022 56.483 92.9798 56.9589 92.9895 56.9492C93.0041 56.9638 94.0826 55.0354 93.4998 53.6608Z" fill="white"></path><path fill-rule="evenodd" clip-rule="evenodd" d="M98.8283 52.3775C100.319 51.9695 101.995 49.5165 101.976 49.5068C101.976 49.497 99.8531 48.584 98.4396 49.0843C97.0407 49.5846 96.0694 51.4644 96.0548 51.4644C96.0597 51.4498 97.3662 52.7952 98.8283 52.3775Z" fill="white"></path><path fill-rule="evenodd" clip-rule="evenodd" d="M93.5482 49.9694C94.2282 51.2566 96.05 51.4753 96.0548 51.4607C96.0694 51.4704 96.832 49.4352 96.0548 48.1722C95.2873 46.919 93.0432 46.3071 93.048 46.2974C93.0626 46.3022 92.8876 48.6871 93.5482 49.9694Z" fill="white"></path><path fill-rule="evenodd" clip-rule="evenodd" d="M101.121 46.162C102.53 45.55 103.826 42.9027 103.807 42.8979C103.807 42.8881 101.573 42.2956 100.247 42.9853C98.9351 43.6751 98.26 45.6568 98.2454 45.6617C98.2454 45.6471 99.7317 46.7837 101.121 46.162Z" fill="white"></path><path fill-rule="evenodd" clip-rule="evenodd" d="M97.7548 42.4359C96.8124 41.3138 94.505 41.0322 94.5099 41.0225C94.5293 41.0176 94.7043 43.388 95.5446 44.5537C96.4043 45.7195 98.2406 45.6709 98.2454 45.6612C98.2551 45.666 98.7068 43.5628 97.7548 42.4359Z" fill="white"></path><path fill-rule="evenodd" clip-rule="evenodd" d="M101.15 36.724C99.9502 37.5934 99.5665 39.6432 99.552 39.6481C99.552 39.6335 101.189 40.537 102.466 39.7306C103.773 38.9243 104.677 36.1315 104.657 36.1266C104.657 36.1169 102.359 35.8545 101.15 36.724Z" fill="white"></path><path fill-rule="evenodd" clip-rule="evenodd" d="M98.6 36.5382C97.5119 35.5667 95.1853 35.6201 95.1853 35.6104C95.2047 35.6055 95.7196 37.9176 96.7153 38.9425C97.7354 39.9674 99.5424 39.6614 99.5472 39.6468C99.5666 39.6517 99.7075 37.5145 98.6 36.5382Z" fill="white"></path><path fill-rule="evenodd" clip-rule="evenodd" d="M99.9842 33.5323C99.9842 33.5177 101.733 34.1783 102.884 33.1971C104.059 32.2159 104.56 29.3211 104.536 29.3162C104.536 29.3065 102.223 29.3744 101.15 30.4139C100.086 31.4436 99.9988 33.5274 99.9842 33.5323Z" fill="white"></path><path fill-rule="evenodd" clip-rule="evenodd" d="M98.6 30.5942C97.3808 29.7879 95.088 30.1764 95.088 30.1667C95.1074 30.1618 95.9431 32.3768 97.0797 33.2414C98.2358 34.106 99.9794 33.5425 99.9842 33.5328C99.9988 33.5328 99.8386 31.4054 98.6 30.5942Z" fill="white"></path><path fill-rule="evenodd" clip-rule="evenodd" d="M100.247 24.1539C99.3432 25.3343 99.552 27.4133 99.5423 27.4182C99.5374 27.4036 101.364 27.8068 102.364 26.6653C103.389 25.5287 103.467 22.5754 103.443 22.5754C103.438 22.5657 101.16 22.9687 100.247 24.1539Z" fill="white"></path><path fill-rule="evenodd" clip-rule="evenodd" d="M97.7548 24.6959C96.4336 24.0742 94.2137 24.7884 94.2137 24.7786C94.2332 24.7689 95.3795 26.8479 96.6279 27.5425C97.8956 28.2371 99.5422 27.4259 99.5422 27.4113C99.5567 27.4162 99.0905 25.3225 97.7548 24.6959Z" fill="white"></path><path fill-rule="evenodd" clip-rule="evenodd" d="M98.221 21.4037C98.2162 21.3891 100.081 21.53 100.902 20.2525C101.752 18.9702 101.393 16.0218 101.369 16.0218C101.369 16.0218 99.1682 16.7406 98.4348 18.0521C97.7208 19.3588 98.2307 21.394 98.221 21.4037Z" fill="white"></path><path fill-rule="evenodd" clip-rule="evenodd" d="M96.0548 18.9549C94.651 18.5226 92.5621 19.5524 92.5621 19.5427C92.5767 19.533 94.0195 21.4371 95.3602 21.9519C96.7154 22.4571 98.2307 21.4127 98.2259 21.403C98.2356 21.403 97.4683 19.3921 96.0548 18.9549Z" fill="white"></path><path fill-rule="evenodd" clip-rule="evenodd" d="M98.5126 14.0686C99.1635 12.6649 98.3522 9.76987 98.3279 9.77473C98.323 9.76501 96.2588 10.8045 95.7293 12.2228C95.2193 13.6315 96.0352 15.5939 96.0255 15.5987C96.0206 15.589 97.8908 15.4579 98.5126 14.0686Z" fill="white"></path><path fill-rule="evenodd" clip-rule="evenodd" d="M93.4998 13.4711C92.0426 13.238 90.1287 14.564 90.1287 14.5543C90.1432 14.5445 91.8676 16.2397 93.2665 16.5603C94.6849 16.8712 96.0303 15.6132 96.0255 15.5986C96.04 15.6034 94.9765 13.6994 93.4998 13.4711Z" fill="white"></path><path fill-rule="evenodd" clip-rule="evenodd" d="M95.1853 8.23107C95.6127 6.735 94.3353 3.94685 94.311 3.95657C94.311 3.95657 92.4167 5.2826 92.1204 6.77867C91.8387 8.26502 92.9605 10.1109 92.9508 10.1206C92.9459 10.1061 94.7821 9.71257 95.1853 8.23107Z" fill="white"></path><path fill-rule="evenodd" clip-rule="evenodd" d="M90.1044 8.33755C88.618 8.30841 86.9227 9.91129 86.9179 9.90158C86.9325 9.88701 88.9241 11.3442 90.3667 11.4705C91.8239 11.5774 92.9607 10.1299 92.9558 10.1202C92.9704 10.1154 91.6101 8.36184 90.1044 8.33755Z" fill="white"></path><path fill-rule="evenodd" clip-rule="evenodd" d="M90.3667 6.62245C90.3764 6.63702 90.7311 4.44636 89.4293 3.0863C88.1567 1.67281 84.0715 0.366122 84.0715 0.419553C84.1395 0.42441 85.9464 4.1306 87.0442 5.36438C88.2148 6.58357 90.3522 6.61273 90.3667 6.62245Z" fill="white"></path><path fill-rule="evenodd" clip-rule="evenodd" d="M50.1864 81.8204C48.0346 81.8447 46.3251 79.8483 46.228 77.0407C46.126 74.238 47.792 72.13 50.075 72.1057C52.3579 72.0766 54.0677 74.1457 54.0337 76.9533C53.9997 79.756 52.3383 81.7962 50.1864 81.8204ZM39.2915 82.1605C38.9612 82.1848 38.631 82.2091 38.3007 82.2334C37.5235 80.1836 36.7317 78.1387 35.9108 76.0986C35.4494 78.2455 35.0073 80.3973 34.5847 82.5492C34.2544 82.5832 33.9242 82.6121 33.5939 82.6461C32.263 79.6103 30.8835 76.5842 29.4555 73.5726C30.0384 73.5046 30.6212 73.4416 31.2041 73.3785C32.0832 75.3943 32.9381 77.4149 33.7736 79.4404C34.201 77.2886 34.6479 75.1417 35.1142 72.9996C35.4688 72.9704 35.8186 72.9412 36.1732 72.9121C36.9941 74.9473 37.7953 76.9922 38.5725 79.0372C39.0534 76.8999 39.5586 74.7628 40.0881 72.6305C40.671 72.5916 41.2588 72.5622 41.8417 72.5282C40.9382 75.7292 40.0881 78.9449 39.2915 82.1605ZM28.1341 83.2144C28.003 82.2138 27.8766 81.2085 27.7454 80.2079C26.6477 80.3488 25.5499 80.4994 24.457 80.6645C24.6076 81.6651 24.7533 82.6609 24.899 83.6615C24.355 83.7441 23.8112 83.8265 23.272 83.9091C22.9708 81.9953 22.6744 80.0814 22.3781 78.1676C22.0041 75.8264 23.2817 74.2234 25.21 73.9563C27.1433 73.6891 28.8045 74.889 29.0813 77.24C29.3145 79.1635 29.5428 81.087 29.776 83.0105C29.2222 83.0736 28.6781 83.1416 28.1341 83.2144ZM17.074 84.9778C16.4863 81.8983 15.9034 78.8138 15.3156 75.7342C15.8839 75.6273 16.4523 75.5205 17.0206 75.4185C17.4967 78.0317 17.9678 80.6498 18.4389 83.2631C19.5513 83.0591 20.6683 82.8697 21.7855 82.69C21.8632 83.1611 21.9411 83.6371 22.0188 84.1083C20.3722 84.3706 18.7206 84.667 17.074 84.9778ZM55.9184 72.2759C57.7302 72.3099 59.5418 72.3632 61.3536 72.4458C61.3341 72.9266 61.31 73.4028 61.2857 73.8836C60.0568 73.8253 58.8327 73.7814 57.6038 73.7523C57.5844 74.4469 57.5697 75.1463 57.5454 75.8409C58.6578 75.8701 59.7654 75.9092 60.8777 75.9577C60.8535 76.4386 60.8389 76.9144 60.8146 77.3953C59.712 77.3467 58.6092 77.308 57.5066 77.2788C57.4677 78.7603 57.4289 80.2418 57.3901 81.7185C56.846 81.7039 56.2922 81.6893 55.7482 81.6796C55.8065 78.5466 55.8601 75.4089 55.9184 72.2759ZM62.9421 72.5234C64.7539 72.6206 66.5608 72.7421 68.3678 72.8878C68.3289 73.3638 68.2901 73.8398 68.2512 74.3206C67.0272 74.2235 65.803 74.136 64.5741 74.0583C64.5304 74.7529 64.4916 75.4475 64.4478 76.1421C65.5602 76.2102 66.6678 76.2879 67.7704 76.3802C67.7364 76.8562 67.6975 77.3322 67.6586 77.813C66.5608 77.7256 65.4583 77.648 64.3556 77.58C64.2633 79.0567 64.171 80.538 64.0787 82.0146C63.5298 81.9806 62.9858 81.9516 62.4369 81.9224C62.6069 78.7894 62.7721 75.6564 62.9421 72.5234ZM68.9942 81.194C69.4411 81.2329 69.8833 81.2715 70.3254 81.3153C70.5488 78.9789 70.7673 76.6425 70.9859 74.3061C70.5244 74.2624 70.0679 74.2187 69.6064 74.1798C69.6404 73.7864 69.6791 73.393 69.7131 72.9996C71.2189 73.1307 72.7248 73.2812 74.2257 73.4463C74.182 73.8398 74.1384 74.2333 74.0947 74.6218C73.6332 74.5684 73.1667 74.5198 72.7004 74.4712C72.4575 76.8028 72.2196 79.1393 71.9767 81.4756C72.4236 81.5194 72.8703 81.5727 73.3221 81.6165C73.2784 82.0099 73.2347 82.4033 73.191 82.7967C71.7581 82.6364 70.3251 82.4955 68.8922 82.3692C68.9214 81.9806 68.9602 81.5874 68.9942 81.194ZM74.8231 78.2601C75.1243 75.5983 77.004 73.6068 79.4812 73.9468C80.8364 74.1362 81.8081 74.8646 82.255 76.0061C81.9004 76.2489 81.5507 76.4872 81.2058 76.73C80.8075 76.0257 80.2684 75.535 79.4329 75.4185C78.102 75.2339 76.7952 76.322 76.5281 78.4641C76.2658 80.6062 77.2227 81.9612 78.5002 82.1409C79.3065 82.2526 79.9429 81.9321 80.5112 81.3929C80.7686 81.7184 81.0259 82.0487 81.2784 82.379C80.4964 83.331 79.4426 83.7537 78.1554 83.5788C75.819 83.2534 74.5219 80.9268 74.8231 78.2601ZM84.057 74.787C85.8202 75.0736 87.5835 75.3795 89.3418 75.7146C89.2544 76.1858 89.167 76.657 89.0747 77.1282C87.8944 76.9048 86.7091 76.6911 85.5239 76.492C85.4073 77.1769 85.2906 77.8618 85.174 78.5516C86.2087 78.7313 87.2435 78.9158 88.2781 79.1101C88.1907 79.5813 88.1033 80.0525 88.011 80.5237C86.9861 80.3342 85.961 80.1495 84.9312 79.9746C84.7612 80.9607 84.5961 81.9466 84.4261 82.9375C85.621 83.1415 86.8111 83.3552 88.0012 83.5835C87.9138 84.0547 87.8215 84.5259 87.7341 84.9971C86.0097 84.6668 84.2851 84.3657 82.5559 84.084C83.0562 80.9801 83.5566 77.886 84.057 74.787ZM21.3728 18.6261C21.3728 18.6261 21.4019 18.6408 21.465 18.6651C21.5282 18.6942 21.6203 18.7282 21.7369 18.7671C21.97 18.8448 22.3004 18.9419 22.7229 19.044C23.5633 19.2382 24.763 19.447 26.2154 19.5782C27.6677 19.7045 29.3776 19.7774 31.2331 19.6219C32.1609 19.5442 33.1275 19.413 34.1184 19.175C34.6187 19.0536 35.0947 18.9176 35.6241 18.7184C35.9107 18.6116 36.1098 18.5242 36.3333 18.4319L36.9941 18.1501C38.6699 17.4506 40.3892 16.9017 42.0116 16.5569C43.6339 16.2023 45.164 16.0469 46.4512 16.0226C47.7093 15.9983 48.7342 16.1051 49.4239 16.2217V68.8757C35.6679 69.0797 21.9312 70.6922 8.42775 73.7135C9.1175 76.8125 9.81229 79.9165 10.5069 83.0155C10.9683 85.0799 11.4297 87.1442 11.8911 89.2037C15.1115 88.4848 18.3513 87.8534 21.5961 87.3045C21.7272 87.2803 21.8583 87.2608 21.9895 87.2414C45.5525 83.3264 69.684 83.9821 93.0527 89.2037C94.2088 84.0403 95.3649 78.8768 96.5161 73.7135C82.7212 70.629 68.6834 69.0165 54.6359 68.8659V16.2217C55.3256 16.1051 56.3457 15.9983 57.6086 16.0226C58.8958 16.0421 60.421 16.2023 62.0482 16.5569C63.6706 16.9017 65.395 17.4506 67.066 18.1501L67.7265 18.4319C67.9451 18.5242 68.1491 18.6116 68.4356 18.7184C68.9651 18.9176 69.446 19.0536 69.9414 19.175C70.9323 19.413 71.8941 19.5491 72.8267 19.6219C74.6822 19.7774 76.3921 19.7093 77.8444 19.5782C79.2968 19.447 80.4965 19.2431 81.3368 19.044C81.7546 18.9468 82.0897 18.8448 82.3229 18.7671C82.4395 18.7282 82.5271 18.6942 82.5951 18.6651C82.6582 18.6408 82.6873 18.6261 82.6873 18.6261C82.969 18.5144 83.1002 18.1938 82.9885 17.9169C82.8816 17.6595 82.6048 17.5235 82.3425 17.5915L82.2938 17.6061C82.2938 17.6061 82.2694 17.6109 82.2257 17.6255C82.1819 17.6401 82.109 17.6547 82.0119 17.6741C81.8176 17.713 81.5165 17.7663 81.1231 17.81C80.3313 17.8975 79.1754 17.9606 77.7911 17.9169C76.4116 17.8781 74.794 17.747 73.1377 17.407C72.3071 17.237 71.4715 17.0136 70.6749 16.7173C70.2863 16.5715 69.8734 16.3966 69.5382 16.2217C69.3876 16.1488 69.1692 16.0225 68.9651 15.906L68.3627 15.5466C66.6529 14.5557 64.8365 13.7057 63.0538 13.0742C61.2712 12.4379 59.5274 12.0153 57.9827 11.7919C56.6858 11.5976 55.5393 11.5392 54.6359 11.5489V10.3589H55.3791C56.132 10.3589 56.7441 9.74696 56.7441 8.99407V8.76089C56.7441 8.00314 56.132 7.39595 55.3791 7.39595H54.6359V5.73468C54.6359 4.40862 53.5626 3.34009 52.2365 3.34009H51.8283C50.5022 3.34009 49.429 4.41347 49.429 5.73468V7.39595H48.6905C47.9376 7.39595 47.3208 8.008 47.3208 8.76089V8.99407C47.3208 9.74696 47.9327 10.3589 48.6905 10.3589H49.429V11.5489C48.5255 11.544 47.379 11.5976 46.0821 11.7919C44.5423 12.0153 42.7935 12.4379 41.0157 13.0742C39.2331 13.7057 37.4166 14.5557 35.7068 15.5466L35.0997 15.906C34.8957 16.0225 34.6769 16.1488 34.5263 16.2217C34.1911 16.4014 33.7834 16.5764 33.3899 16.7173C32.5933 17.0136 31.7578 17.237 30.9272 17.407C29.2659 17.747 27.6581 17.8781 26.2738 17.9169C24.8894 17.9606 23.7335 17.8926 22.9417 17.81C22.5434 17.7663 22.2421 17.713 22.0526 17.6741C21.9555 17.6547 21.8826 17.6352 21.8389 17.6255C21.7903 17.6109 21.7662 17.6061 21.7662 17.6061L21.7224 17.5915C21.4601 17.5235 21.1832 17.6595 21.0763 17.9169C20.9549 18.1938 21.0911 18.5095 21.3728 18.6261Z" fill="white"></path><path fill-rule="evenodd" clip-rule="evenodd" d="M37.4602 37.962H29.2417V26.4354L37.4602 37.962ZM28.7801 26.4354V37.962H20.5614L28.7801 26.4354ZM19.9836 37.9863H19.0266V40.1138H20.3186L21.5184 43.9996C21.771 44.8205 22.4609 45.3694 23.2332 45.3694H34.8664C35.6387 45.3694 36.3286 44.8205 36.5811 43.9996L37.781 40.1138H39.0534V37.9863H38.043L29.2417 25.6437V24.3468C29.8635 24.2399 30.3345 23.6958 30.3345 23.045C30.3345 22.3941 29.8635 21.855 29.2417 21.7433V19.6934H28.7852V21.7433C28.1634 21.8502 27.6921 22.3892 27.6921 23.045C27.6921 23.6958 28.1683 24.235 28.7852 24.3468V25.6437L19.9836 37.9863Z" fill="white"></path><path fill-rule="evenodd" clip-rule="evenodd" d="M84.0472 37.962H75.8287V26.4354L84.0472 37.962ZM75.3671 26.4354V37.962H67.1484L75.3671 26.4354ZM66.5655 37.9863H65.6088V40.1138H66.9008L68.0956 43.9996C68.3482 44.8205 69.0381 45.3694 69.8104 45.3694H81.4439C82.2162 45.3694 82.9058 44.8205 83.1584 43.9996L84.3534 40.1138H85.6259V37.9863H84.6155L75.8139 25.6437V24.3468C76.4356 24.2399 76.907 23.6958 76.907 23.045C76.907 22.3941 76.4308 21.855 75.8139 21.7433V19.6934H75.3573V21.7433C74.7356 21.8502 74.2645 22.3892 74.2645 23.045C74.2645 23.6958 74.7356 24.235 75.3573 24.3468V25.6437L66.5655 37.9863Z" fill="white"></path></svg>