<svg xmlns="http://www.w3.org/2000/svg" width="131" height="100" viewBox="0 0 131 100" fill="none"><path fill-rule="evenodd" clip-rule="evenodd" d="M84.3327 11.0776C82.7908 11.0776 81.5381 9.82491 81.5381 8.28303C81.5381 6.73548 82.7908 5.48259 84.3327 5.48259C85.8802 5.48259 87.1331 6.73548 87.1331 8.28303C87.1331 9.83058 85.8859 11.0776 84.3327 11.0776ZM45.7687 11.0776C44.2212 11.0776 42.9683 9.82491 42.9683 8.28303C42.9683 6.73548 44.2212 5.48259 45.7687 5.48259C47.3106 5.48259 48.5633 6.73548 48.5633 8.28303C48.5633 9.83058 47.3163 11.0776 45.7687 11.0776ZM84.3327 0.5H45.7687C41.4718 0.5 37.9853 3.98616 37.9853 8.28303C37.9853 12.5799 41.4718 16.0661 45.7687 16.0661C50.0656 16.0661 53.5462 12.5799 53.5462 8.28303H76.5552C76.5552 12.5799 80.0358 16.0661 84.3327 16.0661C88.6352 16.0661 92.1157 12.5799 92.1157 8.28303C92.1157 3.98616 88.6352 0.5 84.3327 0.5Z" fill="white"></path><path fill-rule="evenodd" clip-rule="evenodd" d="M71.2101 49.9864V20.0615H74.4697V49.9864H71.2101ZM55.2129 20.0615H58.4725V49.9864H55.2129V20.0615ZM63.2115 20.0615H66.4711V49.9864H63.2115V20.0615ZM75.0309 10.2319H55.2129C54.3286 13.5028 53.1158 15.5265 50.2871 16.4618V49.9864H45.7747V57.6335H39.8396V73.1148H90.2682V57.6335H84.3331V49.9864H79.8207V16.4618C76.5556 15.3621 75.9095 13.4234 75.0309 10.2319Z" fill="white"></path><path fill-rule="evenodd" clip-rule="evenodd" d="M8.28171 32.0738H12.4426V33.2754H9.62518V35.0213H12.1139V36.2233H9.62518V38.7344H12.5616V39.9361H8.28759V32.0738H8.28171ZM15.4243 36.4443C14.3869 35.9852 13.5764 35.3389 13.5764 34.1144C13.5764 32.7936 14.6931 31.9489 16.0253 31.9489C16.8473 31.9489 17.6294 32.2777 18.2303 32.8786L17.8279 33.7972C17.2157 33.338 16.6261 33.0886 16.0706 33.0886C15.328 33.0886 14.8576 33.4797 14.8576 34.0805C14.8576 34.6814 15.3904 34.9762 16.1274 35.305C17.3745 35.8492 18.4344 36.3763 18.4344 37.7425C18.4344 39.2844 17.2553 40.0665 15.8665 40.0665C14.9822 40.0665 14.0978 39.738 13.4629 39.1711L13.8767 38.2414C14.6193 38.7232 15.2316 38.9216 15.8665 38.9216C16.5807 38.9216 17.1363 38.6041 17.1363 37.8615C17.1419 37.2153 16.388 36.8695 15.4243 36.4443ZM18.8652 32.0738H24.3924V33.2754H22.306V39.9305H20.9626V33.2754H18.8652V32.0738ZM25.2708 38.3943C25.73 38.3943 26.1098 38.7683 26.1098 39.2275C26.1098 39.6866 25.73 40.0665 25.2708 40.0665C24.8117 40.0665 24.4377 39.6866 24.4377 39.2275C24.4377 38.7683 24.8117 38.3943 25.2708 38.3943ZM31.189 43.1901V28.2759H0.657486L2.07466 35.9852L0.657486 43.1842H31.189V43.1901Z" fill="white"></path><path fill-rule="evenodd" clip-rule="evenodd" d="M116.99 34.2864C117.563 34.2864 118.028 33.8611 118.028 33.2602C118.028 32.648 117.568 32.2344 116.99 32.2344C116.429 32.2344 115.964 32.648 115.964 33.2602C115.964 33.8611 116.423 34.2864 116.99 34.2864Z" fill="white"></path><path fill-rule="evenodd" clip-rule="evenodd" d="M110.522 32.3174C109.769 32.3174 109.145 32.8674 109.145 33.729C109.145 34.5907 109.769 35.1407 110.522 35.1407C111.276 35.1407 111.9 34.585 111.9 33.729C111.9 32.8674 111.276 32.3174 110.522 32.3174Z" fill="white"></path><path fill-rule="evenodd" clip-rule="evenodd" d="M125.459 31.671L122.387 39.1534H121.043L123.809 32.4986H120.301V31.2966H125.459V31.671ZM116.99 39.2783C115.505 39.2783 114.303 38.2067 114.303 36.8065C114.303 35.9449 114.762 35.1911 115.482 34.7943C115 34.4428 114.717 33.8647 114.717 33.2525C114.717 32.0734 115.72 31.1662 116.99 31.1662C118.277 31.1662 119.274 32.0734 119.274 33.2525C119.274 33.8647 118.991 34.4315 118.509 34.7943C119.229 35.1967 119.677 35.9506 119.677 36.8065C119.677 38.2067 118.486 39.2783 116.99 39.2783ZM112.415 35.7578L110.12 39.1478H108.612L110.658 36.1661C109.116 36.4325 107.829 35.2593 107.829 33.7231C107.829 32.3002 109.031 31.1551 110.516 31.1551C111.99 31.1551 113.203 32.2946 113.203 33.7231C113.209 34.5053 112.784 35.2136 112.415 35.7578ZM106.832 39.1478H103.312V38.1559H104.394V33.1505L103.136 33.6947L102.841 33.1729L105.148 31.1607H105.738V38.1559H106.832V39.1478ZM99.814 27.4873V42.4015H130.345L128.928 35.2025L130.345 27.4932H99.814V27.4873Z" fill="white"></path><path fill-rule="evenodd" clip-rule="evenodd" d="M116.99 35.4312C116.225 35.4312 115.613 35.9642 115.613 36.7975C115.613 37.6251 116.225 38.152 116.99 38.152C117.767 38.152 118.368 37.6194 118.368 36.7975C118.368 35.9585 117.767 35.4312 116.99 35.4312Z" fill="white"></path><path fill-rule="evenodd" clip-rule="evenodd" d="M20.305 61.4885L19.1089 59.5952L8.00955 66.5904L11.6487 72.3612L13.3496 71.2955L10.9062 67.418L20.305 61.4885Z" fill="white"></path><path fill-rule="evenodd" clip-rule="evenodd" d="M22.38 75.4785L23.8878 74.152L21.15 71.0343L23.338 69.1126L26.4388 72.6442L27.9466 71.3235L23.3664 66.1025L13.5085 74.7585L18.2191 80.1269L19.7273 78.8003L16.4961 75.1214L19.6422 72.3608L22.38 75.4785Z" fill="white"></path><path fill-rule="evenodd" clip-rule="evenodd" d="M29.1484 80.6939L28.0374 82.1L29.4715 83.2335L28.0374 85.0534C27.2381 85.1781 26.4839 84.957 25.8206 84.4355C24.3695 83.2904 24.2904 80.9434 26.178 78.5512C28.043 76.1874 30.4124 75.8531 31.9713 77.0832C32.8386 77.7634 33.3033 78.8573 33.2466 79.94L34.9586 79.7359C35.2193 78.0409 34.4541 76.431 33.0653 75.337C30.3954 73.2282 26.6995 74.1977 24.381 77.134C22.0682 80.0704 21.8584 83.7607 24.4094 85.773C25.3504 86.5156 26.4841 86.8842 27.5668 86.8162L27.425 87.8819L28.0883 88.4036L32.2377 83.1373L29.1484 80.6939Z" fill="white"></path><path fill-rule="evenodd" clip-rule="evenodd" d="M41.4893 86.3812L40.6388 88.1101L36.6537 86.1487L37.5042 84.4198C38.4168 82.5661 39.7318 82.0276 40.8769 82.5888C42.022 83.15 42.3963 84.5275 41.4893 86.3812ZM41.7726 80.7578C39.5108 79.6467 36.9145 80.5195 35.4577 83.4842L31.8864 90.7572L33.899 91.7492L35.7639 87.9513L39.7545 89.9127L37.8896 93.7106L39.9019 94.697L43.4732 87.424C44.93 84.4536 44.0345 81.8689 41.7726 80.7578Z" fill="white"></path><path fill-rule="evenodd" clip-rule="evenodd" d="M49.7425 84.1023L47.5884 83.4902L44.0171 96.1143L50.5815 97.9678L51.1313 96.0406L46.721 94.7934L49.7425 84.1023Z" fill="white"></path><path fill-rule="evenodd" clip-rule="evenodd" d="M62.6503 91.5775C61.4315 90.9823 60.5642 90.4606 60.5982 89.4573C60.6322 88.4539 61.4429 87.8304 62.6786 87.8758C63.6026 87.9098 64.572 88.3575 65.5697 89.1625L66.2897 87.6491C65.3261 86.6118 64.0449 86.0164 62.6731 85.9711C60.451 85.8917 58.5349 87.2407 58.4555 89.4459C58.3818 91.4923 59.7027 92.6204 61.4033 93.4424C62.9906 94.2077 64.2264 94.82 64.1923 95.9027C64.147 97.1385 63.2059 97.6372 62.0098 97.5918C60.9498 97.5522 59.9352 97.1838 58.7278 96.3335L57.985 97.8641C59.011 98.8448 60.4678 99.4455 61.9417 99.4965C64.2602 99.5759 66.2727 98.3514 66.3634 95.7778C66.4315 93.499 64.6967 92.5525 62.6503 91.5775Z" fill="white"></path><path fill-rule="evenodd" clip-rule="evenodd" d="M71.7656 96.9188L71.2155 92.7638L75.3255 92.2196L75.0646 90.2298L70.9549 90.7799L70.5695 87.8943L75.2289 87.2764L74.9625 85.2866L68.0808 86.1993L69.8097 99.2033L76.8841 98.2623L76.6177 96.2728L71.7656 96.9188Z" fill="white"></path><path fill-rule="evenodd" clip-rule="evenodd" d="M82.4511 90.2345L80.807 90.7787L79.2767 86.1304L80.9205 85.5861C82.2809 85.1383 83.5789 85.5576 84.1004 87.1279C84.6163 88.6924 83.8173 89.781 82.4511 90.2345ZM86.2829 86.4023C85.5347 84.1235 83.307 82.7687 80.5067 83.687L76.544 84.9907L80.6482 97.4449L82.7739 96.7419L81.408 92.5924L83.086 92.0371L87.6832 95.115L90.166 94.2933L85.1038 90.9317C86.4643 89.7809 86.8328 88.0632 86.2829 86.4023Z" fill="white"></path><path fill-rule="evenodd" clip-rule="evenodd" d="M92.4167 78.1503L94.2646 87.9061L86.9407 81.2057L84.8603 82.3679L95.4154 91.5906L96.7927 90.8197L94.4798 76.9995L92.4167 78.1503Z" fill="white"></path><path fill-rule="evenodd" clip-rule="evenodd" d="M104.99 83.0067L98.8335 75.3711L100.257 74.2203L99.2189 72.9336L94.6387 76.6239L95.676 77.9106L97.0876 76.7713L103.244 84.4125L101.832 85.5518L102.87 86.8389L107.45 83.1486L106.413 81.8615L104.99 83.0067Z" fill="white"></path><path fill-rule="evenodd" clip-rule="evenodd" d="M112.58 73.1272C112.784 74.1872 112.676 75.1563 111.939 75.9726C110.766 77.2707 108.482 77.2426 106.248 75.2245C104.02 73.2065 103.754 70.9218 104.927 69.6237C105.664 68.8074 106.616 68.6091 107.705 68.7168L107.62 66.9935C105.987 66.6023 104.462 67.0785 103.278 68.3937C101.112 70.7859 101.946 74.4024 104.718 76.9137C107.484 79.4192 111.157 79.8783 113.323 77.4918C114.507 76.1767 114.808 74.6519 114.281 73.0306L112.58 73.1272Z" fill="white"></path><path fill-rule="evenodd" clip-rule="evenodd" d="M117.342 68.5176L113.787 66.3009L115.981 62.7808L114.275 61.7207L112.081 65.2411L109.61 63.7049L112.098 59.7139L110.392 58.6538L106.724 64.5436L117.863 71.4821L121.633 65.4165L119.927 64.3567L117.342 68.5176Z" fill="white"></path></svg>