<svg xmlns="http://www.w3.org/2000/svg" width="131" height="100" viewBox="0 0 131 100" fill="none"><path fill-rule="evenodd" clip-rule="evenodd" d="M84.3337 11.0776C82.7918 11.0776 81.5391 9.82491 81.5391 8.28303C81.5391 6.73548 82.7918 5.48259 84.3337 5.48259C85.8812 5.48259 87.1341 6.73548 87.1341 8.28303C87.1341 9.83058 85.8869 11.0776 84.3337 11.0776ZM45.7697 11.0776C44.2222 11.0776 42.9693 9.82491 42.9693 8.28303C42.9693 6.73548 44.2222 5.48259 45.7697 5.48259C47.3116 5.48259 48.5643 6.73548 48.5643 8.28303C48.5643 9.83058 47.3173 11.0776 45.7697 11.0776ZM84.3337 0.5H45.7697C41.4728 0.5 37.9863 3.98616 37.9863 8.28303C37.9863 12.5799 41.4728 16.0661 45.7697 16.0661C50.0666 16.0661 53.5472 12.5799 53.5472 8.28303H76.5562C76.5562 12.5799 80.0368 16.0661 84.3337 16.0661C88.6362 16.0661 92.1167 12.5799 92.1167 8.28303C92.1167 3.98616 88.6362 0.5 84.3337 0.5Z" fill="#314E52"></path><path fill-rule="evenodd" clip-rule="evenodd" d="M71.2103 49.9864V20.0615H74.4699V49.9864H71.2103ZM55.2132 20.0615H58.4727V49.9864H55.2132V20.0615ZM63.2118 20.0615H66.4713V49.9864H63.2118V20.0615ZM75.0311 10.2319H55.2132C54.3289 13.5028 53.116 15.5265 50.2873 16.4618V49.9864H45.7749V57.6335H39.8398V73.1148H90.2685V57.6335H84.3334V49.9864H79.821V16.4618C76.5558 15.3621 75.9098 13.4234 75.0311 10.2319Z" fill="#314E52"></path><path fill-rule="evenodd" clip-rule="evenodd" d="M8.28242 32.0739H12.4433V33.2755H9.6259V35.0214H12.1146V36.2234H9.6259V38.7346H12.5623V39.9362H8.2883V32.0739H8.28242ZM15.425 36.4445C14.3877 35.9853 13.5771 35.339 13.5771 34.1146C13.5771 32.7938 14.6939 31.949 16.026 31.949C16.848 31.949 17.6301 32.2778 18.231 32.8787L17.8286 33.7973C17.2164 33.3381 16.6269 33.0887 16.0713 33.0887C15.3287 33.0887 14.8583 33.4798 14.8583 34.0807C14.8583 34.6815 15.3911 34.9763 16.1281 35.3051C17.3752 35.8493 18.4351 36.3765 18.4351 37.7426C18.4351 39.2845 17.256 40.0666 15.8672 40.0666C14.9829 40.0666 14.0985 39.7381 13.4636 39.1712L13.8774 38.2415C14.62 38.7234 15.2323 38.9217 15.8672 38.9217C16.5815 38.9217 17.137 38.6042 17.137 37.8616C17.1426 37.2154 16.3887 36.8696 15.425 36.4445ZM18.8659 32.0739H24.3931V33.2755H22.3068V39.9306H20.9633V33.2755H18.8659V32.0739ZM25.2715 38.3945C25.7307 38.3945 26.1106 38.7684 26.1106 39.2276C26.1106 39.6868 25.7307 40.0666 25.2715 40.0666C24.8124 40.0666 24.4384 39.6868 24.4384 39.2276C24.4384 38.7684 24.8124 38.3945 25.2715 38.3945ZM31.1897 43.1902V28.276H0.658203L2.07538 35.9853L0.658203 43.1843H31.1897V43.1902Z" fill="#314E52"></path><path fill-rule="evenodd" clip-rule="evenodd" d="M116.991 34.2862C117.563 34.2862 118.028 33.8609 118.028 33.26C118.028 32.6478 117.569 32.2341 116.991 32.2341C116.43 32.2341 115.965 32.6478 115.965 33.26C115.965 33.8609 116.424 34.2862 116.991 34.2862Z" fill="#314E52"></path><path fill-rule="evenodd" clip-rule="evenodd" d="M110.524 32.3171C109.77 32.3171 109.146 32.8671 109.146 33.7288C109.146 34.5904 109.77 35.1404 110.524 35.1404C111.278 35.1404 111.901 34.5847 111.901 33.7288C111.901 32.8671 111.278 32.3171 110.524 32.3171Z" fill="#314E52"></path><path fill-rule="evenodd" clip-rule="evenodd" d="M125.46 31.6709L122.387 39.1532H121.044L123.81 32.4985H120.301V31.2965H125.46V31.6709ZM116.99 39.2782C115.505 39.2782 114.303 38.2066 114.303 36.8064C114.303 35.9448 114.763 35.1909 115.483 34.7941C115.001 34.4427 114.717 33.8646 114.717 33.2524C114.717 32.0733 115.721 31.1661 116.99 31.1661C118.277 31.1661 119.275 32.0733 119.275 33.2524C119.275 33.8646 118.991 34.4313 118.51 34.7941C119.23 35.1966 119.677 35.9504 119.677 36.8064C119.677 38.2066 118.487 39.2782 116.99 39.2782ZM112.416 35.7577L110.12 39.1477H108.612L110.658 36.166C109.117 36.4324 107.83 35.2592 107.83 33.7229C107.83 32.3001 109.032 31.155 110.517 31.155C111.991 31.155 113.204 32.2944 113.204 33.7229C113.21 34.5052 112.784 35.2135 112.416 35.7577ZM106.832 39.1477H103.312V38.1558H104.395V33.1503L103.136 33.6946L102.842 33.1728L105.149 31.1606H105.738V38.1558H106.832V39.1477ZM99.8145 27.4872V42.4014H130.346L128.929 35.2024L130.346 27.4931H99.8145V27.4872Z" fill="#314E52"></path><path fill-rule="evenodd" clip-rule="evenodd" d="M116.991 35.431C116.225 35.431 115.613 35.964 115.613 36.7973C115.613 37.625 116.225 38.1519 116.991 38.1519C117.767 38.1519 118.368 37.6193 118.368 36.7973C118.368 35.9584 117.767 35.431 116.991 35.431Z" fill="#314E52"></path><path fill-rule="evenodd" clip-rule="evenodd" d="M20.3052 61.4882L19.1091 59.595L8.00977 66.5902L11.6489 72.3609L13.3498 71.2953L10.9064 67.4178L20.3052 61.4882Z" fill="#314E52"></path><path fill-rule="evenodd" clip-rule="evenodd" d="M22.3813 75.4783L23.8891 74.1517L21.1513 71.034L23.3393 69.1124L26.4401 72.6439L27.9479 71.3233L23.3677 66.1023L13.5098 74.7583L18.2204 80.1266L19.7286 78.8001L16.4974 75.1212L19.6435 72.3605L22.3813 75.4783Z" fill="#314E52"></path><path fill-rule="evenodd" clip-rule="evenodd" d="M29.15 80.6938L28.039 82.0999L29.4732 83.2334L28.039 85.0533C27.2397 85.178 26.4855 84.9568 25.8223 84.4353C24.3711 83.2903 24.292 80.9433 26.1797 78.5511C28.0447 76.1872 30.414 75.853 31.9729 77.0831C32.8402 77.7633 33.3049 78.8572 33.2482 79.9399L34.9602 79.7358C35.221 78.0408 34.4558 76.4309 33.0669 75.3369C30.397 73.2281 26.7011 74.1975 24.3826 77.1339C22.0698 80.0703 21.8601 83.7605 24.411 85.7729C25.352 86.5155 26.4858 86.8841 27.5685 86.8161L27.4266 87.8817L28.0899 88.4035L32.2393 83.1372L29.15 80.6938Z" fill="#314E52"></path><path fill-rule="evenodd" clip-rule="evenodd" d="M41.4897 86.3812L40.6392 88.1101L36.6541 86.1487L37.5045 84.4198C38.4172 82.5661 39.7322 82.0276 40.8772 82.5888C42.0223 83.15 42.3966 84.5275 41.4897 86.3812ZM41.773 80.7578C39.5112 79.6467 36.9149 80.5195 35.458 83.4842L31.8867 90.7572L33.8993 91.7492L35.7642 87.9513L39.7549 89.9127L37.89 93.7106L39.9023 94.697L43.4736 87.424C44.9304 84.4536 44.0348 81.8689 41.773 80.7578Z" fill="#314E52"></path><path fill-rule="evenodd" clip-rule="evenodd" d="M49.743 84.1024L47.5889 83.4904L44.0176 96.1145L50.582 97.9679L51.1318 96.0408L46.7215 94.7935L49.743 84.1024Z" fill="#314E52"></path><path fill-rule="evenodd" clip-rule="evenodd" d="M62.6516 91.5774C61.4329 90.9822 60.5656 90.4605 60.5996 89.4572C60.6336 88.4538 61.4442 87.8303 62.68 87.8756C63.604 87.9097 64.5734 88.3574 65.5711 89.1624L66.2911 87.649C65.3274 86.6116 64.0463 86.0163 62.6745 85.971C60.4524 85.8916 58.5362 87.2406 58.4569 89.4457C58.3832 91.4921 59.7041 92.6203 61.4047 93.4423C62.9919 94.2075 64.2277 94.8199 64.1937 95.9026C64.1484 97.1384 63.2073 97.6371 62.0112 97.5917C60.9512 97.552 59.9366 97.1837 58.7292 96.3333L57.9863 97.864C59.0124 98.8447 60.4692 99.4454 61.9431 99.4964C64.2616 99.5757 66.2741 98.3513 66.3648 95.7777C66.4328 93.4989 64.698 92.5524 62.6516 91.5774Z" fill="#314E52"></path><path fill-rule="evenodd" clip-rule="evenodd" d="M71.7668 96.9189L71.2167 92.7639L75.3267 92.2197L75.0658 90.2299L70.9562 90.78L70.5707 87.8945L75.2302 87.2765L74.9638 85.2867L68.082 86.1995L69.8109 99.2035L76.8854 98.2624L76.619 96.2729L71.7668 96.9189Z" fill="#314E52"></path><path fill-rule="evenodd" clip-rule="evenodd" d="M82.452 90.2342L80.8079 90.7785L79.2775 86.1301L80.9213 85.5859C82.2818 85.1381 83.5798 85.5574 84.1013 87.1276C84.6172 88.6922 83.8182 89.7807 82.452 90.2342ZM86.2838 86.4021C85.5356 84.1233 83.3079 82.7684 80.5075 83.6867L76.5449 84.9904L80.649 97.4447L82.7748 96.7416L81.4088 92.5922L83.0869 92.0368L87.684 95.1148L90.1669 94.293L85.1047 90.9314C86.4652 89.7807 86.8337 88.063 86.2838 86.4021Z" fill="#314E52"></path><path fill-rule="evenodd" clip-rule="evenodd" d="M92.4177 78.1504L94.2657 87.9063L86.9418 81.2058L84.8613 82.368L95.4164 91.5907L96.7938 90.8198L94.4809 76.9996L92.4177 78.1504Z" fill="#314E52"></path><path fill-rule="evenodd" clip-rule="evenodd" d="M104.99 83.0067L98.8334 75.3711L100.256 74.2203L99.2189 72.9336L94.6387 76.6239L95.6759 77.9106L97.0876 76.7713L103.244 84.4125L101.832 85.5518L102.87 86.8389L107.45 83.1486L106.413 81.8615L104.99 83.0067Z" fill="#314E52"></path><path fill-rule="evenodd" clip-rule="evenodd" d="M112.582 73.127C112.786 74.1871 112.678 75.1562 111.941 75.9724C110.767 77.2706 108.483 77.2425 106.25 75.2244C104.022 73.2064 103.755 70.9217 104.929 69.6235C105.665 68.8073 106.618 68.609 107.706 68.7167L107.621 66.9933C105.989 66.6022 104.464 67.0784 103.279 68.3936C101.113 70.7857 101.947 74.4023 104.719 76.9135C107.485 79.4191 111.159 79.8782 113.324 77.4917C114.509 76.1766 114.809 74.6517 114.282 73.0305L112.582 73.127Z" fill="#314E52"></path><path fill-rule="evenodd" clip-rule="evenodd" d="M117.342 68.5177L113.788 66.301L115.982 62.7809L114.275 61.7208L112.082 65.2412L109.61 63.705L112.099 59.714L110.392 58.6539L106.725 64.5437L117.863 71.4822L121.633 65.4166L119.927 64.3569L117.342 68.5177Z" fill="#314E52"></path></svg>