<svg xmlns="http://www.w3.org/2000/svg" width="120" height="100" viewBox="0 0 120 100" fill="none"><path fill-rule="evenodd" clip-rule="evenodd" d="M18.738 76.0895C20.3085 75.8731 20.847 74.0472 20.8581 74.0528C20.8414 74.0583 19.01 72.682 17.4783 72.7985C15.9299 72.9261 14.4148 74.6798 14.4203 74.6909C14.3981 74.7076 17.1397 76.3282 18.738 76.0895Z" fill="white"></path><path fill-rule="evenodd" clip-rule="evenodd" d="M22.4441 71.5907C22.4109 70.0979 21.0847 67.9113 21.1069 67.9058C21.118 67.9113 19.3421 69.4376 19.2422 70.9471C19.1312 72.4677 20.8517 74.0714 20.8572 74.0603C20.8683 74.0659 22.4552 73.0947 22.4441 71.5907Z" fill="white"></path><path fill-rule="evenodd" clip-rule="evenodd" d="M9.64737 69.2358C9.62517 69.2524 12.0337 71.1891 13.6209 71.178C15.1804 71.178 16.0127 69.4799 16.0238 69.4854C16.0072 69.491 14.4589 67.9036 12.9438 67.8148C11.4121 67.726 9.64182 69.2247 9.64737 69.2358Z" fill="white"></path><path fill-rule="evenodd" clip-rule="evenodd" d="M17.977 67.3001C18.199 65.8461 17.2723 63.543 17.2945 63.543C17.2945 63.543 15.3188 64.7916 14.9692 66.2456C14.6084 67.7107 16.0126 69.5032 16.0182 69.4865C16.0293 69.4976 17.7328 68.7652 17.977 67.3001Z" fill="white"></path><path fill-rule="evenodd" clip-rule="evenodd" d="M12.0607 64.3917C12.044 64.3917 10.7843 62.638 9.31361 62.3383C7.82632 62.0387 5.85052 63.2597 5.85052 63.2708C5.82832 63.2819 7.88187 65.5071 9.44131 65.7069C10.9675 65.9178 12.0551 64.375 12.0607 64.3917Z" fill="white"></path><path fill-rule="evenodd" clip-rule="evenodd" d="M14.3311 62.5335C14.7806 61.1516 14.2368 58.7764 14.259 58.7764C14.259 58.7764 12.1225 59.7198 11.5509 61.0905C10.9682 62.4668 12.0502 64.4037 12.0613 64.3981C12.0724 64.4037 13.8594 63.9264 14.3311 62.5335Z" fill="white"></path><path fill-rule="evenodd" clip-rule="evenodd" d="M6.58888 56.4786C5.16262 55.9791 3.03162 56.8946 3.03162 56.9057C3.01497 56.9168 4.69654 59.3809 6.19494 59.7916C7.66559 60.2134 8.97538 58.8592 8.98093 58.8703C8.96983 58.8758 7.99848 56.9836 6.58888 56.4786Z" fill="white"></path><path fill-rule="evenodd" clip-rule="evenodd" d="M11.5061 57.3778C12.1666 56.0903 11.9886 53.6929 12.0108 53.6929C12.0108 53.6929 9.758 54.3201 8.99215 55.5799C8.20966 56.8452 8.9753 58.8873 8.9864 58.8818C8.9864 58.8818 10.8235 58.6653 11.5061 57.3778Z" fill="white"></path><path fill-rule="evenodd" clip-rule="evenodd" d="M3.89789 53.5467C5.2853 54.1682 6.78367 53.025 6.78922 53.0417C6.77812 53.0361 6.09565 51.0439 4.77484 50.3502C3.44293 49.6565 1.19523 50.2614 1.19523 50.2614C1.17858 50.2725 2.48274 52.9307 3.89789 53.5467Z" fill="white"></path><path fill-rule="evenodd" clip-rule="evenodd" d="M9.50288 51.9279C10.3464 50.7625 10.524 48.3818 10.5461 48.3818C10.5461 48.3929 8.23189 48.6759 7.2829 49.8024C6.32282 50.9346 6.77794 53.0489 6.78904 53.0433C6.78904 53.0544 8.63714 53.0989 9.50288 51.9279Z" fill="white"></path><path fill-rule="evenodd" clip-rule="evenodd" d="M3.86992 44.0647C2.649 43.1879 0.345856 43.4597 0.345856 43.4597C0.323658 43.4653 1.23377 46.279 2.54349 47.0837C3.831 47.894 5.47377 46.9838 5.47377 47.0004C5.45712 47.0004 5.07419 44.936 3.86992 44.0647Z" fill="white"></path><path fill-rule="evenodd" clip-rule="evenodd" d="M8.31567 46.295C9.32015 45.2683 9.83614 42.9432 9.85279 42.9487C9.85834 42.9598 7.52205 42.9042 6.42323 43.8809C5.3133 44.8632 5.45761 47.0108 5.46871 47.0053C5.46871 47.0053 7.29454 47.3217 8.31567 46.295Z" fill="white"></path><path fill-rule="evenodd" clip-rule="evenodd" d="M0.462377 36.616C0.440178 36.6216 0.939707 39.5296 2.12178 40.5174C3.2761 41.5052 5.03546 40.845 5.03546 40.8561C5.01882 40.8506 4.93558 38.7584 3.8645 37.7206C2.78787 36.6772 0.462377 36.616 0.462377 36.616Z" fill="white"></path><path fill-rule="evenodd" clip-rule="evenodd" d="M6.42283 37.9028C5.18526 38.7131 5.02432 40.8605 5.03542 40.8494C5.03542 40.866 6.78911 41.4265 7.95453 40.5608C9.09775 39.6895 9.93553 37.4644 9.95773 37.4699C9.95773 37.4866 7.64929 37.0981 6.42283 37.9028Z" fill="white"></path><path fill-rule="evenodd" clip-rule="evenodd" d="M4.77478 31.4258C3.85355 30.2327 1.56133 29.8389 1.56133 29.8389C1.53913 29.8389 1.61686 32.8022 2.64354 33.951C3.64803 35.0942 5.48487 34.6946 5.47933 34.7057C5.46823 34.7001 5.68492 32.6135 4.77478 31.4258Z" fill="white"></path><path fill-rule="evenodd" clip-rule="evenodd" d="M7.27723 31.9824C5.93422 32.6095 5.46785 34.7126 5.47895 34.7071C5.47895 34.7182 7.13295 35.5342 8.40382 34.8405C9.65803 34.1413 10.8124 32.0544 10.8291 32.0599C10.8346 32.071 8.60914 31.3553 7.27723 31.9824Z" fill="white"></path><path fill-rule="evenodd" clip-rule="evenodd" d="M6.58904 25.299C5.85094 23.9782 3.65325 23.2513 3.64215 23.2569C3.61441 23.2569 3.25948 26.2203 4.10857 27.5078C4.93547 28.7898 6.81103 28.6513 6.80548 28.668C6.80548 28.668 7.31049 26.6087 6.58904 25.299Z" fill="white"></path><path fill-rule="evenodd" clip-rule="evenodd" d="M9.68603 29.2237C11.029 28.7076 12.4774 26.7931 12.494 26.8042C12.494 26.8153 10.3962 25.7773 8.98657 26.2101C7.56032 26.643 6.79444 28.6689 6.80554 28.6689C6.80554 28.6856 8.32637 29.7288 9.68603 29.2237Z" fill="white"></path><path fill-rule="evenodd" clip-rule="evenodd" d="M9.30779 19.4448C8.78058 18.0185 6.69963 16.9864 6.69963 16.9864C6.67188 16.9808 5.86152 19.8946 6.51638 21.2986C7.14349 22.6971 9.01933 22.8301 9.01378 22.8412C9.00268 22.8301 9.8239 20.8599 9.30779 19.4448Z" fill="white"></path><path fill-rule="evenodd" clip-rule="evenodd" d="M11.5504 20.6936C10.0742 20.9267 9.00283 22.8357 9.01948 22.8357C9.01393 22.8524 10.3626 24.1122 11.7889 23.8014C13.1985 23.4795 14.9301 21.7701 14.9468 21.7867C14.9357 21.7922 13.0155 20.4606 11.5504 20.6936Z" fill="white"></path><path fill-rule="evenodd" clip-rule="evenodd" d="M12.9378 13.9691C12.6437 12.4707 10.7458 11.1276 10.7402 11.1387C10.718 11.1276 9.43594 13.936 9.86326 15.4344C10.2628 16.9217 12.1109 17.3212 12.0998 17.3323C12.0887 17.3156 13.2209 15.462 12.9378 13.9691Z" fill="white"></path><path fill-rule="evenodd" clip-rule="evenodd" d="M14.964 15.5397C13.449 15.5619 12.0838 17.3266 12.1005 17.3322C12.0949 17.3433 13.2381 18.7974 14.7032 18.6864C16.1517 18.5643 18.1549 17.0991 18.166 17.1157C18.166 17.1157 16.4624 15.5119 14.964 15.5397Z" fill="white"></path><path fill-rule="evenodd" clip-rule="evenodd" d="M15.6465 10.2597C14.3368 11.6249 14.6921 13.8282 14.7032 13.8115C14.7143 13.7949 16.8675 13.767 18.044 12.546C19.1484 11.3029 20.9629 7.57916 21.0295 7.57361C21.0295 7.52921 16.9229 8.83897 15.6465 10.2597Z" fill="white"></path><path fill-rule="evenodd" clip-rule="evenodd" d="M102.725 72.8039C101.194 72.6873 99.3566 74.0637 99.3455 74.0582C99.3566 74.0471 99.895 75.8785 101.466 76.0949C103.064 76.3335 105.805 74.713 105.789 74.6963C105.789 74.6852 104.274 72.926 102.725 72.8039Z" fill="white"></path><path fill-rule="evenodd" clip-rule="evenodd" d="M100.961 70.9414C100.861 69.4319 99.0849 67.9059 99.0959 67.9004C99.1181 67.9059 97.792 70.0925 97.7587 71.5853C97.742 73.0893 99.3289 74.0605 99.3456 74.055C99.3511 74.0716 101.072 72.462 100.961 70.9414Z" fill="white"></path><path fill-rule="evenodd" clip-rule="evenodd" d="M106.582 71.18C108.17 71.1967 110.573 69.2545 110.556 69.2378C110.561 69.2267 108.791 67.7282 107.259 67.8114C105.75 67.9058 104.196 69.4872 104.179 69.4817C104.191 69.4761 105.023 71.18 106.582 71.18Z" fill="white"></path><path fill-rule="evenodd" clip-rule="evenodd" d="M105.234 66.2399C104.89 64.7914 102.903 63.5485 102.914 63.543C102.936 63.5485 102.009 65.8516 102.226 67.3001C102.47 68.7652 104.174 69.4919 104.185 69.4808C104.19 69.4974 105.589 67.705 105.234 66.2399Z" fill="white"></path><path fill-rule="evenodd" clip-rule="evenodd" d="M110.889 62.3383C109.413 62.638 108.153 64.3917 108.136 64.3917C108.142 64.375 109.235 65.9178 110.761 65.7069C112.315 65.5071 114.369 63.2819 114.352 63.2708C114.352 63.2597 112.376 62.0387 110.889 62.3383Z" fill="white"></path><path fill-rule="evenodd" clip-rule="evenodd" d="M108.647 61.0851C108.075 59.7144 105.928 58.7821 105.939 58.771C105.956 58.771 105.412 61.1462 105.867 62.5281C106.344 63.9211 108.125 64.3984 108.137 64.3873C108.148 64.404 109.23 62.4615 108.647 61.0851Z" fill="white"></path><path fill-rule="evenodd" clip-rule="evenodd" d="M113.608 56.4786C112.204 56.978 111.228 58.8703 111.217 58.8703C111.222 58.8592 112.532 60.2134 114.003 59.7916C115.501 59.3754 117.188 56.9168 117.166 56.9057C117.166 56.8946 115.035 55.9791 113.608 56.4786Z" fill="white"></path><path fill-rule="evenodd" clip-rule="evenodd" d="M111.211 55.5742C110.44 54.3144 108.187 53.6986 108.192 53.6875C108.209 53.6875 108.031 56.0905 108.692 57.3725C109.374 58.6655 111.206 58.8817 111.217 58.8706C111.228 58.8817 111.999 56.8395 111.211 55.5742Z" fill="white"></path><path fill-rule="evenodd" clip-rule="evenodd" d="M115.423 50.3506C114.108 51.0443 113.425 53.0366 113.408 53.0421C113.408 53.0255 114.907 54.1687 116.3 53.5472C117.715 52.9312 119.019 50.273 118.997 50.2619C118.997 50.2619 116.76 49.6625 115.423 50.3506Z" fill="white"></path><path fill-rule="evenodd" clip-rule="evenodd" d="M112.92 49.8024C111.976 48.6759 109.656 48.3929 109.656 48.3818C109.679 48.3818 109.856 50.7625 110.7 51.9279C111.565 53.0989 113.408 53.0544 113.414 53.0433C113.425 53.0489 113.88 50.9346 112.92 49.8024Z" fill="white"></path><path fill-rule="evenodd" clip-rule="evenodd" d="M117.66 47.0837C118.969 46.279 119.879 43.4708 119.857 43.4597C119.857 43.4597 117.549 43.1879 116.328 44.0647C115.123 44.936 114.74 47.0003 114.729 47.0058C114.729 46.9892 116.372 47.8995 117.66 47.0837Z" fill="white"></path><path fill-rule="evenodd" clip-rule="evenodd" d="M114.729 47.0002C114.741 47.0058 114.885 44.8582 113.775 43.8759C112.676 42.8991 110.34 42.9545 110.34 42.9434C110.356 42.9378 110.872 45.2633 111.882 46.2899C112.909 47.3222 114.724 47.0113 114.729 47.0002Z" fill="white"></path><path fill-rule="evenodd" clip-rule="evenodd" d="M118.081 40.5181C119.263 39.5358 119.763 36.6222 119.74 36.6167C119.74 36.6056 117.415 36.6779 116.333 37.7212C115.267 38.759 115.178 40.8512 115.167 40.8568C115.162 40.8401 116.921 41.5003 118.081 40.5181Z" fill="white"></path><path fill-rule="evenodd" clip-rule="evenodd" d="M112.249 40.5663C113.408 41.432 115.168 40.8715 115.168 40.8549C115.184 40.8604 115.018 38.7182 113.78 37.908C112.554 37.1033 110.251 37.4916 110.251 37.4805C110.262 37.4639 111.105 39.695 112.249 40.5663Z" fill="white"></path><path fill-rule="evenodd" clip-rule="evenodd" d="M117.554 33.951C118.587 32.8078 118.664 29.8445 118.637 29.8389C118.637 29.8389 116.35 30.2327 115.429 31.4258C114.519 32.6135 114.735 34.7001 114.719 34.7057C114.719 34.6946 116.55 35.0998 117.554 33.951Z" fill="white"></path><path fill-rule="evenodd" clip-rule="evenodd" d="M111.794 34.8405C113.07 35.5342 114.724 34.7182 114.718 34.7071C114.735 34.7126 114.269 32.6095 112.92 31.9824C111.594 31.3553 109.368 32.071 109.368 32.0599C109.38 32.0544 110.539 34.1413 111.794 34.8405Z" fill="white"></path><path fill-rule="evenodd" clip-rule="evenodd" d="M116.089 27.5078C116.944 26.2203 116.583 23.2569 116.555 23.2569C116.555 23.2569 114.346 23.9782 113.608 25.299C112.887 26.6087 113.403 28.6569 113.392 28.668C113.386 28.6513 115.262 28.7898 116.089 27.5078Z" fill="white"></path><path fill-rule="evenodd" clip-rule="evenodd" d="M110.511 29.2242C111.871 29.7347 113.397 28.686 113.392 28.6693C113.408 28.6693 112.637 26.6434 111.21 26.2105C109.801 25.7777 107.703 26.8047 107.703 26.8047C107.72 26.7936 109.168 28.7025 110.511 29.2242Z" fill="white"></path><path fill-rule="evenodd" clip-rule="evenodd" d="M113.686 21.2986C114.335 19.8946 113.525 16.9808 113.497 16.9864C113.497 16.9864 111.416 18.0243 110.889 19.4506C110.373 20.8657 111.194 22.8356 111.183 22.8412C111.178 22.8245 113.059 22.6971 113.686 21.2986Z" fill="white"></path><path fill-rule="evenodd" clip-rule="evenodd" d="M111.189 22.8357C111.206 22.8357 110.134 20.9267 108.653 20.6936C107.187 20.4606 105.262 21.7867 105.262 21.7867C105.279 21.7701 107.01 23.4795 108.42 23.8014C109.84 24.1122 111.189 22.8524 111.189 22.8357Z" fill="white"></path><path fill-rule="evenodd" clip-rule="evenodd" d="M110.339 15.4287C110.767 13.9247 109.49 11.1222 109.462 11.1333C109.451 11.1278 107.559 12.4653 107.265 13.9637C106.982 15.4565 108.108 17.3158 108.097 17.3269C108.092 17.3158 109.934 16.916 110.339 15.4287Z" fill="white"></path><path fill-rule="evenodd" clip-rule="evenodd" d="M108.097 17.3322C108.114 17.3266 106.749 15.5674 105.234 15.5397C103.735 15.5119 102.037 17.1214 102.031 17.1103C102.048 17.0937 104.046 18.5641 105.495 18.6806C106.965 18.7972 108.097 17.3322 108.097 17.3322Z" fill="white"></path><path fill-rule="evenodd" clip-rule="evenodd" d="M104.552 10.2602C103.275 8.83952 99.1682 7.52408 99.1682 7.57958C99.2348 7.58513 101.055 11.3089 102.154 12.552C103.331 13.7729 105.484 13.8064 105.495 13.8175C105.506 13.8286 105.867 11.631 104.552 10.2602Z" fill="white"></path><path fill-rule="evenodd" clip-rule="evenodd" d="M1.60034 99.3381H7.20551V97.4124H3.7204V85.8525H1.60034V99.3381Z" fill="white"></path><path fill-rule="evenodd" clip-rule="evenodd" d="M11.1732 88.2446L12.1944 95.0651H10.1523L11.1732 88.2446ZM9.88026 96.8908H12.483L12.8492 99.3381H14.9858L12.8271 85.8525H9.72479L7.57153 99.3381H9.5141L9.88026 96.8908Z" fill="white"></path><path fill-rule="evenodd" clip-rule="evenodd" d="M19.9027 99.3381L20.6739 92.1514L21.4398 99.3381H24.2536L25.7575 85.8525H23.9094L22.8106 96.5633L21.7504 85.8525H19.7082L18.687 96.4857L17.5496 85.8525H15.4905L16.989 99.3381H19.9027Z" fill="white"></path><path fill-rule="evenodd" clip-rule="evenodd" d="M30.9192 94.8707L33.5995 85.8525H31.574L29.9589 91.9959L28.3385 85.8525H26.1243L28.7992 94.8707V99.3381H30.9192V94.8707Z" fill="white"></path><path fill-rule="evenodd" clip-rule="evenodd" d="M40.2258 87.7785V85.8525H34.4431V99.3381H40.2258V97.4124H36.5628V93.4613H39.4765V91.5353H36.5628V87.7785H40.2258Z" fill="white"></path><path fill-rule="evenodd" clip-rule="evenodd" d="M45.7527 90.4978C45.7527 91.5744 45.2699 91.9238 44.4818 91.9238H43.655V87.784H44.6763C45.4255 87.784 45.7527 88.2058 45.7527 89.1714V90.4978ZM45.9638 99.3381H48.1224C47.9115 98.8331 47.8894 98.3559 47.8894 97.7011V95.62C47.8894 94.2104 47.5398 93.1948 46.4854 92.7452C47.4288 92.3013 47.8728 91.3968 47.8728 90.0094V88.9495C47.8728 86.8684 46.9295 85.8472 44.7318 85.8472H41.5295V99.3327H43.6496V93.8386H44.3819C45.342 93.8386 45.7693 94.3049 45.7693 95.5536V97.6733C45.7749 98.7777 45.8472 98.9941 45.9638 99.3381Z" fill="white"></path><path fill-rule="evenodd" clip-rule="evenodd" d="M56.6022 96.3912C56.5633 97.2403 56.1416 97.5679 55.5033 97.5679C54.8318 97.5679 54.4045 97.2017 54.4045 96.2361V94.9818C54.4045 93.7276 54.8263 93.2668 55.7919 93.2668H56.6022V96.3912ZM59.2771 93.2668V91.3412H58.7165V89.8373H56.5967V91.3412H55.6697C54.8816 91.3412 54.3988 90.997 54.3988 89.9148V89.088C54.3988 88.1224 54.8041 87.7785 55.4756 87.7785H57.8673V85.8525H55.4366C53.3167 85.8525 52.2791 87.0291 52.2791 89.1879V89.4376C52.2791 90.8805 52.7395 91.7906 53.744 92.2124C52.7007 92.673 52.2791 93.6775 52.2791 95.0427V96.4081C52.2791 98.3893 53.0727 99.4936 54.6322 99.4936C55.5756 99.4936 56.2305 99.0663 56.5967 98.2782C56.6356 98.8776 56.6909 99.0661 56.7908 99.3381H58.9495C58.7386 98.8331 58.7222 98.3559 58.7222 97.701V93.2668H59.2771Z" fill="white"></path><path fill-rule="evenodd" clip-rule="evenodd" d="M68.8339 87.7785V85.8525H63.2288V99.3381H65.3488V93.7719H68.0847V91.8408H65.3488V87.7785H68.8339Z" fill="white"></path><path fill-rule="evenodd" clip-rule="evenodd" d="M74.0726 90.4978C74.0726 91.5744 73.5897 91.9238 72.8017 91.9238H71.9748V87.784H72.9958C73.745 87.784 74.0726 88.2058 74.0726 89.1714V90.4978ZM74.2832 99.3381H76.4423C76.2314 98.8331 76.2092 98.3559 76.2092 97.7011V95.62C76.2092 94.2104 75.8593 93.1948 74.8049 92.7452C75.7483 92.3013 76.1923 91.3968 76.1923 90.0094V88.9495C76.1923 86.8684 75.249 85.8472 73.0513 85.8472H69.8494V99.3327H71.9691V93.8386H72.7017C73.6618 93.8386 74.0891 94.3049 74.0891 95.5536V97.6733C74.0891 98.7777 74.1667 98.9941 74.2832 99.3381Z" fill="white"></path><path fill-rule="evenodd" clip-rule="evenodd" d="M79.7166 99.3381V85.8525H77.6023V99.3381H79.7166Z" fill="white"></path><path fill-rule="evenodd" clip-rule="evenodd" d="M87.0422 87.7785V85.8525H81.2595V99.3381H87.0422V97.4124H83.3796V93.4613H86.2875V91.5353H83.3796V87.7785H87.0422Z" fill="white"></path><path fill-rule="evenodd" clip-rule="evenodd" d="M95.0499 85.8525H93.1632V93.9219L90.9876 85.8525H88.3293V99.3381H90.2384V89.571L92.8747 99.3381H95.0499V85.8525Z" fill="white"></path><path fill-rule="evenodd" clip-rule="evenodd" d="M98.6907 97.4124V87.7785H99.8895C100.561 87.7785 100.966 88.1224 100.966 89.088V96.1029C100.966 97.063 100.561 97.4124 99.8895 97.4124H98.6907ZM103.086 96.0084V89.1879C103.086 87.0291 102.048 85.8525 99.9284 85.8525H96.5764V99.3381H99.9284C102.048 99.3381 103.086 98.1617 103.086 96.0084Z" fill="white"></path><path fill-rule="evenodd" clip-rule="evenodd" d="M106.283 85.8525H104.24V87.895H105.051L104.49 89.8207H105.362L106.283 87.684V85.8525Z" fill="white"></path><path fill-rule="evenodd" clip-rule="evenodd" d="M109.579 88.9557C109.579 87.99 109.962 87.6238 110.639 87.6238C111.316 87.6238 111.699 87.99 111.699 88.9557V89.5163H113.702V89.0946C113.702 86.9358 112.642 85.7036 110.583 85.7036C108.525 85.7036 107.465 86.9358 107.465 89.0946C107.465 92.946 111.605 93.4675 111.605 96.2423C111.605 97.2079 111.183 97.5521 110.506 97.5521C109.829 97.5521 109.407 97.2079 109.407 96.2423V95.2823H107.404V96.1092C107.404 98.268 108.48 99.5001 110.561 99.5001C112.643 99.5001 113.719 98.268 113.719 96.1092C113.719 92.2522 109.579 91.7305 109.579 88.9557Z" fill="white"></path><path fill-rule="evenodd" clip-rule="evenodd" d="M45.9412 40.2607C45.4473 40.2607 45.0535 39.8609 45.0535 39.3726C45.0535 38.8842 45.4529 38.4848 45.9412 38.4848C46.4296 38.4848 46.8348 38.8786 46.8348 39.3726C46.8348 39.8665 46.4352 40.2607 45.9412 40.2607ZM33.6599 40.2607C33.1659 40.2607 32.7721 39.8609 32.7721 39.3726C32.7721 38.8842 33.1715 38.4848 33.6599 38.4848C34.1538 38.4848 34.548 38.8786 34.548 39.3726C34.548 39.8665 34.1538 40.2607 33.6599 40.2607ZM45.9412 36.8921H33.6599C32.2891 36.8921 31.1848 38.0019 31.1848 39.3671C31.1848 40.7379 32.2891 41.8422 33.6599 41.8422C35.0306 41.8422 36.1352 40.7323 36.1352 39.3671H43.4608C43.4608 40.7379 44.5706 41.8422 45.9358 41.8422C47.3066 41.8422 48.4163 40.7323 48.4163 39.3671C48.4218 38.0019 47.312 36.8921 45.9412 36.8921Z" fill="white"></path><path fill-rule="evenodd" clip-rule="evenodd" d="M41.7624 66.7112V43.1195H42.8002V66.7112H41.7624ZM36.668 43.1195H37.7055V66.7112H36.668V43.1195ZM39.2152 43.1195H40.2531V66.7112H39.2152V43.1195ZM42.9777 39.9897H36.668C36.3905 41.0331 36.0018 41.6768 35.1028 41.9709V66.7054H33.6656V69.1419H31.7786V74.0699H47.8337V69.1419H45.947V66.7054H44.5094V41.9709C43.4661 41.6213 43.2552 41.0053 42.9777 39.9897Z" fill="white"></path><path fill-rule="evenodd" clip-rule="evenodd" d="M65.787 40.2607C65.2931 40.2607 64.8938 39.8609 64.8938 39.3726C64.8938 38.8842 65.2931 38.4848 65.787 38.4848C66.2809 38.4848 66.6805 38.8786 66.6805 39.3726C66.6805 39.8665 66.2809 40.2607 65.787 40.2607ZM53.5114 40.2607C53.0175 40.2607 52.6236 39.8609 52.6236 39.3726C52.6236 38.8842 53.023 38.4848 53.5114 38.4848C53.9997 38.4848 54.3992 38.8786 54.3992 39.3726C54.3992 39.8665 53.9997 40.2607 53.5114 40.2607ZM65.787 36.8921H53.5059C52.1352 36.8921 51.0251 38.0019 51.0251 39.3671C51.0251 40.7379 52.1352 41.8422 53.5059 41.8422C54.8712 41.8422 55.981 40.7323 55.981 39.3671H63.3065C63.3065 40.7379 64.4164 41.8422 65.7816 41.8422C67.1523 41.8422 68.2624 40.7323 68.2624 39.3671C68.2679 38.0019 67.1577 36.8921 65.787 36.8921Z" fill="white"></path><path fill-rule="evenodd" clip-rule="evenodd" d="M61.6081 66.7112V43.1195H62.646V66.7112H61.6081ZM56.5138 43.1195H57.5516V66.7112H56.5138V43.1195ZM59.061 43.1195H60.0988V66.7112H59.061V43.1195ZM62.8235 39.9897H56.5138C56.2363 41.0331 55.8477 41.6768 54.9431 41.9709V66.7054H53.5059V69.1419H51.6189V74.0699H67.6794V69.1419H65.7927V66.7054H64.3552V41.9709C63.3119 41.6213 63.1065 41.0053 62.8235 39.9897Z" fill="white"></path><path fill-rule="evenodd" clip-rule="evenodd" d="M84.7557 40.2607C84.2618 40.2607 83.8676 39.8609 83.8676 39.3726C83.8676 38.8842 84.2673 38.4848 84.7557 38.4848C85.2441 38.4848 85.6435 38.8786 85.6435 39.3726C85.6435 39.8665 85.2441 40.2607 84.7557 40.2607ZM72.4743 40.2607C71.9804 40.2607 71.5808 39.8609 71.5808 39.3726C71.5808 38.8842 71.9804 38.4848 72.4743 38.4848C72.9627 38.4848 73.3624 38.8786 73.3624 39.3726C73.3624 39.8665 72.9682 40.2607 72.4743 40.2607ZM84.7557 36.8921H72.4801C71.1093 36.8921 69.9993 38.0019 69.9993 39.3671C69.9993 40.7379 71.1093 41.8422 72.4801 41.8422C73.8453 41.8422 74.9551 40.7323 74.9551 39.3671H82.2807C82.2807 40.7379 83.3905 41.8422 84.7557 41.8422C86.1265 41.8422 87.2365 40.7323 87.2365 39.3671C87.2309 38.0019 86.1265 36.8921 84.7557 36.8921Z" fill="white"></path><path fill-rule="evenodd" clip-rule="evenodd" d="M80.5764 66.7112V43.1195H81.6143V66.7112H80.5764ZM75.4817 43.1195H76.5195V66.7112H75.4817V43.1195ZM78.0292 43.1195H79.0667V66.7112H78.0292V43.1195ZM81.786 39.9897H75.4763C75.1988 41.0331 74.8104 41.6768 73.9114 41.9709V66.7054H72.4738V69.1419H70.5872V74.0699H86.6419V69.1419H84.7552V66.7054H83.3177V41.9709C82.2744 41.6213 82.069 41.0053 81.786 39.9897Z" fill="white"></path><path fill-rule="evenodd" clip-rule="evenodd" d="M28.1106 33.2355H35.1032V36.3818H44.5044V33.2355H54.9431V36.3818H64.3498V33.2355H73.9119V36.3818H83.3182V33.2355H92.0867V30.6436H28.1106V33.2355Z" fill="white"></path><path fill-rule="evenodd" clip-rule="evenodd" d="M60.0988 0.5L22.5945 28.8866H29.1372L60.0988 5.45042L91.0658 28.8866H97.6086L60.0988 0.5Z" fill="white"></path><path fill-rule="evenodd" clip-rule="evenodd" d="M34.6653 27.7597H85.877L60.0992 8.25269L34.6653 27.7597Z" fill="white"></path><path fill-rule="evenodd" clip-rule="evenodd" d="M93.9791 75.3198H27.1008V80.1757H93.9791V75.3198Z" fill="white"></path></svg>