<svg xmlns="http://www.w3.org/2000/svg" width="111" height="100" viewBox="0 0 111 100" fill="none"><path fill-rule="evenodd" clip-rule="evenodd" d="M1.61102 77.6323V91.7997H8.98225V89.636H4.03048V77.6323H1.61102Z" fill="white"></path><path fill-rule="evenodd" clip-rule="evenodd" d="M13.2508 85.0659V82.9859C13.2508 80.7533 14.2686 79.6075 15.6504 79.6075C17.0322 79.6075 18.0501 80.7533 18.0501 82.9859V85.0659H13.2508ZM20.4695 91.7981V83.0447C20.4695 79.4795 18.3649 77.3945 15.6504 77.3945C12.9359 77.3945 10.8313 79.4795 10.8313 83.0447V91.7981H13.2556V87.2296H18.0552V91.7981H20.4695Z" fill="white"></path><path fill-rule="evenodd" clip-rule="evenodd" d="M30.3246 82.3923L33.0637 91.8882H34.529L39.0335 77.6323H36.57L33.8062 87.1085L31.0671 77.6323H29.582L26.8429 87.1085L24.0792 77.6323H21.6156L26.1202 91.8882H27.5855L30.3246 82.3923Z" fill="white"></path><path fill-rule="evenodd" clip-rule="evenodd" d="M47.4426 84.7067C47.4426 81.289 49.0112 79.5875 50.5848 79.5875C52.1585 79.5875 53.7322 81.289 53.7322 84.7067C53.7322 88.149 52.1634 89.8458 50.5848 89.8458C49.0112 89.8458 47.4426 88.149 47.4426 84.7067ZM56.1909 84.7067C56.1909 80.4825 53.7714 77.3994 50.5848 77.3994C47.3983 77.3994 44.9788 80.4776 44.9788 84.7067C44.9788 88.9358 47.3983 92.0338 50.5848 92.0338C53.7714 92.0338 56.1909 88.9309 56.1909 84.7067Z" fill="white"></path><path fill-rule="evenodd" clip-rule="evenodd" d="M66.4097 79.8009V77.6323H58.7825V91.7997H61.2067V85.1119H65.9622V82.9431H61.2067V79.8009H66.4097Z" fill="white"></path><path fill-rule="evenodd" clip-rule="evenodd" d="M76.2644 79.8009V77.6323H68.6375V91.7997H71.0569V85.1119H75.8169V82.9431H71.0569V79.8009H76.2644Z" fill="white"></path><path fill-rule="evenodd" clip-rule="evenodd" d="M78.1528 90.0148V91.7997H84.5012V90.0148H82.5292V79.4173H84.5012V77.6323H78.1528V79.4173H80.105V90.0148H78.1528Z" fill="white"></path><path fill-rule="evenodd" clip-rule="evenodd" d="M92.1036 79.6073C93.2936 79.6073 94.1444 80.222 94.8427 81.1809L96.1558 79.863C95.2854 78.2697 93.8001 77.3994 91.8872 77.3994C88.4056 77.3994 86.1091 80.6941 86.1091 84.7265C86.1091 88.7589 88.4056 92.0338 91.8872 92.0338C93.8001 92.0338 95.2412 91.1635 96.1558 89.5702L94.8427 88.2769C94.1395 89.2113 93.2887 89.826 92.1036 89.826C90.2153 89.826 88.5778 87.977 88.5778 84.7265C88.5778 81.476 90.2153 79.6073 92.1036 79.6073Z" fill="white"></path><path fill-rule="evenodd" clip-rule="evenodd" d="M105.888 79.8009V77.6323H98.3932V91.7997H106.104V89.636H100.813V85.1119H105.293V82.9431H100.813V79.8009H105.888Z" fill="white"></path><path fill-rule="evenodd" clip-rule="evenodd" d="M70.0092 62.6563C69.8174 62.0908 69.2912 61.7073 68.6912 61.7073H67.8601V59.5732H38.8416V61.7073H38.4286C37.8336 61.7073 37.2976 62.0908 37.1107 62.6563L35.5665 71.2326H0.0864868V73.5143H110.141V71.2326H71.5582L70.0092 62.6563Z" fill="white"></path><path fill-rule="evenodd" clip-rule="evenodd" d="M38.4925 41.1475C38.6942 41.354 39.0286 41.354 39.2351 41.1475L39.8447 40.5376C40.0463 40.3311 40.0463 40.0016 39.8447 39.795L32.7241 32.6744C32.5175 32.4679 32.1881 32.4679 31.9815 32.6744L31.3719 33.2843C31.1654 33.4909 31.1654 33.8203 31.3719 34.0269L31.8143 34.4693L30.8407 35.8118L30.826 35.7971C30.6096 35.5808 30.2557 35.5808 30.0393 35.7971L29.9015 35.9349C29.6802 36.1513 29.6802 36.5052 29.9015 36.7216L29.9555 36.7807L29.2622 37.474C28.7655 37.9707 28.7655 38.777 29.2622 39.2737L33.1422 43.1537C33.6388 43.6503 34.4452 43.6503 34.9418 43.1537L35.6355 42.4603L35.7927 42.6179C36.014 42.8392 36.3632 42.8392 36.5845 42.6179L36.722 42.4801C36.8744 42.3228 36.9138 42.1015 36.8498 41.9048L38.2467 40.8966L38.4925 41.1475Z" fill="white"></path><path fill-rule="evenodd" clip-rule="evenodd" d="M41.8759 23.5291C41.6694 23.3226 41.335 23.3226 41.1334 23.5291L40.5235 24.1339C40.317 24.3404 40.317 24.6699 40.5235 24.8764L47.6441 31.9922C47.8506 32.1988 48.1801 32.1988 48.3867 31.9922L48.9965 31.3875C49.1982 31.1809 49.1982 30.8514 48.9965 30.6449L48.7507 30.3988L49.7586 29.0022C49.9504 29.0711 50.1767 29.0317 50.3292 28.8743L50.467 28.7369C50.6882 28.5205 50.6882 28.1663 50.467 27.9499L50.3145 27.7926L51.0078 27.0993C51.5045 26.6026 51.5045 25.796 51.0078 25.2993L47.1279 21.4194C46.6312 20.9227 45.8246 20.9227 45.3279 21.4194L44.6346 22.1127L44.5757 22.0539C44.3594 21.8375 44.0052 21.8375 43.784 22.0539L43.6462 22.1913C43.4249 22.4077 43.4249 22.7618 43.6462 22.9831L43.6609 22.9978L42.3184 23.9667L41.8759 23.5291Z" fill="white"></path><path fill-rule="evenodd" clip-rule="evenodd" d="M60.3216 54.4497C60.838 54.966 61.674 54.966 62.1903 54.4497C62.7067 53.9334 62.7067 53.0976 62.1903 52.5813L61.9838 52.3745H61.9739L62.3773 51.9762C62.3626 51.9516 62.343 51.9321 62.3233 51.9075L56.0731 45.6573L60.538 41.1921L57.8628 38.522L53.3979 42.9869L48.9819 38.5712L46.3115 41.2461L50.7275 45.6621L44.5266 51.8631C44.5069 51.8827 44.4922 51.9073 44.4725 51.927L44.8657 52.3256L47.1327 54.5926C47.1524 54.5729 47.177 54.5579 47.1966 54.5382L53.3979 48.3424L59.6481 54.5926C59.6678 54.6122 59.6924 54.6269 59.712 54.6466L60.1103 54.2483V54.2582L60.3216 54.4497Z" fill="white"></path><path fill-rule="evenodd" clip-rule="evenodd" d="M42.9728 39.7811L44.0446 40.8481C44.4478 41.2514 45.0923 41.2514 45.4955 40.8481L48.6671 37.6765C49.0704 37.2733 49.0704 36.6239 48.6671 36.2256L47.6001 35.1586C47.2018 34.7603 46.5478 34.7603 46.1495 35.1586L45.8641 35.4437L44.6494 34.2291C45.4559 33.6832 46.3166 33.2063 47.2411 32.8277L39.8204 25.4072C38.5812 28.4512 36.3832 30.8755 33.5261 32.3901L40.2631 39.1223C40.7106 38.2765 41.2515 37.4944 41.8514 36.7716L43.1988 38.1189L42.9875 38.3305C42.5744 38.7288 42.5745 39.3779 42.9728 39.7811Z" fill="white"></path><path fill-rule="evenodd" clip-rule="evenodd" d="M66.282 39.4418L73.7025 32.0211C70.6585 30.7819 68.2343 28.5837 66.7197 25.7217L59.9826 32.4539C60.8334 32.9063 61.6104 33.4374 62.3382 34.0423L60.9908 35.3896L60.0514 34.4505L57.5338 36.9681L62.1563 41.5906L64.679 39.0679L63.6657 38.0549L64.8804 36.8402C65.4262 37.6516 65.9034 38.5124 66.282 39.4418Z" fill="white"></path><path fill-rule="evenodd" clip-rule="evenodd" d="M64.639 24.0185L63.2968 23.05L63.7047 22.6367L62.7755 21.7074L62.3231 22.1597L60.9068 20.7386C60.8084 20.6402 60.656 20.6402 60.5577 20.7386L55.2268 26.0691C55.1285 26.1675 55.1285 26.3201 55.2268 26.4185L56.6432 27.8346L56.0925 28.3853L57.0169 29.3149L57.2333 29.0985L58.207 30.441L57.5875 31.0605L58.9348 32.4129L66.798 24.5546L65.4455 23.2024L64.639 24.0185Z" fill="white"></path><path fill-rule="evenodd" clip-rule="evenodd" d="M70.7619 43.0666L71.3126 42.5158L72.7287 43.9367C72.8271 44.0301 72.9794 44.0301 73.0778 43.9367L78.4134 38.6013C78.5069 38.503 78.5069 38.3506 78.4134 38.2523L76.9923 36.8311L77.4446 36.3785L76.5201 35.454L76.1071 35.8622L75.1335 34.5197L75.9448 33.7033L74.5974 32.356L66.7343 40.2143L68.0816 41.5617L68.6963 40.947L70.0388 41.9158L69.8224 42.1322L70.7619 43.0666Z" fill="white"></path><path fill-rule="evenodd" clip-rule="evenodd" d="M44.4281 54.1685L44.8903 54.6307C45.2788 55.0192 45.9083 55.0192 46.2967 54.6307L46.7395 54.188L44.8708 52.3193L44.4332 52.762C44.0397 53.1456 44.0396 53.7751 44.4281 54.1685Z" fill="white"></path><path fill-rule="evenodd" clip-rule="evenodd" d="M10.5164 47.0387V45.9272H6.66107V53.2102H10.6248V52.0988H7.90517V49.7727H10.2115V48.6565H7.90517V47.0387H10.5164Z" fill="white"></path><path fill-rule="evenodd" clip-rule="evenodd" d="M13.6932 52.2711C13.1031 52.2711 12.5376 52.0842 11.8491 51.6417L11.4655 52.5022C12.0556 53.0284 12.872 53.3333 13.6932 53.3333C14.9816 53.3333 16.0733 52.6104 16.0733 51.1794C16.0733 49.9156 15.0898 49.419 13.9342 48.9224C13.2457 48.6175 12.754 48.342 12.754 47.7863C12.754 47.2306 13.1917 46.8667 13.8802 46.8667C14.3916 46.8667 14.9374 47.0978 15.5079 47.5207L15.8767 46.6701C15.321 46.1144 14.5981 45.8096 13.8309 45.8096C12.5966 45.8096 11.5592 46.5964 11.5592 47.8208C11.5592 48.9568 12.3115 49.5567 13.2754 49.9846C14.1704 50.378 14.8685 50.6927 14.8685 51.2926C14.8735 51.9761 14.362 52.2711 13.6932 52.2711Z" fill="white"></path><path fill-rule="evenodd" clip-rule="evenodd" d="M19.6582 53.2102V47.0387H21.5957V45.9272H16.4716V47.0387H18.4141V53.2102H19.6582Z" fill="white"></path><path fill-rule="evenodd" clip-rule="evenodd" d="M21.6403 52.5559C21.6403 52.9788 21.9893 53.3327 22.4171 53.3327C22.8449 53.3327 23.1942 52.9837 23.1942 52.5559C23.1942 52.1281 22.8449 51.7788 22.4171 51.7788C21.9893 51.7788 21.6403 52.133 21.6403 52.5559Z" fill="white"></path><path fill-rule="evenodd" clip-rule="evenodd" d="M85.283 52.2769V53.1966H88.5534V52.2769H87.5404V45.7905H86.9896L84.8505 47.6592L85.121 48.1413L86.2912 47.6346V52.2769H85.283Z" fill="white"></path><path fill-rule="evenodd" clip-rule="evenodd" d="M91.9709 49.4838C91.2726 49.4838 90.6923 48.9672 90.6923 48.1755C90.6923 47.3788 91.2726 46.8626 91.9709 46.8626C92.6692 46.8626 93.2495 47.3788 93.2495 48.1755C93.2495 48.9672 92.6741 49.4838 91.9709 49.4838ZM91.602 53.1966L93.7313 50.0493C94.0706 49.5477 94.4639 48.8886 94.4639 48.1707C94.4639 46.8478 93.3379 45.7905 91.9757 45.7905C90.5988 45.7905 89.4824 46.8478 89.4824 48.1707C89.4824 49.5918 90.6726 50.6836 92.1036 50.4328L90.2004 53.1966H91.602Z" fill="white"></path><path fill-rule="evenodd" clip-rule="evenodd" d="M97.9702 49.7443C98.693 49.7443 99.2488 50.2362 99.2488 51.0082C99.2488 51.7704 98.693 52.267 97.9702 52.267C97.2571 52.267 96.6916 51.7754 96.6916 51.0082C96.6916 50.2362 97.262 49.7443 97.9702 49.7443ZM97.9702 46.784C98.5062 46.784 98.9339 47.1674 98.9339 47.7379C98.9339 48.2935 98.5062 48.6869 97.9702 48.6869C97.444 48.6869 97.0211 48.2935 97.0211 47.7379C97.0211 47.1674 97.444 46.784 97.9702 46.784ZM95.4772 51.0229C95.4772 52.3212 96.5933 53.3145 97.9702 53.3145C99.3569 53.3145 100.463 52.3212 100.463 51.0229C100.463 50.2263 100.05 49.5231 99.3814 49.1542C99.8289 48.8149 100.09 48.2936 100.09 47.7232C100.09 46.6315 99.1602 45.7905 97.9702 45.7905C96.79 45.7905 95.8605 46.6315 95.8605 47.7232C95.8605 48.2936 96.1262 48.8297 96.5688 49.1542C95.9049 49.528 95.4772 50.2263 95.4772 51.0229Z" fill="white"></path><path fill-rule="evenodd" clip-rule="evenodd" d="M102.977 53.1963L105.824 46.2576V45.9082H101.044V47.0247H104.294L101.728 53.1963H102.977Z" fill="white"></path><path fill-rule="evenodd" clip-rule="evenodd" d="M25.535 11.3135C24.7285 11.5446 23.927 11.7855 23.1255 12.0362C22.437 9.83318 21.7435 7.62546 21.0551 5.41748C20.6813 5.5355 20.3126 5.65351 19.9388 5.77645C20.7552 8.2844 21.5666 10.7874 22.3829 13.2954C23.4943 12.9364 24.6105 12.5921 25.7268 12.2725C25.6875 11.943 25.6186 11.6184 25.535 11.3135Z" fill="white"></path><path fill-rule="evenodd" clip-rule="evenodd" d="M30.5458 11.0267C30.5213 10.6972 30.4722 10.3823 30.3985 10.0725C29.5035 10.279 28.6132 10.5005 27.7182 10.7316C27.492 9.86613 27.2658 8.99576 27.0396 8.13027C27.6936 7.95816 28.3478 7.7957 29.0067 7.63833C28.9329 7.32853 28.8591 7.0237 28.7903 6.71389C28.1264 6.87125 27.4626 7.0336 26.8037 7.21063C26.607 6.45333 26.4103 5.69603 26.2136 4.94364C27.0938 4.71252 27.9691 4.49605 28.8542 4.29443C28.8296 3.97479 28.7805 3.63563 28.7117 3.34058C27.4183 3.64055 26.13 3.9651 24.8416 4.31424C25.535 6.85662 26.2234 9.40374 26.9168 11.9412C28.1265 11.6068 29.3361 11.307 30.5458 11.0267Z" fill="white"></path><path fill-rule="evenodd" clip-rule="evenodd" d="M33.0099 3.30087C33.5115 3.20744 34.1703 3.25193 34.5785 3.41913C34.6031 3.09457 34.6226 2.71103 34.5833 2.40615C34.0817 2.22911 33.3736 2.23872 32.7884 2.35182C30.9394 2.70097 29.9313 4.10246 30.5755 6.94972C31.2098 9.78223 32.4935 10.6972 34.254 10.3579C34.8884 10.2349 35.5816 9.8759 35.9504 9.52676C35.7439 8.33179 35.5374 7.1368 35.3357 5.94184C34.6325 6.06478 33.9344 6.18773 33.2311 6.32542C33.2902 6.63523 33.3837 6.96446 33.4968 7.24476C33.8066 7.18575 34.1164 7.12699 34.4311 7.06798C34.5541 7.7466 34.6769 8.43003 34.8048 9.10866C34.613 9.2611 34.3571 9.3448 34.0965 9.39889C32.9851 9.61035 32.228 8.99546 31.7559 6.74322C31.2494 4.36313 31.8002 3.53692 33.0099 3.30087Z" fill="white"></path><path fill-rule="evenodd" clip-rule="evenodd" d="M38.2368 6.26249C38.3253 5.25439 38.4187 4.24634 38.522 3.23824C38.5367 3.06121 38.527 2.81526 38.5172 2.61364C38.5417 2.60872 38.5661 2.60865 38.5907 2.60374C38.63 2.80044 38.704 3.03641 38.763 3.20853C39.1318 4.15761 39.4858 5.1018 39.8399 6.05089C39.3039 6.11481 38.7728 6.18872 38.2368 6.26249ZM37.75 1.65468C37.3418 4.38884 37.1106 7.10818 36.9483 9.69973C37.1942 9.72924 37.7106 9.70966 37.9712 9.67032C38.0302 8.83925 38.0941 8.01308 38.163 7.18693C38.8269 7.08858 39.4957 7.0001 40.1595 6.9165C40.4448 7.69839 40.725 8.48023 41.0053 9.26212C41.3594 9.21787 41.8168 9.10955 42.0676 9.0112C41.2267 6.55243 40.2825 3.99543 39.1712 1.46289C38.6942 1.5219 38.2221 1.58584 37.75 1.65468Z" fill="white"></path><path fill-rule="evenodd" clip-rule="evenodd" d="M46.6755 7.71703C45.8444 7.76621 45.0182 7.82527 44.1921 7.89412C44.0003 5.5927 43.8035 3.29144 43.6068 0.985107C43.2232 1.01461 42.8348 1.04902 42.4512 1.08836C42.7069 3.71433 42.9528 6.33527 43.2085 8.95632C44.3592 8.84814 45.51 8.75462 46.6607 8.6907C46.6903 8.36614 46.6951 8.03667 46.6755 7.71703Z" fill="white"></path><path fill-rule="evenodd" clip-rule="evenodd" d="M51.165 7.70944C50.6585 7.71927 50.2013 7.61109 49.7144 7.35046C49.6505 7.63568 49.5766 7.9748 49.552 8.31903C50.0389 8.57474 50.6781 8.6535 51.1797 8.64859C52.4189 8.63383 53.3926 7.81268 53.4074 6.39151C53.4369 3.97207 50.5603 4.09501 50.5308 2.63941C50.5161 1.9362 50.8505 1.44927 51.6816 1.43943C52.0897 1.43452 52.6256 1.51808 53.019 1.64593C53.0977 1.34104 53.1519 0.932897 53.1667 0.672267C52.7585 0.554246 52.1388 0.495367 51.711 0.500285C50.4078 0.51012 49.3357 1.27208 49.3849 2.75226C49.4635 5.02417 52.3059 4.78834 52.3059 6.47014C52.3059 7.2422 51.8584 7.6996 51.165 7.70944Z" fill="white"></path><path fill-rule="evenodd" clip-rule="evenodd" d="M58.7971 1.76782C58.8659 1.45802 58.9102 1.11855 58.9348 0.813664C57.6169 0.730066 56.2991 0.67599 54.9762 0.646484C54.9123 3.27738 54.8532 5.91808 54.7892 8.54897C56.0285 8.57847 57.2629 8.62786 58.4972 8.70654C58.5661 8.38198 58.6102 8.06711 58.6299 7.75239C57.7201 7.69829 56.8104 7.65415 55.8908 7.61972C55.9203 6.72473 55.9549 5.82963 55.9844 4.93464C56.6532 4.95923 57.3218 4.98876 57.9906 5.02318C58.0102 4.70846 58.0252 4.38885 58.0449 4.07413C57.3712 4.03479 56.6923 4.00525 56.0186 3.98558C56.0432 3.20369 56.0727 2.42185 56.0973 1.63996C57.0021 1.66947 57.9021 1.70881 58.7971 1.76782Z" fill="white"></path><path fill-rule="evenodd" clip-rule="evenodd" d="M63.4643 3.4492C63.3561 4.47697 62.8595 4.90483 62.0677 4.83106C61.812 4.80648 61.5563 4.782 61.3006 4.76233C61.3842 3.78866 61.4727 2.81471 61.5563 1.84103C61.7727 1.83612 61.9937 1.84616 62.2691 1.87075C63.1641 1.94943 63.5725 2.45586 63.4643 3.4492ZM62.3135 0.990425C61.8759 0.951085 61.1432 0.941319 60.4794 1.00033C60.2827 3.60172 60.086 6.20298 59.8893 8.80437C60.2433 8.82895 60.5923 8.8586 60.9464 8.88811C61.0398 7.80624 61.1332 6.72433 61.2315 5.63755C61.5266 5.66214 61.8217 5.69148 62.1118 5.72099C62.4167 6.14882 62.6234 6.67023 62.9135 7.8406C63.0217 8.28318 63.1248 8.72575 63.2281 9.17324C63.5231 9.20767 64.0495 9.21755 64.3347 9.15854C64.197 8.56843 64.0494 7.97329 63.9019 7.38319C63.6708 6.4341 63.4493 5.95217 63.0903 5.47517C63.8329 5.27847 64.4967 4.72292 64.6394 3.52304C64.8311 1.915 63.897 1.13795 62.3135 0.990425Z" fill="white"></path><path fill-rule="evenodd" clip-rule="evenodd" d="M67.58 7.63879C67.4275 5.6226 67.2506 3.60631 67.049 1.5852C66.6655 1.5311 66.149 1.49668 65.8737 1.52127C66.1343 4.25051 66.4538 6.9602 66.7882 9.57142C67.1767 9.63043 67.5652 9.68938 67.9537 9.75331C69.065 7.36338 70.1862 4.88017 71.2582 2.35747C71.0369 2.25912 70.5502 2.13614 70.1912 2.07713C69.3847 3.93597 68.5978 5.80963 67.8405 7.68322C67.7618 7.875 67.693 8.07644 67.6487 8.29281C67.6241 8.28789 67.5998 8.28782 67.5752 8.2829C67.5998 8.0567 67.5996 7.84041 67.58 7.63879Z" fill="white"></path><path fill-rule="evenodd" clip-rule="evenodd" d="M73.7417 2.77655C73.3631 2.69786 72.9844 2.6243 72.6009 2.55054C72.0993 5.13717 71.5978 7.72382 71.0963 10.3105C71.4454 10.3793 71.7994 10.448 72.1486 10.5218C72.6797 7.94004 73.2106 5.35334 73.7417 2.77655Z" fill="white"></path><path fill-rule="evenodd" clip-rule="evenodd" d="M79.628 4.44343C79.3428 4.10903 78.664 3.78934 78.1084 3.65165C76.3774 3.2189 75.0152 4.09414 74.3956 6.94633C73.7711 9.81326 74.4892 11.1361 76.1562 11.5541C76.6677 11.682 77.356 11.6918 77.8773 11.4656C77.9264 11.1804 77.9561 10.7969 77.9463 10.4625C77.4496 10.6789 76.8986 10.7328 76.4068 10.6099C75.2758 10.3247 75.0792 9.30175 75.5562 7.23146C76.0824 4.96939 76.8003 4.32532 77.9019 4.6007C78.3985 4.72364 78.851 4.98428 79.1805 5.34326C79.3575 5.0482 79.5198 4.7434 79.628 4.44343Z" fill="white"></path><path fill-rule="evenodd" clip-rule="evenodd" d="M84.5848 6.62065C84.7324 6.33543 84.8603 6.02056 84.9537 5.73042C83.6801 5.31735 82.4064 4.93397 81.123 4.57007C80.405 7.10753 79.687 9.64005 78.9739 12.1775C80.1738 12.5168 81.3736 12.8805 82.5637 13.264C82.7112 12.969 82.8293 12.6741 82.9325 12.3741C82.0523 12.0889 81.1719 11.8134 80.2868 11.5577C80.5376 10.6971 80.7932 9.83663 81.044 8.98098C81.6931 9.17276 82.3425 9.36933 82.9917 9.57586C83.0851 9.27589 83.1834 8.97102 83.2768 8.66613C82.6228 8.45959 81.9688 8.25823 81.3148 8.06644C81.5311 7.31897 81.7523 6.56643 81.9736 5.81897C82.844 6.07468 83.7144 6.34527 84.5848 6.62065Z" fill="white"></path><path fill-rule="evenodd" clip-rule="evenodd" d="M0.081543 99.5H110.136V97.2183H0.081543V99.5Z" fill="white"></path></svg>